/* XPM */
static char *_e27610220b44a50ce5133248e58a7d16n41Hkx8gsjFj70C[] = {
/* columns rows colors chars-per-pixel */
"64 64 190 2 ",
"   c #131412",
".  c #171A18",
"X  c #241E16",
"o  c #1F221F",
"O  c #2E380E",
"+  c #252314",
"@  c #282418",
"#  c #31281C",
"$  c #221C24",
"%  c #162221",
"&  c #1E2B2D",
"*  c #252426",
"=  c #3B2A28",
"-  c #383424",
";  c #642819",
":  c #732512",
">  c #732A16",
",  c #7B2A16",
"<  c #7D311C",
"1  c #453A20",
"2  c #4A332D",
"3  c #4D352D",
"4  c #473131",
"5  c #4A3331",
"6  c #4F3830",
"7  c #553F35",
"8  c #683223",
"9  c #753B2D",
"0  c #204D05",
"q  c #2D430A",
"w  c #35430C",
"e  c #235703",
"r  c #276402",
"t  c #2B6301",
"y  c #276800",
"u  c #2B6901",
"i  c #336C00",
"p  c #3B6B02",
"a  c #396806",
"s  c #397705",
"d  c #52580E",
"f  c #664B1B",
"g  c #684C1B",
"h  c #65521B",
"j  c #6D501C",
"k  c #486706",
"l  c #446B03",
"z  c #57680E",
"x  c #48770A",
"c  c #537A0C",
"v  c #4D7215",
"b  c #62780E",
"n  c #5D4924",
"m  c #664C22",
"M  c #6C5123",
"N  c #685226",
"B  c #795B2A",
"V  c #786330",
"C  c #1D3E4C",
"Z  c #1B4656",
"A  c #1D4C5B",
"S  c #1F535F",
"D  c #28434D",
"F  c #294550",
"G  c #314651",
"H  c #324A54",
"J  c #2C5059",
"K  c #1F5360",
"L  c #225664",
"P  c #4A494B",
"I  c #52534B",
"U  c #504F5D",
"Y  c #555657",
"T  c #53525D",
"R  c #6A5C51",
"E  c #675D5B",
"W  c #53644D",
"Q  c #535461",
"!  c #5A5D68",
"~  c #706E67",
"^  c #757B76",
"/  c #B63F27",
"(  c #835B1F",
")  c #815F28",
"_  c #88553C",
"`  c #94573C",
"'  c #BA4027",
"]  c #BD4129",
"[  c #B44D36",
"{  c #85642B",
"}  c #8A662C",
"|  c #886A2B",
" . c #8D7B29",
".. c #907D29",
"X. c #896730",
"o. c #8A6A37",
"O. c #C9472C",
"+. c #CE5739",
"@. c #835440",
"#. c #975E42",
"$. c #996143",
"%. c #916F4D",
"&. c #917E4F",
"*. c #B87E60",
"=. c #C47F59",
"-. c #368502",
";. c #3A8406",
":. c #3A8507",
">. c #43870E",
",. c #42880D",
"<. c #489704",
"1. c #4C9D05",
"2. c #549C0B",
"3. c #5B9D0A",
"4. c #558F13",
"5. c #4CA505",
"6. c #4CAB03",
"7. c #54A505",
"8. c #56A40A",
"9. c #56A412",
"0. c #71AD12",
"q. c #659023",
"w. c #3A847B",
"e. c #45877B",
"r. c #778E71",
"t. c #8B8225",
"y. c #96852A",
"u. c #958535",
"i. c #96AB28",
"p. c #A6B634",
"a. c #B1CA2D",
"s. c #B7D32E",
"d. c #AEC838",
"f. c #B3CD32",
"g. c #B1CD38",
"h. c #98805F",
"j. c #BCAB4C",
"k. c #909472",
"l. c #B98364",
"z. c #CC865E",
"x. c #EA8C4A",
"c. c #EE954D",
"v. c #F0994F",
"b. c #EE9D56",
"n. c #CC8D64",
"m. c #D28C63",
"M. c #CA926E",
"N. c #D79568",
"B. c #E1A163",
"V. c #B2C843",
"C. c #757082",
"Z. c #318582",
"A. c #368D86",
"S. c #359189",
"D. c #38948D",
"F. c #3D9994",
"G. c #4D9282",
"H. c #419D99",
"J. c #778183",
"K. c #7B8688",
"L. c #7E8B8A",
"P. c #6BC7D5",
"I. c #6DCCD8",
"U. c #70D0DD",
"Y. c #76D4E4",
"T. c #79D9E9",
"R. c #828E8D",
"E. c #8A9693",
"W. c #919C98",
"Q. c #A69684",
"!. c #9EABA1",
"~. c #A1AEA4",
"^. c #A6B3A7",
"/. c #B1BCAF",
"(. c #B2BEB0",
"). c #DAB786",
"_. c #E4BC89",
"`. c #B6C0B2",
"'. c #DCC296",
"]. c #E6C99A",
"[. c #F5CC95",
"{. c #F8D199",
"}. c #87CFD3",
"|. c #CFD2C2",
" X c #D2D5C5",
".X c #DEDDCD",
"XX c #E2D7C7",
"oX c #EAE5D6",
"OX c #F3ECDD",
"+X c #F8F0E1",
/* pixels */
"1 R R R R R R &.&.&.&.&.&.&.&.&.( ( ( R R R R R R R R R R R Y I 1 R R R R R R &.&.&.&.&.&.&.&.&.( ( ( R R R R R R R R R R R 1 1 ",
"( ( ( ( ( ( 1 1 &.R ( ( ( ( ( ( ( R R 1 R R ( ( ( ( ( ( R R R R R R ( ( ( ( 1 1 R R ( ( ( ( ( ( ( R R 1 R R ( ( ( ( ( ( R R R R ",
"( ( ( ( ( ( ( 1 1 1 1 R R R R 1 1 1 1 R ( ( ( ( ( ( ( &.&.( ( R ) ( &.( ( ( ( 1 1 1 1 R R R R 1 1 1 1 R ( ( ( ( ( ( ( &.&.( ( R ",
"( ( ( ( ( ( ( R R R R 1 ( ( ( R 1 1 R ( ( &.&.&.&.( &.&.&.&.( ( ( &.&.&.( ( ( R R R R 1 ( ( ( R 1 1 R ( ( &.&.&.&.( &.&.&.&.( ( ",
"&.&.&.( ( R R ( ( ( ( R ( ( ( ( ( R R ( &.&.&.&.&.( ( &.&.&.&.&.( &.&.&.( R R ( ( ( ( R ( ( ( ( ( R R ( &.&.&.&.&.( ( &.&.&.&.&.",
"&.&.&.( R ( ( &.&.&.&.( R ( ( ( ( ( R ( ( &.&.&.&.&.( ( ( &.&.&.( &.( ( R ( ( &.&.&.&.( R ( ( ( ( ( R ( ( &.&.&.&.&.( ( ( &.&.&.",
"&.( ( ( ( ( ( ( ( &.&.&.( R R ( ( 1 1 R R ( &.&.&.&.&.&.&.&.&.( R ( ( R ( ( ( ( &.&.&.&.( R R ( ( 1 1 R R ( &.&.&.&.&.&.&.&.&.( ",
"( ( &.&.&.&.&.( ( ( &.&.&.1 R R R 1 ( ( ( R R R ( ( &.&.&.&.( ( R ( R ( &.&.&.( ( ( &.&.&.1 R R R 1 ( ( ( R R R ( ( &.&.&.&.( ( ",
"( &.&.&.&.&.&.&.&.( &.&.&.( 1 R R R ( ( ( ( ( 1 1 R R B ) >.( R R R >.&.&.&.&.&.&.( &.&.&.( 1 R R R ( ( ( ( ( 1 1 R R ( ( ( ( ( ",
"&.&.&.&.&.&.&.&.&.&.( ( &.( 1 1 ( ( ( ( ( ( ) ,.) 1 R E &.g.<.~ y.i 4.&.&.&.&.&.&.&.( ( &.( 1 1 ( ( ( ( ( ( ( ( ( 1 R R ( ( ( R ",
"&.&.&.&.&.&.&.&.( ( ( &.&.( R 1 ( ( ( ( ( ( ( p f.( 1 d 3.8.>.~ y.3.7.&.&.&.&.&.( ( ( &.&.( R 1 ( ( ( ( ( ( ( &.&.( 1 1 R R R R ",
"&.&.&.&.&.&.&.&.&.&.&.( ( R R R ( ( ( ( ( ( &.&.9.( 1 8.7.} { y.} 2...C.&.-.6.&.&.&.&.( 1 1 R R ( ( ( ( ( ( &.&.&.( 1 1 1 1 R R ",
"R ( &.&.&.&.&.&.&.( ( ( ( ( ( R R 1 1 ( ( ( ( ( ,.7.3.,.} 1 ^ ^ &.J.r.C.:.V.c &.&.( ( 1 R ( ( R R 1 1 ( ( ( ( ( R 1 R ( ( ( ( ( ",
"( R R R ( &.&.( 1 R R R ( ( ( ( ( ( ( R R R R R 1 y.,.1 T r.!.!.~.~.~.!.E.W R ) R R R R ( ( ( ( ( ( ( R R R R R 1 1 1 ( &.&.&.( ",
"( ( ( ( R R R 1 1 ( ( ( ( ( ( ( ( ( ( ( &.&.&.( R } g Y C.!. X X X X X|.^.J.T R R f R ( ( ( ( ( ( ( ( ( &.&.&.R R 1 ( &.&.&.( ( ",
"( ( ( R R 1 R R R ( ( &.&.&.&.&.( ( ( &.&.&.&.( R 8.} Q !. XW./.`.`.`.W.|.^.Q h f } R ( &.&.&.&.( ( ( &.&.&.&.&.R R ( &.&.&.&.&.",
"&.( ( R 1 R R ( ( &.&.&.&.&.( ( ( ( ( ( &.V.) R R 7.W ^ ^.W.!. X X X X^.W.^.C.E } } R ( u.h.( j ( ( ( ( &.&.&.&.( R ( &.&.&.&.&.",
"&.&.&.( R ( ( &.&.&.&.&.&.( &.&.&.&.&.&.&.7.,.R o.p Y K.^.L.|..X.X.X.X XR.^.L.Q } | g R ( ( ( h.&.&.&.&.&.&.&.&.( R ( &.&.&.&.&.",
"&.&.&.( R ( &.&.&.&.&.&.&.&.&.&.&.&.&.( R R 9.>.j.j.U R.E.!.OX.XOXOX.XOXR.E.K.Q 8.u 8.R R ( p h.&.&.&.&.&.&.( ( 1 1 1 ( &.&.&.&.",
"&.&.( ( R R ( &.&.&.&.&.&.&.&.&.&.&.( R j B } 3.y.{ U R.! ^.OX(.OX+X`.+XR.! K.Q | V s.V R d.i c &.&.( R 1 1 1 1 1 1 1 ( ( ( ( &.",
"&.( R R 1 R R ( &.&.&.&.&.&.&.&.) R 2.X.i l } 7.k g U ! Q ^..XW..X.XE..XL.Q ! Q q 4 6.i 7.7.R R ( R R 1 ( ( ( ( ( ( 1 1 1 1 ( ( ",
"R R 1 R R ( ( R R ( &.&.&.&.&.( R a p.o.g.g j.k k q T %.Q ! W.L.`.`.L.E.! U V Q 2 4 i 7.7.k } R R a ( &.( ( ( ( &.&.( ( ( 1 1 1 ",
"1 1 R ( ( ( ( ( ( R 1 ( &.( R R R i 7.a 7.y.} 5 g 6.$ ).@.*._._.].].'.M.*._ =.$ f 2 x p l y.o.} g.i &.&.&.&.&.( &.&.&.&.&.( 1 1 ",
"R ( ( ( ( ( &.&.&.( 1 1 1 1 1 R { u 1.8.d y.g 5 2 O . ~ @.n.#.#.M.N.$.#.z.` E   5.t y.y.2 n c 7.7.R &.&.&.&.&.&.&.&.&.&.&.( ( 1 ",
"R ( &.&.&.&.&.&.( 1 1 R R R R f } f 1.g { y.y + 4 q   o P @.XX$ z.m.X XX` P $   a.s.a g g d 7.7.k R ( &.&.&.&.&.&.&.&.&.( ( ( ( ",
"R R ( &.&.&.( 1 1 1 ( ( ( ( R g } g 4 y q -.q 0.q -.O a $ B OXX _.[.. oX` $ x i.6.q -.) } k i p o.R R ( &.&.&.&.&.&.&.&.&.&.( ( ",
"( R R R R R R ( ( ( ( ( ( ( R } y.4 -.6.y -.-.s.q y 4 q <.+ M.).{.{.l.N.@ e 6.y q + 6.w g } } g f R I a ( ( &.&.( ( ( &.&.&.&.&.",
"( R 1 1 1 ( ( ( ( &.&.( &.) i } g q q s.-.y s.6.-.s.6.-.> : # n.[.{.m.# > > :.+ y y q 6.g g M } } g i f.( ( ( ( &.( &.&.&.&.&.&.",
"R R ( ( ( ( ( &.&.&.( ( &.( 7.7.p } g y s.-.0.-.-.6.-.> ' : < ` #.$.` < : / : O -.6.y q j j x g.f | 8.7.( ( ( &.&.&.&.&.&.&.&.&.",
"R ( ( ( ( ( ( ( ( ( ( ( ( &.p f.7.y.} q 6.-.6.-.6.y u : , ] ] +.b.b.+.O.O., : w y 6.} g q g v 7.o.j 7.p R 1 ( ( &.&.&.&.&.&.( ( ",
"R ( ( ( ( ( &.&.&.&.( ( &.R ) i 8.} } y q 6.-.y y -.w.w.D > O.x.c.v.x.O., D e.w.:.y s.6.-.} } i i 7.l | R R ( ( ( &.&.&.&.( R 1 ",
"1 1 ( ( ( ( &.&.&.&.k.R R } g d 7.h 6.u -.y q 4 -.6.S.U.A.D G e.G.G.G.H D w.I.D.2.u u a.5.g } g i 3.j } } 1 1 R R ( &.( ( R 1 1 ",
"1 R R R R R R ( &.x i Q.1 6.f f y.m q.:.:.f.5.:.u :.J Y.U.A Z.I.U.U.U.A.A I.T.L d.q -.y q -.q 4 4 n j 6.6.i | R R R R R R R R R ",
"( ( ( ( ( ( 1 1 R x g.i | u ,.y.f N 5.-.u 6.6.s.-.y Z Y.T.8 A.F.Y.T.H.S.; Y.T.A -.q -.6.y -.-.q 4 f 5.} y.y.y.R ( ( ( ) R R R R ",
"( ( ( ( ( ( ( 1 1 1 i 7.x g u } 4 4 3 n -.r h -.6.-.@ '.].e.8 [ N.B.[ 8 w.'.].* r q q 6.-.y 6.s.q u u y.y.I R R ( ( ( &.&.( ( R ",
"( ( ( ( ( ( ( R R R 1 i 8.j.j # :.6.-.4 v -.y.h + -.  ].N.A.w.e.}.}.G.e.A.n.{.. r 6.q r 6.4 f.-.@ M f } P R ( &.h.( h...&.&.( ( ",
"&.&.&.( ( R R ( ) ( R 1 8.y.y.n 7 4 6.6.-.6.q + f +   z.` A A.I.T.T.U.D.S _ m.. -.6.-.+ 4 -.6.+ { 5.{ g 1 ( ( &.&.( ( &.&.&.&.&.",
"&.&.&.( R ( ( &.&.&.( R 1 } y.{ u.4 X 6.6.y q 6.+ f q @ C Z A F.Y.T.H.S Z   @ + @ s.6.+ + -.5 { } i 7.f 1 ( &.&.&.&.( ( ( &.&.&.",
"&.( ( ( ( ( ( ( ( &.&.R R 1 } u 6.p r + <.y 6.-.6.y q s . ; [ [ 9 & 8 ; . :.e + 4 @ s.y 4 + B f y.{ 7.4 R ( &.&.&.&.&.&.&.&.&.( ",
"( ( &.&.&.&.&.( ( ( &.( R R 1 g.a f 4 s + q s.q -.6.y q ; ' x.O.,   / ] C s u q 4 5 q 5.X n f u.y.} a 1 1 R R R ( ( &.&.&.&.( ( ",
"( &.&.&.&.&.&.&.&.( &.&.( R 7.7.i | g + 6.q 0.q q 6.q q : O.v.O.: C G G Z.q -.-.% 5 # -.5 u.y.2.| n g 1 ( ( ( 1 1 R R ( ( ( ( ( ",
"&.&.&.&.&.&.&.&.&.&.( ( &.R 7.l } g g g + 6.q + r -.y -.D F H H D Z Z.P.D.  s 6.@ 4 6 -.#.V l g.} g 1 R ( ( ( ( ( 1 R R ( ( ( R ",
"&.&.&.&.&.&.&.&.( ( ( &.&.1 7.} 7.7.u p.4 y u -.6.0 6.F Z.Z.Z.Z.Z Z P.Y.I.w.. * -.m 8.} k V 6 6.-.I ( ( ( ( ( &.&.( 1 1 R R R R ",
"&.&.&.&.&.&.&.&.&.&.&.( ( 1 1 5.1 1 j 7.3.f -.s.+ -.  w.I.U.D.S.% . & & & %   4 3 u p.o.d.g y.5 5.-.( ( ( ( &.&.&.( 1 1 1 1 R R ",
"R ( &.&.&.&.&.&.&.( ( ( R R i r R 1 | i 3.5 7.y + 6.  % & & % %   0 e = B - N n } i 6.a 7.y.g m  .6.R ( ( ( ( ( R 1 R ( ( ( ( ( ",
"( R R R ( &.&.( 1 R R R R ( ( ( R R 1 i 3.M 4 + r s.:.+ + :.e u =  .{ n } ..6.6.i p 1.7.| g y.y.{ 6.b R R R R R 1 1 1 ( &.&.&.( ",
"( ( ( ( R R R 1 1 ( ( ( ( ( ( ( { R R 1 a n g q 6.6.+ 4 q s.r y 7 i f g y.6...m j } 1.i g 1 1 1 R p z R &.&.&.R R 1 ( &.&.&.( ( ",
"( ( ( R R 1 R R R ( ( &.&.&.&.&.( ( R 1 t.o.o.# -.+ 4 @ -.5.4 w f 7.7.k r u j...} } 1 1 1 ( &.&.( R R &.&.&.&.&.R R ( &.&.&.&.&.",
"&.( ( R 1 R R ( ( &.&.&.&.&.( ( u 6.8.R | 8.7.X.s 5 } + 6.+ $ 4 } a f.8.} 4 1 n 1 1 1 ( ( &.( ( ( ( ( ( &.&.&.&.( R ( &.&.&.&.&.",
"&.&.&.( R ( ( &.&.&.&.&.&.( &.&.h.u g.R 8.f.i N g g g -.- 4 M $ } y.i 7.} g - R R ( ( &.&.( &.&.&.&.&.&.&.&.&.&.( R ( &.&.&.&.&.",
"&.&.&.( R ( &.&.&.&.&.&.&.&.&.&. .h.p 7.7.i { } j.y.g f 7.} a p g } i 7.p j R ( ( &.&.&.&.&.&.&.&.&.&.&.&.&.( ( R 1 R ( &.&.&.&.",
"&.&.( ( R R ( &.&.&.&.&.&.&.&.&.h.h.( i i 1 1 1 y.g y.a p.f d.g g g B u a M R ) &.&.&.&.&.&.&.&.&.&.( R 1 1 1 1 1 1 1 ( ( ( ( &.",
"&.( R R 1 R R ( &.&.&.&.&.&.&.&.( R R 1 ( ( ( ( 1 1 } p 7.i 7.} g } g 1 1 _ R R &.&.&.&.&.&.&.&.( R R 1 ( ( ( ( ( ( 1 1 1 1 ( ( ",
"R R 1 R R ( ( R R ( &.&.&.&.&.( ( R ( &.( ( ( ( ( ( 1 a 1.7.a } 1 1 1 R R ( R R R ( &.&.&.&.&.( ( R ( &.( ( ( ( &.&.( ( ( 1 1 1 ",
"1 1 R ( ( ( ( ( ( R 1 ( &.( R R R ( &.&.&.&.&.( &.&.&.&.2.s 1 1 R R R ( ( ( ( ( ( R 1 ( &.( R R R ( &.&.&.&.&.( &.&.&.&.&.( 1 1 ",
"R ( ( ( ( ( &.&.&.( 1 1 1 1 1 1 1 R &.&.&.&.&.&.&.&.&.&.&.( ( 1 R ( ( ( ( ( &.&.&.( 1 1 1 1 1 1 1 R &.&.&.&.&.&.&.&.&.&.&.( ( 1 ",
"R ( &.&.&.&.&.&.( 1 1 R R R R 1 1 1 ( &.&.&.&.&.&.&.&.&.( ( ( ( R ( &.&.&.&.&.&.( 1 1 R R R R 1 1 1 ( &.&.&.&.&.&.&.&.&.( ( ( ( ",
"R R ( &.&.&.( 1 1 1 ( ( ( ( ( R R R R ( &.&.&.&.&.&.&.&.&.&.( ( R R ( &.&.&.( 1 1 1 ( ( ( ( ( R R R R ( &.&.&.&.&.&.&.&.&.&.( ( ",
"( R R R R R R ( ( ( ( ( ( ( &.( ( ( 1 1 ( ( &.&.( ( ( &.&.&.&.&.( R R R R R R ( ( ( ( ( ( ( &.( ( ( 1 1 ( ( &.&.( ( ( &.&.&.&.&.",
"( R 1 1 1 ( ( ( ( &.&.( &.&.&.&.( ( ( ( 1 ( ( ( &.( &.&.&.&.&.&.( R 1 1 1 ( ( ( ( &.&.( &.&.&.&.( ( ( ( 1 ( ( ( &.( &.&.&.&.&.&.",
"R R ( ( ( ( ( &.&.&.( ( &.&.&.&.&.&.&.( R R ( &.&.&.&.&.&.&.&.&.R R ( ( ( ( ( &.&.&.( ( &.&.&.&.&.&.&.( R R ( &.&.&.&.&.&.&.&.&.",
"R ( ( ( ( ( ( ( ( ( ( ( ( &.&.&.&.&.&.&.R 1 R ( &.&.&.&.&.&.( ( R ( ( ( ( ( ( ( ( ( ( ( ( &.&.&.&.&.&.&.R 1 R ( &.&.&.&.&.&.( ( ",
"R ( ( ( ( ( &.&.&.&.( ( &.&.&.&.&.&.&.&.( R 1 R ( &.&.&.&.( R 1 R ( ( ( ( ( &.&.&.&.( ( &.&.&.&.&.&.&.&.( R 1 R ( &.&.&.&.( R 1 ",
"1 1 ( ( ( ( &.&.&.&.&.&.&.&.&.&.&.&.&.( R 1 1 R R ( &.( ( R 1 1 1 1 ( ( ( ( &.&.&.&.&.&.&.&.&.&.&.&.&.( R 1 1 R R ( &.( ( R 1 1 "
};
