/* XPM */
static char *result[] = {
/* columns rows colors chars-per-pixel */
"64 64 190 2 ",
"   c #121212",
".  c #1D1311",
"X  c #13191B",
"o  c #251D17",
"O  c #293B0C",
"+  c #252314",
"@  c #292419",
"#  c #32291B",
"$  c #383812",
"%  c #1D1D20",
"&  c #211827",
"*  c #1A2526",
"=  c #252027",
"-  c #3B2A28",
";  c #383424",
":  c #682617",
">  c #762815",
",  c #752A15",
"<  c #7E311B",
"1  c #453A20",
"2  c #4D352D",
"3  c #473131",
"4  c #4A3331",
"5  c #4F3830",
"6  c #553F35",
"7  c #214D05",
"8  c #2D430A",
"9  c #33430D",
"0  c #215304",
"q  c #385907",
"w  c #2C6402",
"e  c #276800",
"r  c #2C6A02",
"t  c #366704",
"y  c #336C00",
"u  c #3C6B02",
"i  c #3C7104",
"p  c #347D04",
"a  c #2F6111",
"s  c #3C572A",
"d  c #4F5510",
"f  c #664C1B",
"g  c #684C1B",
"h  c #65521B",
"j  c #6D501C",
"k  c #486706",
"l  c #446B03",
"z  c #57680E",
"x  c #48760A",
"c  c #537A0C",
"v  c #4D7215",
"b  c #62780E",
"n  c #5D4924",
"m  c #664C22",
"M  c #6C5123",
"N  c #795B2A",
"B  c #705438",
"V  c #766627",
"C  c #796039",
"Z  c #193E4C",
"A  c #1C4957",
"S  c #1E515E",
"D  c #25424E",
"F  c #2A434C",
"G  c #32454F",
"H  c #244B56",
"J  c #314651",
"K  c #23505C",
"L  c #307C75",
"P  c #494A4A",
"I  c #4E5A4F",
"U  c #53524C",
"Y  c #4F4E56",
"T  c #535654",
"R  c #53535D",
"E  c #6A5C51",
"W  c #6B5C5E",
"Q  c #51644A",
"!  c #656A5A",
"~  c #535461",
"^  c #5A5D68",
"/  c #727167",
"(  c #737B78",
")  c #B63F27",
"_  c #835B1F",
"`  c #815F28",
"'  c #834C35",
"]  c #89523A",
"[  c #92563A",
"{  c #95593C",
"}  c #BD4129",
"|  c #AB4430",
" . c #B14631",
".. c #85632B",
"X. c #8A662C",
"o. c #886A2A",
"O. c #8D7B29",
"+. c #907D29",
"@. c #896730",
"#. c #8A6A37",
"$. c #C7492D",
"%. c #C74D31",
"&. c #D05432",
"*. c #865542",
"=. c #945D41",
"-. c #826B44",
";. c #996143",
":. c #917E4F",
">. c #A47D55",
",. c #B97B57",
"<. c #B87E60",
"1. c #C57F58",
"2. c #368502",
"3. c #3A8405",
"4. c #388802",
"5. c #428A0A",
"6. c #42880D",
"7. c #499703",
"8. c #4C9D05",
"9. c #549C0B",
"0. c #5B9D0A",
"q. c #558F13",
"w. c #4DA505",
"e. c #4CAB03",
"r. c #54A505",
"t. c #56A409",
"y. c #56A412",
"u. c #71AD12",
"i. c #659023",
"p. c #35837D",
"a. c #46847B",
"s. c #748C71",
"d. c #888D25",
"f. c #95842A",
"g. c #958535",
"h. c #91A627",
"j. c #A6B634",
"k. c #B3C92D",
"l. c #B7D32E",
"z. c #AEC839",
"x. c #B3CD32",
"c. c #B1CD38",
"v. c #98805F",
"b. c #BDAC4C",
"n. c #989168",
"m. c #808378",
"M. c #BE8767",
"N. c #CA855D",
"B. c #E88C49",
"V. c #ED944D",
"C. c #F0994F",
"Z. c #D28B62",
"A. c #C9906D",
"S. c #D6946B",
"D. c #C69370",
"F. c #D7AB7C",
"G. c #B2C843",
"H. c #766C82",
"J. c #328682",
"K. c #358B85",
"L. c #399189",
"P. c #4D9281",
"I. c #798586",
"U. c #7E8B8A",
"Y. c #6DCBD8",
"T. c #71D0DD",
"R. c #79D9E8",
"E. c #828E8D",
"W. c #8A9693",
"Q. c #919C98",
"!. c #A69684",
"~. c #9EABA1",
"^. c #A1AEA4",
"/. c #A6B3A7",
"(. c #B1BCAF",
"). c #B2BEB0",
"_. c #D0AF84",
"`. c #B6C0B2",
"'. c #E8C38E",
"]. c #F1C58F",
"[. c #E7C896",
"{. c #F4CA94",
"}. c #F8D199",
"|. c #CFD2C2",
" X c #D2D5C5",
".X c #DEDDCD",
"XX c #E2D7C7",
"oX c #E9E5D5",
"OX c #F4EDDE",
"+X c #F8F0E1",
/* pixels */
"1 E E E E E E :.:.:.:.:.:.:.:.:._ _ _ E E E E E E E E E E E T T 1 E E E E E E :.:.:.:.:.:.:.:.:._ _ _ E E E E E E E E E E E 1 1 ",
"_ _ _ _ _ _ 1 1 :.E _ _ _ _ _ _ _ E E 1 E E _ _ _ _ _ _ E E E E E E _ _ _ _ 1 1 E E _ _ _ _ _ _ _ E E 1 E E _ _ _ _ _ _ E E E E ",
"_ _ _ _ _ _ _ 1 1 1 1 E E E E 1 1 1 1 E _ _ _ _ _ _ _ :.:._ _ E _ _ :._ _ _ _ 1 1 1 1 E E E E 1 1 1 1 E _ _ _ _ _ _ _ :.:._ _ E ",
"_ _ _ _ _ _ _ E E E E 1 _ _ _ E 1 1 E _ _ :.:.:.:._ :.:.:.:._ _ _ :.:.:._ _ _ E E E E 1 _ _ _ E 1 1 E _ _ :.:.:.:._ :.:.:.:._ _ ",
":.:.:._ _ E E _ _ _ _ E _ _ _ _ _ E E _ :.:.:.:.:._ _ :.:.:.:.:._ :.:.:._ E E _ _ _ _ E _ _ _ _ _ E E _ :.:.:.:.:._ _ :.:.:.:.:.",
":.:.:._ E _ _ :.:.:.:._ E _ _ _ _ _ E _ _ :.:.:.:.:._ _ _ :.:.:._ :._ _ E _ _ :.:.:.:._ E _ _ _ _ _ E _ _ :.:.:.:.:._ _ _ :.:.:.",
":._ _ _ _ _ _ _ _ :.:.:._ E E _ _ 1 1 E E _ :.:.:.:.:.:.:.:.:._ E _ _ E _ _ _ _ :.:.:.:._ E E _ _ 1 1 E E _ :.:.:.:.:.:.:.:.:._ ",
"_ _ :.:.:.:.:._ _ _ :.:.:.1 E E E 1 _ _ _ E E E _ _ :.:.:.:._ _ E _ E _ :.:.:._ _ _ :.:.:.1 E E E 1 _ _ _ E E E _ _ :.:.:.:._ _ ",
"_ :.:.:.:.:.:.:.:._ :.:.:._ 1 E E E _ _ _ _ _ 1 1 E E _ _ 6.N E E E x v.:.:.:.:.:.` :.:.:._ 1 E E E _ _ _ _ _ 1 1 E E _ _ _ _ _ ",
":.:.:.:.:.:.:.:.:.:._ _ :._ 1 1 _ _ _ _ _ _ _ 5._ 1 E E v.c.6.:.f.y 8.v.:.:.:.:.:.:._ _ :._ 1 1 _ _ _ _ _ _ _ _ _ 1 E E _ _ _ E ",
":.:.:.:.:.:.:.:._ _ _ :.:._ E 1 _ _ _ _ _ _ _ y c._ 1 s r.r.5./ f.9.r.:.:.:.:.:._ _ _ :.:._ E 1 _ _ _ _ _ _ _ :.:._ 1 1 E E E E ",
":.:.:.:.:.:.:.:.:.:.:._ _ E E E _ _ _ _ _ _ :.:.y._ 1 t.r.X.X.f.X.q.+./ :.2.e.:.:.:.:._ 1 1 E E _ _ _ _ _ _ :.:.:._ 1 1 1 1 E E ",
"E _ :.:.:.:.:.:.:._ _ _ _ _ _ E E 1 1 _ _ _ _ _ 5.r.0.6.X.( ( ( m.s.m.H.p z.c :.:._ _ 1 E _ _ E E 1 1 _ _ _ _ _ E 1 E _ _ _ _ _ ",
"_ E E E _ :.:._ 1 E E E _ _ _ _ _ _ _ E E E E E 1 f.5.Y ( ~.~.~.^.^.^.s.! 0.E _ E E E E _ _ _ _ _ _ _ E E E E E 1 1 1 _ :.:.:._ ",
"_ _ _ _ E E E 1 1 _ _ _ _ _ _ _ _ _ _ N g.v.v.j E o.U H.~. X X X X X X^.I.I E E E g E _ _ _ _ _ _ _ _ _ :.:.:.E E 1 _ :.:.:._ _ ",
"_ _ _ E E 1 E E E _ _ :.:.:.:.:._ _ _ :.g.v.v._ E r.R ~. XQ.).).).).Q. X^.~ ..g g X.E _ :.:.:.:._ _ _ :.:.:.:.:.E E _ :.:.:.:.:.",
":._ _ E 1 E E _ _ :.:.:.:.:._ _ _ _ _ _ :.G._ E E Q I./.Q.^. X X X X/.Q./.I.Y +.X.@.E _ :.:._ _ _ _ _ _ :.:.:.:._ E _ :.:.:.:.:.",
":.:.:._ E _ _ :.:.:.:.:.:._ :.:.:.:.:.:.:.t.6.E #.R U./.E.|..X.X.X.X XE./.U.~ #.X.o.g E _ _ _ :.:.:.:.:.:.:.:.:._ E _ :.:.:.:.:.",
":.:.:._ E _ :.:.:.:.:.:.:.:.:.:.:.:.:._ E E y.q.b.R E.E.~.oX.XOXOX.XOXU.E.U.~ 8.r.y t.E E _ i :.:.:.:.:.:.:._ _ 1 1 1 _ :.:.:.:.",
":.:._ _ E E _ :.:.:.:.:.:.:.:.:.:.:._ E M M ..t.f.R H.^ /.OX`.+X+X`.+XU.^ U.~ d o.V z.o.E z.y c :.:._ E 1 1 1 1 1 1 1 _ _ _ _ :.",
":._ E E 1 E E _ :.:.:.:.:.:.:.:.` E y.@.u l X.r.k R ^ R /..XW..XoXW..XU.~ ^ R w.8 3 r.r r.r.E E _ E E 1 _ _ _ _ _ _ 1 1 1 1 _ _ ",
"E E 1 E E _ _ E E _ :.:.:.:.:._ E t j.#.c.g b.k k R B R ^ W.U.(.`.U.Q.^ ~ >.R 8 3 3 y e.r.l X.E E u _ :._ _ _ _ :.:._ _ _ 1 1 1 ",
"1 1 E _ _ _ _ _ _ E 1 _ :._ E E E y r.u t.f.X.4 f X ,.*.*.A.A.[.[.[.D.M.<.N.+ ..g 2 x u l f.#.o.z.y :.:.:.:.:._ :.:.:.:.:._ 1 1 ",
"E _ _ _ _ _ :.:.:._ 1 1 1 1 1 E ..r 8.r.d f.f 4 3   W o ' =.[ S.A.;.[ N.Z.W   p e.w f.f.3 n c r.r.E :.:.:.:.:.:.:.:.:.:.:._ _ 1 ",
"E _ :.:.:.:.:.:._ 1 1 E E E E m X.f 7.g ..f.e + 3   * P ' XXo 1.Z.o XX{ W %   w.l.l.q g g d r.r.k E _ :.:.:.:.:.:.:.:.:._ _ _ _ ",
"E E _ :.:.:._ 1 1 1 _ _ _ _ E g X.g 3 e 8 2.8 u.8 y O % o A.1.].Z.,.S.[ *.q 4.x.e.8 4...X.k y u @.E E _ :.:.:.:.:.:.:.:.:.:._ _ ",
"_ E E E E E E _ _ _ _ _ _ _ E o.f.3 2.e.e 2.2.l.8 e 3 O   N.].}.{.Z.Z.] x r e.e 8 + e.9 g X.X.g f E U y _ _ :.:._ _ _ :.:.:.:.:.",
"_ E 1 1 1 _ _ _ _ :.:._ :._ y o.g 8 8 l.2.e l.e.2.l.e., > [ Z.{.}.Z.{ , , k.2.+ e e 8 e.j g j X.X.f u c._ _ _ _ :._ :.:.:.:.:.:.",
"E E _ _ _ _ _ :.:.:._ _ :._ r.r.u X.g e l.3.u.2.2.e.,  .} ' - =.=.- < } } , # 8 2.e.e 8 j g x c.m X.r.r._ _ _ :.:.:.:.:.:.:.:.:.",
"E _ _ _ _ _ _ _ _ _ _ _ _ :.i c.r.f.X.8 e.2.e.2.e.J D J > ; > &.%., D > G D J 8 e e.X.g 8 g v r.#.j r.l E 1 _ _ :.:.:.:.:.:._ _ ",
"E _ _ _ _ _ :.:.:.:._ _ :.E N y t.X.X.e 8 e.2.e e X p.J.,._._.L a.F._.1.K.J.X 8 2.e l.e.2.X.o.y y t.l o.E E _ _ _ :.:.:.:._ E 1 ",
"1 1 _ _ _ _ :.:.:.:.n.E E X.g d r.h e.e 2.e 8 3 2.  A K.'.}.}.L.L.[.}.{.L.S   w r.r e k.r.g X.g y 9.j o.X.1 1 E E _ :._ _ E 1 1 ",
"1 E E E E E E _ :.v y !.1 w.g g f.f i.3.3.x.e.3.e r X A ].}.}.K S '.}.}.S X 0 e.l.8 2.e 8 2.8 3 3 n j e.e.y X.E E E E E E E E E ",
"_ _ _ _ _ _ 1 1 E x c.y X.w 6.f.f m y.2.e e.e.l.2.e O a X X ,  . .%.< D X d.2.l.2.8 2.e.e 2.2.8 3 h 8.o.f.f.f.E _ _ _ ` E E E E ",
"_ _ _ _ _ _ _ 1 1 1 y t.x g e X.3 3 4 n 2.e g 2.e.2.2.  Z D D a.a.a.p.A   w e e.e 8 8 e.2.e e.l.8 r r f.f.U E E _ _ _ :.:._ _ E ",
"_ _ _ _ _ _ _ E E E 1 y r.b.j $ 2.e.2.3 v 2.f.h + 2.e.  |  ., H S S S : : w.r 2.e e.8 e e.3 l.2.@ M g X.P E _ :.v._ v.+.:.:._ _ ",
":.:.:._ _ E E _ _ _ E 1 r.f.f.6 6 3 e.e.4.e.8 + g + 2.: B.$.} :   : : ) ) > t 8 2.e.2.+ 3 2.e.+ ..r...g 1 _ _ :.:._ _ :.:.:.:.:.",
":.:.:._ E _ _ :.:.:._ E 1 X.f...g.3 + e.e.e 8 e.+ g O > V.B.$.> . . : B.B.> 9 + + l.e.+ + 2.4 X...y t.f 1 _ :.:.:.:._ _ _ :.:.:.",
":._ _ _ _ _ _ _ _ :.:.E E 1 X.y r.u w + 7.e e.2.e.e 8 . < %.$.F     ) V.C.> w + 3 @ l.e 3 + M h f...r.3 E _ :.:.:.:.:.:.:.:.:._ ",
"_ _ :.:.:.:.:._ _ _ :._ E E 1 c.y f 3 p + 8 l.8 2.e.e O . F J J.    $.V.&.> w 8 3 4 8 e.@ 6 g g.f.X.y 1 1 E E E _ _ :.:.:.:._ _ ",
"_ :.:.:.:.:.:.:.:._ :.:._ E r.r.y X.g + e.8 u.8 8 e.8   L J.J.S   Z L P.o $ 4.4.+ 4 # 2.4 g.f.0.o.n g 1 _ _ _ 1 1 E E _ _ _ _ _ ",
":.:.:.:.:.:.:.:.:.:._ _ :.E r.l X.g g g + e.8 + e 2.e   K.K.S X   A L.T.p.X p e.+ 2 2 3.#.C l c.X.g 1 E _ _ _ _ _ 1 E E _ _ _ E ",
":.:.:.:.:.:.:.:._ _ _ :.:.1 r.X.r.w.y j.3 e e 2.e.8 e.  * X X     A Y.R.T.J.  o 2.m 0.X.k C 5 r.2.P _ _ _ _ _ :.:._ 1 1 E E E E ",
":.:.:.:.:.:.:.:.:.:.:._ _ 1 1 w.1 1 j r.0.g 2.l.+ 2.              X * = * *   3 2 y j.#.z.f f.4 e.2._ _ _ _ :.:.:._ 1 1 1 1 E E ",
"E _ :.:.:.:.:.:.:._ _ _ E E y e E 1 X.r 0.4 r.e + e.h.0           7 0 - V - M 6 X.y r.y r.f.f f O.e.E _ _ _ _ _ E 1 E _ _ _ _ _ ",
"_ E E E _ :.:._ 1 E E E E _ ` _ E E 1 y 0.M 3 + e l.e.+ o 3.0 w - O...m X.+.e.e.u y 8.r.o.f f.f...e.b E E E E E 1 1 1 _ :.:.:._ ",
"_ _ _ _ E E E 1 1 _ _ _ _ _ _ _ _ E E 1 t n f 8 e.e.+ 3 8 l.e e n y g g f.e.+.m g X.8.y g 1 1 1 E u z E :.:.:.E E 1 _ :.:.:._ _ ",
"_ _ _ E E 1 E E E _ _ :.:.:.:.:._ _ E 1 O.#.@.; 2.+ 3 + 2.e.3 8 n 9.t.l e e b.g.X.X.1 1 1 ` :.:._ E E :.:.:.:.:.E E _ :.:.:.:.:.",
":._ _ E 1 E E _ _ :.:.:.:.:._ _ y r.t.E X.t.t.@.3.3 X.o e.+ & 4 X.u c.t.X.2 2 1 1 1 1 _ _ :._ _ _ _ _ _ :.:.:.:._ E _ :.:.:.:.:.",
":.:.:._ E _ _ :.:.:.:.:.:._ :.:.:.y c.E t.c.y M f g g 2.; 3 M = X.f.y r.X.g 1 E E _ _ :.:._ :.:.:.:.:.:.:.:.:.:._ E _ :.:.:.:.:.",
":.:.:._ E _ :.:.:.:.:.:.:.:.:.:.:.:.i r.r.y ..X.b.f.g g r.o.u t g ..y r.l g E _ _ :.:.:.:.:.:.:.:.:.:.:.:.:._ _ E 1 E _ :.:.:.:.",
":.:._ _ E E _ :.:.:.:.:.:.:.:.:.:.:._ y y 1 1 1 f.g f.u j.g z.g g g N y u m E _ :.:.:.:.:.:.:.:.:.:._ E 1 1 1 1 1 1 1 _ _ _ _ :.",
":._ E E 1 E E _ :.:.:.:.:.:.:.:._ E E 1 _ _ _ _ 1 1 ..l r.y 9.X.g X.g 1 1 -.E E :.:.:.:.:.:.:.:._ E E 1 _ _ _ _ _ _ 1 1 1 1 _ _ ",
"E E 1 E E _ _ E E _ :.:.:.:.:._ _ E _ :._ _ _ _ _ _ 1 y 8.r.u ..1 1 1 E E _ E E E _ :.:.:.:.:._ _ E _ :._ _ _ _ :.:._ _ _ 1 1 1 ",
"1 1 E _ _ _ _ _ _ E 1 _ :._ E E E _ :.:.:.:.:._ :.:.:.:.9.i 1 1 E E E _ _ _ _ _ _ E 1 _ :._ E E E _ :.:.:.:.:._ :.:.:.:.:._ 1 1 ",
"E _ _ _ _ _ :.:.:._ 1 1 1 1 1 1 1 E :.:.:.:.:.:.:.:.:.:.:._ ` 1 E _ _ _ _ _ :.:.:._ 1 1 1 1 1 1 1 E :.:.:.:.:.:.:.:.:.:.:._ _ 1 ",
"E _ :.:.:.:.:.:._ 1 1 E E E E 1 1 1 _ :.:.:.:.:.:.:.:.:._ _ _ _ E _ :.:.:.:.:.:._ 1 1 E E E E 1 1 1 _ :.:.:.:.:.:.:.:.:._ _ _ _ ",
"E E _ :.:.:._ 1 1 1 _ _ _ _ _ E E E E _ :.:.:.:.:.:.:.:.:.:._ _ E E _ :.:.:._ 1 1 1 _ _ _ _ _ E E E E _ :.:.:.:.:.:.:.:.:.:._ _ ",
"_ E E E E E E _ _ _ _ _ _ _ :._ _ _ 1 1 _ _ :.:._ _ _ :.:.:.:.:._ E E E E E E _ _ _ _ _ _ _ :._ _ _ 1 1 _ _ :.:._ _ _ :.:.:.:.:.",
"_ E 1 1 1 _ _ _ _ :.:._ :.:.:.:._ _ _ _ 1 _ _ _ :._ :.:.:.:.:.:._ E 1 1 1 _ _ _ _ :.:._ :.:.:.:._ _ _ _ 1 _ _ _ :._ :.:.:.:.:.:.",
"E E _ _ _ _ _ :.:.:._ _ :.:.:.:.:.:.:._ E E _ :.:.:.:.:.:.:.:.:.E E _ _ _ _ _ :.:.:._ _ :.:.:.:.:.:.:._ E E _ :.:.:.:.:.:.:.:.:.",
"E _ _ _ _ _ _ _ _ _ _ _ _ :.:.:.:.:.:.:.E 1 E _ :.:.:.:.:.:._ _ E _ _ _ _ _ _ _ _ _ _ _ _ :.:.:.:.:.:.:.E 1 E _ :.:.:.:.:.:._ _ ",
"E _ _ _ _ _ :.:.:.:._ _ :.:.:.:.:.:.:.:._ E 1 E _ :.:.:.:._ E 1 E _ _ _ _ _ :.:.:.:._ _ :.:.:.:.:.:.:.:._ E 1 E _ :.:.:.:._ E 1 ",
"1 1 _ _ _ _ :.:.:.:.:.:.:.:.:.:.:.:.:._ E 1 1 E E _ :._ _ E 1 1 1 1 _ _ _ _ :.:.:.:.:.:.:.:.:.:.:.:.:._ E 1 1 E E _ :._ _ E 1 1 "
};
