/* XPM */
static char *result[] = {
/* columns rows colors chars-per-pixel */
"64 64 191 2 ",
"   c #131313",
".  c #1C1514",
"X  c #181917",
"o  c #12181A",
"O  c #241A16",
"+  c #2A1916",
"@  c #26360C",
"#  c #27380C",
"$  c #2B3E0B",
"%  c #252314",
"&  c #282516",
"*  c #2C241D",
"=  c #31291B",
"-  c #393015",
";  c #1D1D20",
":  c #211827",
">  c #262325",
",  c #383424",
"<  c #682616",
"1  c #792B18",
"2  c #7C311C",
"3  c #453A20",
"4  c #4C352D",
"5  c #50372B",
"6  c #473131",
"7  c #4A3331",
"8  c #4F3830",
"9  c #543F36",
"0  c #6E3623",
"q  c #2D430A",
"w  c #3A4D0A",
"e  c #255704",
"r  c #2B6405",
"t  c #276800",
"y  c #2C6903",
"u  c #336C00",
"i  c #376804",
"p  c #3B6B02",
"a  c #397204",
"s  c #3C572A",
"d  c #52580E",
"f  c #664C1B",
"g  c #684C1B",
"h  c #65521B",
"j  c #6D501C",
"k  c #486706",
"l  c #446B03",
"z  c #57680E",
"x  c #48750A",
"c  c #537A0C",
"v  c #4D7215",
"b  c #62780E",
"n  c #5D4924",
"m  c #5A4033",
"M  c #664C22",
"N  c #6C5223",
"B  c #685226",
"V  c #795B2A",
"C  c #734530",
"Z  c #736128",
"A  c #796039",
"S  c #193E4D",
"D  c #243F4B",
"F  c #19404F",
"G  c #1B4556",
"H  c #1F4856",
"J  c #1D4D5B",
"K  c #1D515E",
"L  c #29464F",
"P  c #264854",
"I  c #2A4A52",
"U  c #344651",
"Y  c #25525D",
"T  c #265969",
"R  c #4D5A4C",
"E  c #52534B",
"W  c #565559",
"Q  c #6A5C51",
"!  c #51644A",
"~  c #585B66",
"^  c #4F706F",
"/  c #7B7764",
"(  c #757D7B",
")  c #802916",
"_  c #835B1F",
"`  c #815F28",
"'  c #894F35",
"]  c #8A5236",
"[  c #93583B",
"{  c #BA4027",
"}  c #BC4128",
"|  c #B24934",
" . c #B14B36",
".. c #85642B",
"X. c #8A662C",
"o. c #896A2C",
"O. c #8B7928",
"+. c #917E29",
"@. c #896730",
"#. c #8A6A37",
"$. c #C6472C",
"%. c #CC5435",
"&. c #D05432",
"*. c #955E41",
"=. c #826B44",
"-. c #917E4F",
";. c #AF7652",
":. c #368502",
">. c #378306",
",. c #3A8406",
"<. c #428A0A",
"1. c #42880D",
"2. c #499703",
"3. c #4C9D05",
"4. c #559B0B",
"5. c #5B9D0A",
"6. c #4DA605",
"7. c #4CAB03",
"8. c #54A505",
"9. c #57A50A",
"0. c #56A412",
"q. c #71AD12",
"w. c #659023",
"e. c #37817A",
"r. c #70876F",
"t. c #779172",
"y. c #8B8225",
"u. c #95842A",
"i. c #958535",
"p. c #96AD28",
"a. c #A6B634",
"s. c #B3CC2E",
"d. c #B7D32E",
"f. c #AEC839",
"g. c #B3CD32",
"h. c #B1CD38",
"j. c #98805F",
"k. c #B9A64A",
"l. c #BDAC4C",
"z. c #898A72",
"x. c #B88263",
"c. c #BEA27A",
"v. c #D1894C",
"b. c #CE865E",
"n. c #EB944C",
"m. c #F0994F",
"M. c #ED9C56",
"N. c #D28A61",
"B. c #CA926E",
"V. c #D59167",
"C. c #D7956D",
"Z. c #AFC642",
"A. c #766C82",
"S. c #338A85",
"D. c #35918A",
"F. c #3C9793",
"G. c #3E9A95",
"H. c #488C81",
"J. c #429C96",
"K. c #788385",
"L. c #7C8989",
"P. c #6BBECB",
"I. c #78BAC4",
"U. c #6DC7D5",
"Y. c #73C8D4",
"T. c #76D4E4",
"R. c #828E8D",
"E. c #8A9693",
"W. c #929D99",
"Q. c #A69684",
"!. c #9EABA1",
"~. c #A2AFA4",
"^. c #A6B3A7",
"/. c #B0BBAE",
"(. c #B3BEB0",
"). c #DBBB8B",
"_. c #D2BD90",
"`. c #B6C0B2",
"'. c #DDC194",
"]. c #E6C08D",
"[. c #E7C897",
"{. c #F5CB95",
"}. c #F7D098",
"|. c #F8D199",
" X c #CACDBF",
".X c #85CCD1",
"XX c #D2D4C4",
"oX c #DEDDCD",
"OX c #E2D7C7",
"+X c #EBE6D6",
"@X c #F4EDDE",
/* pixels */
"3 Q Q Q Q Q Q -.-.-.-.-.-.-.-.-._ _ _ Q Q Q Q Q Q Q Q Q Q Q W R 3 Q Q Q Q Q Q -.-.-.-.-.-.-.-.-._ _ _ Q Q Q Q Q Q Q Q Q Q Q 3 3 ",
"_ _ _ _ _ _ 3 3 -.Q _ _ _ _ _ _ _ Q Q 3 Q Q _ _ _ _ _ _ Q Q Q Q Q Q _ _ _ _ 3 3 Q Q _ _ _ _ _ _ _ Q Q 3 Q Q _ _ _ _ _ _ Q Q Q Q ",
"_ _ _ _ _ _ _ 3 3 3 3 Q Q Q Q 3 3 3 3 Q _ _ _ _ _ _ _ -.-._ _ Q ` _ -._ _ _ _ 3 3 3 3 Q Q Q Q 3 3 3 3 Q _ _ _ _ _ _ _ -.-._ _ Q ",
"_ _ _ _ _ _ _ Q Q Q Q 3 _ _ _ Q 3 3 Q _ _ -.-.-.-._ -.-.-.-._ _ _ -.-.-._ _ _ Q Q Q Q 3 _ _ _ Q 3 3 Q _ _ -.-.-.-._ -.-.-.-._ _ ",
"-.-.-._ _ Q Q _ _ _ _ Q _ _ _ _ _ Q Q _ -.-.-.-.-._ _ -.-.-.-.-._ -.-.-._ Q Q _ _ _ _ Q _ _ _ _ _ Q Q _ -.-.-.-.-._ _ -.-.-.-.-.",
"-.-.-._ Q _ _ -.-.-.-._ Q _ _ _ _ _ Q _ _ -.-.-.-.-._ _ _ -.-.-._ -._ _ Q _ _ -.-.-.-._ Q _ _ _ _ _ Q _ _ -.-.-.-.-._ _ _ -.-.-.",
"-._ _ _ _ _ _ _ _ -.-.-._ Q Q _ _ 3 3 Q Q _ -.-.-.-.-.-.-.-.-._ Q _ _ Q _ _ _ _ -.-.-.-._ Q Q _ _ 3 3 Q Q _ -.-.-.-.-.-.-.-.-._ ",
"_ _ -.-.-.-.-._ _ _ -.-.-.3 Q Q Q 3 _ _ _ Q Q Q _ _ -.-.-.-._ _ Q _ Q _ -.-.-._ _ _ -.-.-.3 Q Q Q 3 _ _ _ Q Q Q _ _ -.-.-.-._ _ ",
"_ -.-.-.-.-.-.-.-._ -.-.-._ 3 Q Q Q _ _ _ _ _ 3 3 Q Q _ ` 1.V Q Q Q x j.-.-.-.-.-._ -.-.-._ 3 Q Q Q _ _ _ _ _ 3 3 Q Q _ _ _ _ _ ",
"-.-.-.-.-.-.-.-.-.-._ _ -._ 3 3 _ _ _ _ _ _ _ 1._ 3 Q Q -.h.1./ u.p 3.j.-.-.-.-.-.-._ _ -._ 3 3 _ _ _ _ _ _ _ _ _ 3 Q Q _ _ _ Q ",
"-.-.-.-.-.-.-.-._ _ _ -.-._ Q 3 _ _ _ _ _ _ _ p h._ 3 s 9.9.<.-.+.5.8.-.-.-.-.-._ _ _ -.-._ Q 3 _ _ _ _ _ _ _ -.-._ 3 3 Q Q Q Q ",
"-.-.-.-.-.-.-.-.-.-.-._ _ Q Q Q _ _ _ _ _ _ -.-.0._ 3 4.9.X.X.u.X.2.O.( -.:.7.-.-.-.-._ 3 3 Q Q _ _ _ _ _ _ -.-.-._ 3 3 3 3 Q Q ",
"Q _ -.-.-.-.-.-.-._ _ _ _ _ _ Q Q 3 3 _ _ _ _ _ <.8.5.1.X.3 3 3 X.5...A.a f.c -.-._ _ 3 Q _ _ Q Q 3 3 _ _ _ _ _ Q 3 Q _ _ _ _ _ ",
"_ Q Q Q _ -.-._ 3 Q Q Q _ _ _ _ _ _ _ Q Q Q Q Q 3 u.1.3 Q _ ( ( z.( z.r.Z.8.Q ` Q Q Q Q _ _ _ _ _ _ _ Q Q Q Q Q 3 3 3 _ -.-.-._ ",
"_ _ _ _ Q Q Q 3 3 _ _ _ _ _ _ _ _ _ _ _ -.-.-._ Q X.g Q R r.!. X X X X~.t.R Q Q Q g Q _ _ _ _ _ _ _ _ _ -.-.-.Q Q 3 _ -.-.-._ _ ",
"_ _ _ Q Q 3 Q Q Q _ _ -.-.-.-.-._ _ _ -.-.-.-.` Q 8.X.W ( !.XX(./.(.(.XX~.K.W f g X.Q _ -.-.-.-._ _ _ -.-.-.-.-.Q Q _ -.-.-.-.-.",
"-._ _ Q 3 Q Q _ _ -.-.-.-.-._ _ _ _ _ _ -.Z...Q Q 8.8.~ !.XX(.XXXXXXXX`.XX~.~ y.X.X.Q _ i.j._ j _ _ _ _ -.-.-.-._ Q _ -.-.-.-.-.",
"-.-.-._ Q _ _ -.-.-.-.-.-._ -.-.-.-.-.-.-.8.<.Q =.u ! ( ~.W.XXoXoXoXoXXXW.^.K.W ..o.f Q _ _ _ j.-.-.-.-.-.-.-.-._ Q _ -.-.-.-.-.",
"-.-.-._ Q _ -.-.-.-.-.-.-.-.-.-.-.-.-._ Q Q 0.1.l.k.W K.R.~.@XoX@X@XoX@XR.E.L.~ 6.u 8.Q Q _ p j.-.-.-.-.-.-._ _ 3 3 3 _ -.-.-.-.",
"-.-._ _ Q Q _ -.-.-.-.-.-.-.-.-.-.-._ Q N V X.5.u.& ( L.~ ^.@X(.@X@X`.@XE.~ L.A.* Z s.o.Q f.u c -.-._ Q 3 3 3 3 3 3 3 _ _ _ _ -.",
"-._ Q Q 3 Q Q _ -.-.-.-.-.-.-.-.` Q 4.@.p l X.8.l   K.~ > ~.oXE.oXoXE.oXR.> ~ L.X 6 8.y 8.8.Q Q _ Q Q 3 _ _ _ _ _ _ 3 3 3 3 _ _ ",
"Q Q 3 Q Q _ _ Q Q _ -.-.-.-.-._ Q i a.#.h.g l.k k   W ~   ~ W.L./.`.L.W.~   W ~   6 u 8.8.l X.Q Q p _ -._ _ _ _ -.-._ _ _ 3 3 3 ",
"3 3 Q _ _ _ _ _ _ Q 3 _ -._ Q Q Q u 8.p 8.u.X.6 f   ; ; C x.[.'.[.[.'.B.x.C > ;   5 x a l u.#.o.h.u -.-.-.-.-._ -.-.-.-.-._ 3 3 ",
"Q _ _ _ _ _ -.-.-._ 3 3 3 3 3 Q ..y 3.8.d u.g 6 6 @ p.;.] b.V.|.|.|.C.N.b.' ;.a ,.e u.u.7 n c 8.8.Q -.-.-.-.-.-.-.-.-.-.-._ _ 3 ",
"Q _ -.-.-.-.-.-._ 3 3 Q Q Q Q M X.f 3.f o.u.t % 6 q t [ ' b.[ *.C.C.[ [ b.] [ 8.d.d.k g g d 8.8.l Q _ -.-.-.-.-.-.-.-.-._ _ _ _ ",
"Q Q _ -.-.-._ 3 3 3 _ _ _ _ Q g X.g 6 t q :.q q.q :.q ] ' [ OX+ ].V.% OX[ ] ] s.7.q :.V X.k u p #.Q Q _ -.-.-.-.-.-.-.-.-.-._ _ ",
"_ Q Q Q Q Q Q _ _ _ _ _ _ _ Q X.u.6 :.7.t :.:.d.q t 6 w ' O +XX [.{.. +X* ' 5.t q & 7.q g X.X.g f Q E i _ _ -.-._ _ _ -.-.-.-.-.",
"_ Q 3 3 3 _ _ _ _ -.-._ -._ u o.g q q d.:.t d.7.:.d.7.< <   C.).}.}.x.V.X X a % t t q 7.g g N X...f p h._ _ _ _ -._ -.-.-.-.-.-.",
"Q Q _ _ _ _ _ -.-.-._ _ j.V 8.8.p X.g t d.:.q.:.:.I H.1 { 2 * [ V.V.[ * 2 2   q >.7.t q j g x h.g X.8.8._ _ _ -.-.-.-.-.-.-.-.-.",
"Q _ _ _ _ _ _ _ _ _ _ _ _ i.a g.8.u.X.q 7.:.7.:.L U.U.P 1 { 1 O ] [ % 2 } } < L y 7.@.f q g v 8.#.j 8.l Q 3 _ _ -.-.-.-.-.-._ _ ",
"Q _ _ _ _ _ -.-.-.-._ ..-.Q V y 9.X.X.t q 7.:.t P T.G.S.P 1 { n.M.M.M.$.$.1 I.S.I y d.7.:.X.o.u u 8.l o.Q Q _ _ _ -.-.-.-._ Q 3 ",
"3 3 _ _ _ _ -.-.-.-.j.Q Q X.g d 8.g 7.t :.t q 6 H F._.'.H . 1 n.m.m.&.1 1 ^ G.Y.U.I r s.8.g X.f u 4.j o.X.3 3 Q Q _ -._ _ Q 3 3 ",
"3 Q Q Q Q Q Q _ -.v u Q.3 6.f g u.M w.,.,.g.7.,.o J [.[.P   D H..X.XH.P O o J F.T.J a t q >.q 6 6 n j 7.7.u X.Q Q Q Q Q Q Q Q Q ",
"_ _ _ _ _ _ 3 3 Q x h.u X.t 1.u.f B 6.:.t 7.7.d.y o   o o v.v.Y J.J.D.Y <   c.'.G.J >.7.t :.:.q 6 B 6.o.u.u.u.Q _ _ _ _ Q Q Q Q ",
"_ _ _ _ _ _ _ 3 3 3 u 8.x g t X.6 6 7 n :.t h :.7.y ^ P.P.%.&.v.0  . .< .   ].}.Y ; q 7.:.t 7.d.q t t u.+.E Q Q _ _ _ -.-._ _ Q ",
"_ _ _ _ _ _ _ Q Q Q 3 u 9.l.g - >.7.:.6 v :.u.h &   Y T J.Y.2 %.$.U U e.e.X   > X >.q t 7.6 d.:.& N g X.E Q _ -.-._ -.-.-.-._ _ ",
"-.-.-._ _ Q Q _ _ _ Q 3 8.u.u.n 9 6 7.7.:.7.q % h   G G K F.P.) $.e.S.J J S   @ a 7.>.% 6 :.7.& ..8...g 3 _ _ -.-._ _ -.-.-.-.-.",
"-.-.-._ Q _ _ -.-.-._ Q 3 X.u...i.6 % 7.7.t q 7.%   G G G K G.< + G J | | |   % % d.7.% % :.7 X.X.u 8.f 3 _ -.-.-.-._ _ _ -.-.-.",
"-._ _ _ _ _ _ _ _ -.-.Q Q 3 X.u 8.p r % 2.t 7.:.7.e o F G G D.<   o < $.$.$.. % 6 % d.t 6 % N g u...8.6 Q _ -.-.-.-.-.-.-.-.-._ ",
"_ _ -.-.-.-.-._ _ _ -._ Q Q 3 g.u h 6 a % q g.q :.7.e o G G Y .   S . $.$.1   $ 6 8 q 7.% 9 g i.u.X.u 3 3 Q Q Q _ _ -.-.-.-._ _ ",
"_ -.-.-.-.-.-.-.-._ -.-._ Q 8.8.u X.g % 7.q q.q q 7.q # o o o r   G S O + . e :.& 7 = :.4 i.u.5.X.M j 3 _ _ _ 3 3 Q Q _ _ _ _ _ ",
"-.-.-.-.-.-.-.-.-.-._ _ -.Q 8.k X.g g g % 7.q % t :.t :.e y ,.q   F G   r @ :.7.% 7 7 :.#.A l h.X.g 3 Q _ _ _ _ _ 3 Q Q _ _ _ Q ",
"-.-.-.-.-.-.-.-._ _ _ -.-.3 8.X.8.6.u a.6 t t :.7.q 7.t :.t t t # o o r q :.6 % :.M 9.X.k A 8 7.:.E _ _ _ _ _ -.-._ 3 3 Q Q Q Q ",
"-.-.-.-.-.-.-.-.-.-.-._ _ 3 3 6.3 3 j 8.5.g :.d.% :.7.:.q t :.t t # r 6 O.6 8 6 5 u a.#.f.M u.6 7.:._ _ _ _ -.-.-._ 3 3 3 3 Q Q ",
"Q _ -.-.-.-.-.-.-._ _ _ Q Q u t Q 3 ..u 5.7 8.t % 7.d.t % % :.7.6 t t 6 u.7 ..m X.u 8.u 8.u.g g O.7.Q _ _ _ _ _ Q 3 Q _ _ _ _ _ ",
"_ Q Q Q _ -.-._ 3 Q Q Q Q _ ` _ Q Q 3 u 5.N 6 % t d.7.% % 7.t :.6 +...M ..+.7.7.u p 3.8.X.g u.u.` 7.b Q Q Q Q Q 3 3 3 _ -.-.-._ ",
"_ _ _ _ Q Q Q 3 3 _ _ _ _ _ _ _ ` Q Q 3 i n f q 7.7.% 6 q d.r t n i g g u.8.+.M g X.3.u g 3 3 3 Q i z Q -.-.-.Q Q 3 _ -.-.-._ _ ",
"_ _ _ Q Q 3 Q Q Q _ _ -.-.-.-.-._ _ Q 3 y.#.#.= :.% 6 % :.7.7 $ n 8.8.l t t l.i.X.X.3 3 3 ` -.-._ Q Q -.-.-.-.-.Q Q _ -.-.-.-.-.",
"-._ _ Q 3 Q Q _ _ -.-.-.-.-._ _ y 8.9.Q o.8.8...,.6 X.% 7.% : 6 X.p h.9.X.7 5 3 3 3 3 _ _ -._ _ _ _ _ _ -.-.-.-._ Q _ -.-.-.-.-.",
"-.-.-._ Q _ _ -.-.-.-.-.-._ -.-.-.t h.Q 9.h.u B g g g :., 6 N > X.+.u 8.X.g 3 Q Q _ _ -.-._ -.-.-.-.-.-.-.-.-.-._ Q _ -.-.-.-.-.",
"-.-.-._ Q _ -.-.-.-.-.-.-.-.-.-.i.-.l 8.8.i ..X.l.u.g f 8.@.p i g ..u 8.p g Q _ _ -.-.-.-.-.-.-.-.-.-.-.-.-._ _ Q 3 Q _ -.-.-.-.",
"-.-._ _ Q Q _ -.-.-.-.-.-.-.-.-.j.j._ u u 3 3 3 u.g u.i a.f f.f g g ` u i N Q _ -.-.-.-.-.-.-.-.-.-._ Q 3 3 3 3 3 3 3 _ _ _ _ -.",
"-._ Q Q 3 Q Q _ -.-.-.-.-.-.-.-._ Q Q 3 _ _ _ _ 3 3 X.p 8.u 8.X.g X.g 3 3 =.Q Q -.-.-.-.-.-.-.-._ Q Q 3 _ _ _ _ _ _ 3 3 3 3 _ _ ",
"Q Q 3 Q Q _ _ Q Q _ -.-.-.-.-._ _ Q _ -._ _ _ _ _ _ 3 i 3.8.p X.3 3 3 Q Q _ Q Q Q _ -.-.-.-.-._ _ Q _ -._ _ _ _ -.-._ _ _ 3 3 3 ",
"3 3 Q _ _ _ _ _ _ Q 3 _ -._ Q Q Q _ -.-.-.-.-._ -.-.-.-.4.a 3 3 Q Q Q _ _ _ _ _ _ Q 3 _ -._ Q Q Q _ -.-.-.-.-._ -.-.-.-.-._ 3 3 ",
"Q _ _ _ _ _ -.-.-._ 3 3 3 3 3 3 3 Q -.-.-.-.-.-.-.-.-.-.-._ _ 3 Q _ _ _ _ _ -.-.-._ 3 3 3 3 3 3 3 Q -.-.-.-.-.-.-.-.-.-.-._ _ 3 ",
"Q _ -.-.-.-.-.-._ 3 3 Q Q Q Q 3 3 3 _ -.-.-.-.-.-.-.-.-._ _ _ _ Q _ -.-.-.-.-.-._ 3 3 Q Q Q Q 3 3 3 _ -.-.-.-.-.-.-.-.-._ _ _ _ ",
"Q Q _ -.-.-._ 3 3 3 _ _ _ _ _ Q Q Q Q _ -.-.-.-.-.-.-.-.-.-._ _ Q Q _ -.-.-._ 3 3 3 _ _ _ _ _ Q Q Q Q _ -.-.-.-.-.-.-.-.-.-._ _ ",
"_ Q Q Q Q Q Q _ _ _ _ _ _ _ -._ _ _ 3 3 _ _ -.-._ _ _ -.-.-.-.-._ Q Q Q Q Q Q _ _ _ _ _ _ _ -._ _ _ 3 3 _ _ -.-._ _ _ -.-.-.-.-.",
"_ Q 3 3 3 _ _ _ _ -.-._ -.-.-.-._ _ _ _ 3 _ _ _ -._ -.-.-.-.-.-._ Q 3 3 3 _ _ _ _ -.-._ -.-.-.-._ _ _ _ 3 _ _ _ -._ -.-.-.-.-.-.",
"Q Q _ _ _ _ _ -.-.-._ _ -.-.-.-.-.-.-._ Q Q _ -.-.-.-.-.-.-.-.-.Q Q _ _ _ _ _ -.-.-._ _ -.-.-.-.-.-.-._ Q Q _ -.-.-.-.-.-.-.-.-.",
"Q _ _ _ _ _ _ _ _ _ _ _ _ -.-.-.-.-.-.-.Q 3 Q _ -.-.-.-.-.-._ _ Q _ _ _ _ _ _ _ _ _ _ _ _ -.-.-.-.-.-.-.Q 3 Q _ -.-.-.-.-.-._ _ ",
"Q _ _ _ _ _ -.-.-.-._ _ -.-.-.-.-.-.-.-._ Q 3 Q _ -.-.-.-._ Q 3 Q _ _ _ _ _ -.-.-.-._ _ -.-.-.-.-.-.-.-._ Q 3 Q _ -.-.-.-._ Q 3 ",
"3 3 _ _ _ _ -.-.-.-.-.-.-.-.-.-.-.-.-._ Q 3 3 Q Q _ -._ _ Q 3 3 3 3 _ _ _ _ -.-.-.-.-.-.-.-.-.-.-.-.-._ Q 3 3 Q Q _ -._ _ Q 3 3 "
};
