/* XPM */
static char *result[] = {
/* columns rows colors chars-per-pixel */
"64 64 185 2 ",
"   c #121211",
".  c #1D1412",
"X  c #191A14",
"o  c #12181A",
"O  c #261915",
"+  c #221D15",
"@  c #291814",
"#  c #252314",
"$  c #282616",
"%  c #312A19",
"&  c #333116",
"*  c #1E1D20",
"=  c #211827",
"-  c #162221",
";  c #222124",
":  c #2D2725",
">  c #392A27",
",  c #383424",
"<  c #632112",
"1  c #6A2212",
"2  c #6E2815",
"3  c #752816",
"4  c #453A20",
"5  c #4B352B",
"6  c #50372B",
"7  c #473131",
"8  c #4A3331",
"9  c #4F3830",
"0  c #523B34",
"q  c #204D05",
"w  c #2D430A",
"e  c #394C0B",
"r  c #225504",
"t  c #2B6303",
"y  c #276800",
"u  c #2C6A03",
"i  c #376603",
"p  c #336C00",
"a  c #3B6B02",
"s  c #3A7404",
"d  c #3C572A",
"f  c #525112",
"g  c #664C1B",
"h  c #684C1B",
"j  c #65521B",
"k  c #6D501C",
"l  c #73581F",
"z  c #486706",
"x  c #446B03",
"c  c #57680E",
"v  c #457805",
"b  c #4A740D",
"n  c #537A0C",
"m  c #4D7215",
"M  c #62780E",
"N  c #5D4924",
"B  c #664C23",
"V  c #76492E",
"C  c #6C5123",
"Z  c #685226",
"A  c #785928",
"S  c #7F4C34",
"D  c #786330",
"F  c #193E4C",
"G  c #243F4B",
"H  c #1A4555",
"J  c #1C4C5A",
"K  c #1F535F",
"L  c #4C514C",
"P  c #53524C",
"I  c #504D59",
"U  c #4D5154",
"Y  c #525358",
"T  c #6A5C51",
"R  c #50654C",
"E  c #585A65",
"W  c #5A5C66",
"Q  c #63656D",
"!  c #7B7764",
"~  c #6E7C71",
"^  c #717B7C",
"/  c #802916",
"(  c #835B1F",
")  c #815F28",
"_  c #864D36",
"`  c #865138",
"'  c #94573C",
"]  c #B94027",
"[  c #BC422A",
"{  c #836E26",
"}  c #85642B",
"|  c #8A662C",
" . c #8B692D",
".. c #8D792A",
"X. c #907D29",
"o. c #896730",
"O. c #8A6A37",
"+. c #9B7F38",
"@. c #C5442B",
"#. c #C9462C",
"$. c #965F41",
"%. c #826B44",
"&. c #946343",
"*. c #917E4F",
"=. c #AF7C5D",
"-. c #368402",
";. c #3A8405",
":. c #3C8804",
">. c #458A0A",
",. c #42880D",
"<. c #499703",
"1. c #4C9D05",
"2. c #549C0B",
"3. c #5B9D0A",
"4. c #4CA405",
"5. c #4CAB03",
"6. c #54A505",
"7. c #57A509",
"8. c #56A412",
"9. c #71AD12",
"0. c #659023",
"q. c #30807A",
"w. c #3C8279",
"e. c #46857C",
"r. c #708A6F",
"t. c #798873",
"y. c #8B8225",
"u. c #95842A",
"i. c #958535",
"p. c #94AA28",
"a. c #A6B634",
"s. c #AEC52D",
"d. c #B7D32E",
"f. c #AEC83A",
"g. c #B1CD38",
"h. c #98805F",
"j. c #A39140",
"k. c #BCAB4C",
"l. c #989168",
"z. c #BB8163",
"x. c #C8835C",
"c. c #D18A61",
"v. c #CF9163",
"b. c #D4936A",
"n. c #C1A479",
"m. c #B2C843",
"M. c #766C82",
"N. c #318682",
"B. c #348E87",
"V. c #3D9994",
"C. c #45958F",
"Z. c #7A8586",
"A. c #6CB9C6",
"S. c #75C0CB",
"D. c #838F8E",
"F. c #869391",
"G. c #8C9794",
"H. c #8F9996",
"J. c #909A97",
"K. c #919C98",
"L. c #A69684",
"P. c #96A29A",
"I. c #9DAAA1",
"U. c #A1AEA4",
"Y. c #A8B6A9",
"T. c #B1BCAF",
"R. c #B4BEB1",
"E. c #D5B58B",
"W. c #E9C28D",
"Q. c #EECA93",
"!. c #F2C590",
"~. c #F4CB94",
"^. c #F8D199",
"/. c #C5C7BB",
"(. c #CACDBF",
"). c #86C0C9",
"_. c #CED1C2",
"`. c #D2D5C5",
"'. c #D9D6CB",
"]. c #DDDDCC",
"[. c #E2D9C9",
"{. c #E0DCD0",
"}. c #E4E1D2",
"|. c #F3EDDD",
" X c #F8F0E1",
/* pixels */
"4 T T T T T T *.*.*.*.*.*.*.*.*.( ( ( T T T T T T T T T T T Y Y 4 T T T T T T j.*.*.*.*.*.*.*.*.( ( ( T T T T T T T T T T T 4 4 ",
"( ( ( ( ( ( 4 4 *.T ( ( ( ( ( ( ( T T 4 T T ( ( ( ( ( ( T T T T T T ( ( ( ( 4 , T T ( ( ( ( ( ( ( T T 4 T T ( ( ( ( ( ( T T T T ",
"( ( ( ( ( ( ( 4 4 4 4 T T T T 4 4 4 4 T ( ( ( ( ( ( ( *.*.( ( T ( ( j.l ( ( ( 4 4 4 4 T T T T 4 4 4 4 T ( ( ( ( ( ( ( *.*.( ( T ",
"( ( ( ( ( ( ( T T T T 4 ( ( ( T 4 4 T ( ( *.*.*.*.( *.*.*.*.( ( ( h.%.h.( ( ( T T T T 4 ( ( ( T 4 4 T ( ( *.*.*.*.( *.*.*.*.( ( ",
"*.*.*.( ( T T ( ( ( ( T ( ( ( ( ( T T ( *.*.*.*.*.( ( *.*.*.*.*.( *.*.*.( T T ( ( ( ( T ( ( ( ( ( T T ( *.*.*.*.*.( ( *.*.*.*.*.",
"*.*.*.( T ( ( *.*.*.*.( T ( ( ( ( ( T ( ( *.*.*.*.*.( ( ( *.*.*.( *.( ( T ( ( *.*.*.*.( T ( ( ( ( ( T ( ( *.*.*.*.*.( ( ( *.*.*.",
"*.( ( ( ( ( ( ( ( *.*.*.( T T ( ( 4 4 T T ( *.*.*.*.*.*.*.*.*.( T ( ( T ( ( ( ( *.*.*.*.( T T ( ( 4 4 T T ( *.*.*.*.*.*.*.*.*.( ",
"( ( *.*.*.*.*.( ( ( *.*.*.4 T T T 4 ( ( ( T T T ( ( *.*.*.*.( ( T ( T ( *.*.*.( ( ( *.*.*.4 T T T 4 ( ( ( T T T ( ( *.*.*.*.( ( ",
"( *.*.*.*.*.*.*.*.( *.*.*.( 4 T T T ( ( ( ( ( 4 4 T T ( ( ,.( T T T v *.*.*.*.*.*.( *.*.*.( 4 T T T ( ( ( ( ( 4 4 T T ( ( ( ( ( ",
"*.*.*.*.*.*.*.*.*.*.( ( *.( 4 4 ( ( ( ( ( ( ) ,.( 4 T T =.g.,.! u.p 8.*.*.*.*.*.*.*.( ( *.( 4 4 ( ( ( ( ( ( ( ( ( 4 T T ( ( ( T ",
"*.*.*.*.*.*.*.*.( ( ( *.*.( T 4 ( ( ( ( ( ( ( p g.( 4 d 4.6.>.! u.2.2.*.*.*.*.*.( ( ( *.*.( T 4 ( ( ( ( ( ( ( *.*.( 4 4 T T T T ",
"*.*.*.*.*.*.*.*.*.*.*.( ( T T T ( ( ( ( ( ( *.*.8.( 4 7.6.} | u.| <.+.M.*.-.5.*.*.*.*.( 4 4 T T ( ( ( ( ( ( *.*.*.( 4 4 4 4 T T ",
"T ( *.*.*.*.*.*.*.( ( ( ( ( ( T T 4 4 ( ( ( ( ( ,.6.3.,.| 4 4 4 | 3.| ^ s f.n *.*.( ( 4 T ( ( T T 4 4 ( ( ( ( ( T 4 T ( ( ( ( ( ",
"( T T T ( *.*.( 4 T T T ( ( ( ( ( ( ( T T T T T 4 u.,.4 T ) ( T u.a  .;.f.3.T ( T T T T ( ( ( ( ( ( ( T T T T T 4 4 4 ( *.*.*.( ",
"( ( ( ( T T T 4 4 ( ( ( ( ( ( ( ( ( ( ( *.*.*.( T | h T a ,.A T h h h p 6.;.T T T h T ( ( ( ( ( ( ( ( ( *.*.*.T T 4 ( *.*.*.( ( ",
"( ( ( T T 4 T T T ( ( *.*.*.*.*.( ( ( *.*.*.*.( T 6. .T ) 4.,.7 h | | i 5.X.} h h | T ) *.*.*.*.( ( ( *.*.*.*.*.T T ( *.*.*.*.*.",
"*.( ( T 4 T T ( ( *.*.*.*.*.( ( ( ( ( ( *.m.) T T 6.6.T ( ( 1.s 7 A w i.i y p u.| | T ) *.*.( ( ( ( ( ( *.*.*.*.( T ( *.*.*.*.*.",
"*.*.*.( T ( ( *.*.*.*.*.*.( *.*.*.*.*.*.*.6.,.T %.p 6.8 T T r.r.~ ~ r.~ j.A 4.o.| | h T ( ( ( *.*.*.*.*.*.*.*.*.( T ( *.*.*.*.*.",
"*.*.*.( T ( *.*.*.*.*.*.*.*.*.*.*.*.*.( T T 8.>.k.k.y 5.U l.I._._.(.(.U.r.L { 5.6.u 3.T T ( s *.*.*.*.*.*.*.( ( 4 4 4 ( *.*.*.*.",
"*.*.( ( T T ( *.*.*.*.*.*.*.*.*.*.*.( T C A | 3.u.o.y R ^ I.U.T.K.H.T.Y.I.Z.U f { D g.{ T f.p n *.*.( T 4 4 4 4 4 4 4 ( ( ( ( *.",
"*.( T T 4 T T ( *.*.*.*.*.*.*.*.) T 8.o.a x | 6.z h 8 I I._.`.`.U.U.`.`.`.U.E 4.w 5 6.u 6.6.T T ( T T 4 ( ( ( ( ( ( 4 4 4 4 ( ( ",
"T T 4 T T ( ( T T ( *.*.*.*.*.( T p a.O.g.h k.z z w L t._.].R.H.F.F.H.T.].`.Z.L 8 5 p 6.6.x | T T i ( *.( ( ( ( *.*.( ( ( 4 4 4 ",
"4 4 T ( ( ( ( ( ( T 4 ( *.( T T T p 6.a 6.u.| 7 U R E /.R.K.Y._.(._.(.Y.K.T.(.E P I b p x u.o. .g.a *.*.*.*.*.( *.*.*.*.*.( 4 4 ",
"T ( ( ( ( ( *.*.*.( 4 4 4 4 4 T } p 1.6.f u.h 7 Y M.K.K.Q Z.}.].|.|.{.}.D.Q G.P.M.E u.u.8 N n 6.6.T *.*.*.*.*.*.*.*.*.*.*.( ( 4 ",
"T ( *.*.*.*.*.*.( 4 4 T T T T B } g <.h } u.y # - Z.F.W I '.}.R.|. XR.{.{.E E F.Z.- z h h f 6.6.z T ( *.*.*.*.*.*.*.*.*.( ( ( ( ",
"T T ( *.*.*.( 4 4 4 ( ( ( ( T h | h 7 y w -.w 9.  E W ; ^ ].R.G.].{.G.R.].Z.; E E X -.A | b p a O.T T ( *.*.*.*.*.*.*.*.*.*.( ( ",
"( T T T T T T ( ( ( ( ( ( ( T | u.7 -.5.y -.-.d.X - X &.Z.H.Q W H.H.W Q J.Z.Z * -   4.e h | | h h T P p ( ( *.*.( ( ( *.*.*.*.*.",
"( T 4 4 4 ( ( ( ( *.*.( *.( p | h w w d.-.y d.5.p p.>.W.Q W E.E.Q E E.z.W W _ # r r & 5.h h C | | g p g.( ( ( ( *.( *.*.*.*.*.*.",
"T T ( ( ( ( ( *.*.*.( ( *.( 6.6.a | h y d.;.9.-.-.5.-.Q.z.z.b.~.E.E.b.c.$.* O & -.5.y w k h b g.h | 7.6.( ( ( *.*.*.*.*.*.*.*.*.",
"T ( ( ( ( ( ( ( ( ( ( ( ( *.a g.6.u.| w 5.;.5.-.5.y y v.!.v.' $.b.b.' $.X     w y 5. .g w h b 6. .k 6.a T 4 ( ( *.*.*.*.*.*.( ( ",
"T ( ( ( ( ( *.*.*.*.( ( *.T A u 7.| | y w 5.-.y     1 3 c.' [.$ x.c.+ [.X   2 2 .   s.5.-.|  .p p 6.x  .T T ( ( ( *.*.*.*.( T 4 ",
"4 4 ( ( ( ( *.*.*.*.l.T T | h c 6.j 5.y -.y X   H A.2 ] 3 ` b._ !.~.S b.X   1 ] A.H   $ 4.h | g p 2.C  .| 4 4 T T ( *.( ( T 4 4 ",
"4 T T T T T T ( *.b p L.4 6.h h u.B 0.;.-.& E.n.z.C.S./ [ 3 ' x.~.^.x.' o < ] ).V.h.n.E.# -.w 7 7 N k 5.5.p  .T T T T T T T T T ",
"( ( ( ( ( ( 4 4 T b g.p | y ,.u.g B 5.-.y   !.^.Q.V.C.A.C.[   ` $.$.`     G e.V.B.W.^.^.X -.;.w 7 g 1. .u.u.u.T ( ( ( ( T T T T ",
"( ( ( ( ( ( ( 4 4 4 p 6.b h y | 7 7 5 N -.V ~.^.^.- K V.J e.< .   o   < H H B.K - W.^.^._ t 5.d.w y u u.u.P T T ( ( ( *.*.( ( T ",
"( ( ( ( ( ( ( T T T 4 p 6.k.k & ;.5.-.7 m ` &.: :   X o o J w.q.Q N.q.q.H o - o   % : ' ` 8 d.;.$ C h | L T ( *.*.( *.*.*.*.( ( ",
"*.*.*.( ( T T ( ( ( T 4 6.u.u.N 0 7 5.5.-.7.e + N   < <   o o J B.B.K - o < ] ] 1 >.s % 9 -.5.$ } 6.} h 4 ( ( *.*.( ( *.*.*.*.*.",
"*.*.*.( T ( ( *.*.*.( T 4 | u.} i.7 # 5.5.y w 5.# < ] ] 1   . o - - o   < ] @.] 3 s.5.# + ;.8 | } p 6.h 4 ( *.*.*.*.( ( ( *.*.*.",
"*.( ( ( ( ( ( ( ( *.*.T T 4 | p 6.i t # <.y 5.-.5.3 @.#.[ 1             1 @.@.3 O + d.y 7 $ C h u.} 6.7 T ( *.*.*.*.*.*.*.*.*.( ",
"( ( *.*.*.*.*.( ( ( *.( T T 4 g.p h 7 -.$ w d.w ;.. 3 @.@.3             . @ @ + > 8 w 5.# 0 h i.u.| p 4 4 T T T ( ( *.*.*.*.( ( ",
"( *.*.*.*.*.*.*.*.( *.*.( T 6.6.p | h # 5.w 9.w w :.. @ @ +           F H F   t # 8 % -.8 i.i.3.| B h 4 ( ( ( 4 4 T T ( ( ( ( ( ",
"*.*.*.*.*.*.*.*.*.*.( ( *.T 6.x | h h h # 5.w # y -.r u   F F H       H H H F   # 8 8 -.O.D z g.| h 4 T ( ( ( ( ( 4 T T ( ( ( T ",
"*.*.*.*.*.*.*.*.( ( ( *.*.4 6. .6.6.u a.7 y y -.5.w 5.  F H H H         H N.q.H   N 7.| z D 9 5.-.L ( ( ( ( ( *.*.( 4 4 T T T T ",
"*.*.*.*.*.*.*.*.*.*.*.( ( 4 4 4.4 4 k 6.3.h -.d.# -.  F q.N.J o         o - - o > i a.O.f.B u.8 5.-.( ( ( ( *.*.*.( 4 4 4 4 T T ",
"T ( *.*.*.*.*.*.*.( ( ( T T p y T 4 o.p 3.8 6.y $ 5.p.o - - o     q r > l > Z 8 | p 5.p 6.u.h h ..5.T ( ( ( ( ( T 4 T ( ( ( ( ( ",
"( T T T ( *.*.( 4 T T T T ( ( ( T T 4 p 3.C 7 $ y d.5.X X :.r u : ..} B | u.5.5.a p 1.6.| h u.u.) 5.M T T T T T 4 4 4 ( *.*.*.( ",
"( ( ( ( T T T 4 4 ( ( ( ( ( l ( ( T T 4 i N g w 5.5.# 7 w d.y y N i g h u.6.y.B h | 1.p h 4 4 4 T a c T *.*.*.T T 4 ( *.*.*.( ( ",
"( ( ( T T 4 T T T ( ( *.*.*.*.h.( ( T 4 y.O.O.% -.# 7 $ -.5.7 & N 6.6.x y y k.i. .| 4 4 4 ) *.*.( T T *.*.*.*.*.T T ( *.*.*.*.*.",
"*.( ( T 4 T T ( ( *.*.*.*.*.( ( u 6.7.T | 2.6.o.;.7 | # 5.# = 7 | a g.7.| 7 6 4 4 4 4 ( ( *.( ( ( ( ( ( *.*.*.*.( T ( *.*.*.*.*.",
"*.*.*.( T ( ( *.*.*.*.*.*.( *.*.*.y g.T 7.g.p B h h h -., 7 C : | X.p 6.| h 4 T T ( ( *.*.( *.*.*.*.*.*.*.*.*.*.( T ( *.*.*.*.*.",
"*.*.*.( T ( *.*.*.*.*.*.*.*.*.*.*.*.a 6.6.p } | k.u.h g 7.| p a h } p 6.x h T ( ( *.*.*.*.*.*.*.*.*.*.*.*.*.( ( T 4 T ( *.*.*.*.",
"*.*.( ( T T ( *.*.*.*.*.*.*.*.*.j.h.( p p 4 4 4 u.h u.i a.h f.h h h ) u a C T ( *.*.*.*.*.*.*.*.*.*.( T 4 4 4 4 4 4 4 ( ( ( ( *.",
"*.( T T 4 T T ( *.*.*.*.*.*.*.*.( T T 4 ( ( ( ( 4 4 | a 6.p 2.| h | h 4 4 %.T T *.*.*.*.*.*.*.*.( T T 4 ( ( ( ( ( ( 4 4 4 4 ( ( ",
"T T 4 T T ( ( T T ( *.*.*.*.*.( ( T ( *.( ( ( ( ( ) 4 i 1.6.p } 4 4 4 T T ( T T T ( *.*.*.*.*.( ( T ( *.( ( ( ( *.*.( ( ( 4 4 4 ",
"4 4 T ( ( ( ( ( ( T 4 ( *.( T T T ( *.*.*.*.*.( *.*.*.*.2.v 4 4 T T T ( ( ( ( ( ( T 4 ( *.( T T T ( *.*.*.*.*.( *.*.*.*.*.( 4 4 ",
"T ( ( ( ( ( *.*.*.( 4 4 4 4 4 4 4 T *.*.*.*.*.*.*.*.*.*.*.( ( 4 T ( ( ( ( ( *.*.*.( 4 4 4 4 4 4 4 T *.*.*.*.*.*.*.*.*.*.*.( ( 4 ",
"T ( *.*.*.*.*.*.( 4 4 T T T T 4 4 4 ( *.*.*.*.*.*.*.*.*.( ( ( ( T ( *.*.*.*.*.*.( 4 4 T T T T 4 4 4 ( *.*.*.*.*.*.*.*.*.( ( ( ( ",
"T T ( *.*.*.( 4 4 4 ( ( ( ( ( T T T T ( *.*.*.*.*.*.*.*.*.*.( ( T T ( *.*.*.( 4 4 4 ( ( ( ( ( T T T T ( *.*.*.*.*.*.*.*.*.*.( ( ",
"( T T T T T T ( ( ( ( ( ( ( *.( ( ( 4 4 ( ( *.*.( ( ( *.*.*.*.*.( T T T T T T ( ( ( ( ( ( ( *.( ( ( 4 4 ( ( *.*.( ( ( *.*.*.*.*.",
"( T 4 4 4 ( ( ( ( *.*.( *.*.*.*.( ( ( ( 4 ( ( ( *.( *.*.*.*.*.*.( T 4 4 4 ( ( ( ( *.*.( *.*.*.*.( ( ( ( 4 ( ( ( *.( *.*.*.*.*.*.",
"T T ( ( ( ( ( *.*.*.( ( *.*.*.*.*.*.*.( T T ( *.*.*.*.*.*.*.*.*.T T ( ( ( ( ( *.*.*.( ( *.*.*.*.*.*.*.( T T ( *.*.*.*.*.*.*.*.*.",
"T ( ( ( ( ( ( ( ( ( ( ( ( *.*.*.*.*.*.*.T 4 T ( *.*.*.*.*.*.( ( T ( ( ( ( ( ( ( ( ( ( ( ( *.*.*.*.*.*.*.T 4 T ( *.*.*.*.*.*.( ( ",
"T ( ( ( ( ( *.*.*.*.( ( *.*.*.*.*.*.*.*.( T 4 T ( *.*.*.*.( T 4 T ( ( ( ( ( *.*.*.*.( ( *.*.*.*.*.*.*.*.( T 4 T ( *.*.*.*.( T 4 ",
"4 4 ( ( ( ( *.*.*.*.*.*.*.*.*.*.*.*.*.( T 4 4 T T ( *.( ( T 4 4 4 4 ( ( ( ( *.*.*.*.*.*.*.*.*.*.*.*.*.( T 4 4 T T ( *.( ( T 4 4 "
};
