/* XPM */
static char *_702bfbe789848c0f8a6bafb13317a61xnLpzF4VETqxrc8k[] = {
/* columns rows colors chars-per-pixel */
"64 64 187 2 ",
"   c #131212",
".  c #1D1411",
"X  c #12181A",
"o  c #191A1C",
"O  c #251915",
"+  c #291814",
"@  c #252314",
"#  c #292614",
"$  c #29231B",
"%  c #312B1A",
"&  c #3C3218",
"*  c #211827",
"=  c #262426",
"-  c #3B2F27",
";  c #533D18",
":  c #632111",
">  c #672618",
",  c #752512",
"<  c #453A20",
"1  c #4B342D",
"2  c #50372B",
"3  c #473131",
"4  c #4B3431",
"5  c #4F3830",
"6  c #523B34",
"7  c #643C2A",
"8  c #2D430A",
"9  c #374F09",
"0  c #266401",
"q  c #2A6503",
"w  c #276800",
"e  c #2B6900",
"r  c #356702",
"t  c #3A6505",
"y  c #336C00",
"u  c #3B6C02",
"i  c #3C7104",
"p  c #3A7F06",
"a  c #3C572A",
"s  c #4F550F",
"d  c #664C1B",
"f  c #684C1B",
"g  c #65521B",
"h  c #6D501C",
"j  c #73581F",
"k  c #476706",
"l  c #446B03",
"z  c #57680E",
"x  c #457807",
"c  c #4A750E",
"v  c #537A0C",
"b  c #497413",
"n  c #62780E",
"m  c #5D4824",
"M  c #664C23",
"N  c #6C412C",
"B  c #70432E",
"V  c #6C5123",
"C  c #6F5428",
"Z  c #785928",
"A  c #7E4933",
"S  c #776429",
"D  c #796039",
"F  c #193E4D",
"G  c #1D4554",
"H  c #1D4D5A",
"J  c #2B4650",
"K  c #2F7B75",
"L  c #4C4D48",
"P  c #4A5D49",
"I  c #52534B",
"U  c #4B4A53",
"Y  c #4F515B",
"T  c #575455",
"R  c #51525D",
"E  c #6A5C51",
"W  c #615659",
"Q  c #51654D",
"!  c #535461",
"~  c #5A5D68",
"^  c #61646D",
"/  c #7B7764",
"(  c #6D7973",
")  c #737D7F",
"_  c #835B1F",
"`  c #815F28",
"'  c #844D35",
"]  c #8B5037",
"[  c #8B5338",
"{  c #89563A",
"}  c #92563B",
"|  c #95593D",
" . c #BB4128",
".. c #836E26",
"X. c #85642B",
"o. c #8A662C",
"O. c #8B692D",
"+. c #8D782A",
"@. c #927C2B",
"#. c #896730",
"$. c #8D6B34",
"%. c #886839",
"&. c #9B7F38",
"*. c #C7452C",
"=. c #8D5941",
"-. c #8B6645",
";. c #917E4F",
":. c #A26B4C",
">. c #AA755A",
",. c #B77A58",
"<. c #B87E60",
"1. c #C27E57",
"2. c #368502",
"3. c #3A8405",
"4. c #388802",
"5. c #44850C",
"6. c #4B870E",
"7. c #42880D",
"8. c #499703",
"9. c #4C9D05",
"0. c #559D0B",
"q. c #5B9D0A",
"w. c #5A9A19",
"e. c #6C9814",
"r. c #4EA404",
"t. c #4CAB03",
"y. c #4EA908",
"u. c #54A505",
"i. c #56A509",
"p. c #56A412",
"a. c #71AD12",
"s. c #658C37",
"d. c #6C826E",
"f. c #72926B",
"g. c #718872",
"h. c #8B8225",
"j. c #96852A",
"k. c #958535",
"l. c #A4923D",
"z. c #A7B634",
"x. c #B2C52E",
"c. c #B7D32E",
"v. c #AEC837",
"b. c #AEC73D",
"n. c #B2CC31",
"m. c #B1CD38",
"M. c #98805F",
"N. c #B9A64A",
"B. c #BDAC4C",
"V. c #989168",
"C. c #CB855D",
"Z. c #CA895B",
"A. c #C28C6B",
"S. c #D38D63",
"D. c #D69267",
"F. c #D4946F",
"G. c #CD9974",
"H. c #B2C843",
"J. c #776383",
"K. c #788385",
"L. c #7E8B8A",
"P. c #68BAC8",
"I. c #828E8D",
"U. c #8B9693",
"Y. c #909B97",
"T. c #929C98",
"R. c #A69684",
"E. c #9EABA1",
"W. c #A1AEA4",
"Q. c #A5B2A6",
"!. c #A6B4A8",
"~. c #B1BCAF",
"^. c #B2BEB0",
"/. c #DAB887",
"(. c #E8BD8A",
"). c #B6C0B2",
"_. c #ECC28D",
"`. c #F1C48F",
"'. c #F2C791",
"]. c #F4CA94",
"[. c #F8D199",
"{. c #CFD2C2",
"}. c #D2D5C5",
"|. c #DEDDCD",
" X c #E2D7C7",
".X c #F4EDDE",
"XX c #F8F0E1",
/* pixels */
"< E E E E E E ;.;.;.;.;.;.;.;.;._ _ _ E E E E E E E E E E E T I < E E E E E E ;.;.;.;.;.;.;.;.;._ _ _ E E E E E E E E E E E < < ",
"_ _ _ _ _ _ < < ;.E _ _ _ _ _ _ _ E E < E E _ _ _ _ _ _ E E E E E E _ _ _ _ < < E E _ _ _ _ _ _ _ E E < E E _ _ _ _ _ _ E E E E ",
"_ _ _ _ _ _ _ < < < < E E E E < < < < E _ _ _ _ _ _ _ ;.;._ _ E ` _ ;._ _ _ _ < < < < E E E E < < < < E _ _ _ _ _ _ _ ;.;._ _ E ",
"_ _ _ _ _ _ _ E E E E < _ _ _ E < < E _ _ ;.;.;.;._ ;.;.;.;._ _ _ ;.;.;._ _ _ E E E E < _ _ _ E < < E _ _ ;.;.;.;._ ;.;.;.;._ _ ",
";.;.;._ _ E E _ _ _ _ E _ _ _ _ _ E E _ ;.;.;.;.;._ _ ;.;.;.;.;._ ;.;.;._ E E _ _ _ _ E _ _ _ _ _ E E _ ;.;.;.;.;._ _ ;.;.;.;.;.",
";.;.;._ E _ _ ;.;.;.;._ E _ _ _ _ _ E _ _ ;.;.;.;.;._ _ _ ;.;.;._ ;._ _ E _ _ ;.;.;.;._ E _ _ _ _ _ E _ _ ;.;.;.;.;._ _ _ ;.;.;.",
";._ _ _ _ _ _ _ _ ;.;.;._ E E _ _ < < E E _ ;.;.;.;.;.;.;.;.;._ E _ _ E _ _ _ _ ;.;.;.;._ E E _ _ < < E E _ ;.;.;.;.;.;.;.;.;._ ",
"_ _ ;.;.;.;.;._ _ _ ;.;.;.< E E E < _ _ _ E E E _ _ ;.;.;.;._ _ E _ E _ ;.;.;._ _ _ ;.;.;.< E E E < _ _ _ E E E _ _ ;.;.;.;._ _ ",
"_ ;.;.;.;.;.;.;.;._ ;.;.;._ < E E E _ _ _ _ _ < < E E _ _ 5._ E E E 5.;.;.;.;.;.;._ ;.;.;._ < E E E _ _ _ _ _ < < E E _ _ _ _ _ ",
";.;.;.;.;.;.;.;.;.;._ _ ;._ < < _ _ _ _ _ _ ` 7._ < E E M.m.5./ j.y w.;.;.;.;.;.;.;._ _ ;._ < < _ _ _ _ _ _ _ _ _ < E E _ _ _ E ",
";.;.;.;.;.;.;.;._ _ _ ;.;._ E < _ _ _ _ _ _ _ u m._ < a u.u.5./ j.q.0.;.;.;.;.;._ _ _ ;.;._ E < _ _ _ _ _ _ _ ;.;._ < < E E E E ",
";.;.;.;.;.;.;.;.;.;.;._ _ E E E _ _ _ _ _ _ ;.;.p._ < u.u.o.X.j.o.6.@.) ;.2.t.;.;.;.;._ < < E E _ _ _ _ _ _ ;.;.;._ < < < < E E ",
"E _ ;.;.;.;.;.;.;._ _ _ _ _ _ E E < < _ _ _ _ _ 7.u.q.7.o.< < < o.q.o.J.2.b.v ;.;._ _ < E _ _ E E < < _ _ _ _ _ E < E _ _ _ _ _ ",
"_ E E E _ ;.;._ < E E E _ _ _ _ _ _ _ E E E E E < j.7.< E ` _ E j.u O.2.b.u.E _ E E E E _ _ _ _ _ _ _ E E E E E < < < _ ;.;.;._ ",
"_ _ _ _ E E E < < _ _ _ _ _ _ _ _ _ _ _ ;.;.;._ E o.f E u 6._ E f f f r u.2.E E E f E _ _ _ _ _ _ _ _ _ ;.;.;.E E < _ ;.;.;._ _ ",
"_ _ _ E E < E E E _ _ ;.;.;.;.;._ _ _ ;.;.;.;._ E u.O.E _ r.5.3 f o.o.u t.j.X.f f o.E _ ;.;.;.;._ _ _ ;.;.;.;.;.E E _ ;.;.;.;.;.",
";._ _ E < E E _ _ ;.;.;.;.;._ _ _ _ _ _ ;.H._ E E i.i.E _ _ r.p 3 j 8 k.u w r j.o.o.E _ ;.;._ _ _ _ _ _ ;.;.;.;._ E _ ;.;.;.;.;.",
";.;.;._ E _ _ ;.;.;.;.;.;._ ;.;.;.;.;.;.;.y.7.E $.u u.3 E E p r.< 8 y.8 l.V r.o.o.O.f E _ _ _ ;.;.;.;.;.;.;.;.;._ E _ ;.;.;.;.;.",
";.;.;._ E _ ;.;.;.;.;.;.;.;.;.;.;.;.;._ E E p.6.B.N.w t.3 O.X.r.e.& w 8 0 2.+.r.y.y i.E E _ i M.;.;.;.;.;.;._ _ < < < _ ;.;.;.;.",
";.;._ _ E E _ ;.;.;.;.;.;.;.;.;.;.;._ E C C o.i.j.o.w t.8 3 2.O.z.8 w c.2.w 8 s ..S n.S E v.y v ;.;._ E < < < < < < < _ _ _ _ ;.",
";._ E E < E E _ ;.;.;.;.;.;.;.;.` E 0.#.u l o.u.k f 3 w c.w 3 O.p.8 c.t.2.w t.t.8 3 u.y u.u.E E _ E E < _ _ _ _ _ _ < < < < _ _ ",
"E E < E E _ _ E E _ ;.;.;.;.;._ E u z.%.m.f B.k k 8 w 8 2.c.w 3 x 4.t.4.w t.c.8 3 3 y u.u.k O.E E u _ ;._ _ _ _ ;.;._ _ _ < < < ",
"< < E _ _ _ _ _ _ E < _ ;._ E E E y u.u u.j.o.4 d t.4.8 2.c.t.3 x t.w 8 2.c.2.X.f 2 x u l j.#.O.m.r ;.;.;.;.;._ ;.;.;.;.;._ < < ",
"E _ _ _ _ _ ;.;.;._ < < < < < E X.y 9.u.s j.f 3 3 8 c.t.w t.f.d.g.( ( ( u.2.8 2.t.q j.j.3 m v u.u.E ;.;.;.;.;.;.;.;.;.;.;._ _ < ",
"E _ ;.;.;.;.;.;._ < < E E E E M X.d 8.f X.j.w @ 3 8 w c.P d.E.E.E.E.E.W.g.U w y.c.c.k f f s u.u.k E _ ;.;.;.;.;.;.;.;.;._ _ _ _ ",
"E E _ ;.;.;._ < < < _ _ _ _ E f o.f 3 q 8 2.8 a.8 4.8 P ) E.{.}.}.}.}.}.Q.K.Q n.t.8 2.Z o.z y y %.E E _ ;.;.;.;.;.;.;.;.;.;._ _ ",
"_ E E E E E E _ _ _ _ _ _ _ E O.j.3 2.t.w 2.2.c.8 w 3 Y E.{.T.~.).).^.T.}.E.! w 8 # y.8 f o.O.d f E I r _ _ ;.;._ _ _ ;.;.;.;.;.",
"_ E < < < _ _ _ _ ;.;._ ;._ y O.f 8 8 c.2.w c.t.2.c.Q ) !.T.E.{.}.}.}.W.Y.!.K.Y q w 8 t.f f V o.o.f y m._ _ _ _ ;._ ;.;.;.;.;.;.",
"E E _ _ _ _ _ ;.;.;._ _ ;._ u.u.u O.f w c.2.a.2.2.t.Y L.!.L.{.|.|.|.|.}.L.!.L.! 2.t.w 8 h f c m.f O.u.u._ _ _ ;.;.;.;.;.;.;.;.;.",
"E _ _ _ _ _ _ _ _ _ _ _ _ ;.i m.u.j.o.8 t.2.t.2.t.w Y = I.E..X|..X.X|..XI.U.L.! q t.o.d 8 f c u.$.h u.i E < _ _ ;.;.;.;.;.;._ _ ",
"E _ _ _ _ _ ;.;.;.;._ _ ;.E Z y i.o.o.w 8 t.2.w w 2.Y X ~ Q..X)..XXX).XXL.~ L.! 2.0 c.t.2.o.O.y y u.l O.E E _ _ _ ;.;.;.;._ E < ",
"< < _ _ _ _ ;.;.;.;.V.E E o.f s u.g t.q 2.w 8 3 2.t.o Y Y Q.|.U.|.|.U.|.I.! ~ R u.q q n.u.f o.f y 0.f o.o.< < E E _ ;._ _ E < < ",
"< E E E E E E _ ;.c y R.< t.d d j.f s.3.3.n.t.3.e 3.O R.! ^ U.I.^.^.I.Y.~ Y >.R v.8 2.w 8 2.8 3 3 m h t.t.u O.E E E E E E E E E ",
"_ _ _ _ _ _ < < E c m.y o.w 5.j.f M t.2.w t.t.c.2.q   /.=.,.A.A.G.G.A.A.<.=.C.= 2.8 2.t.w 2.2.8 3 d r.O.j.j.j.E _ _ _ _ E E E E ",
"_ _ _ _ _ _ _ < < < y u.c f w o.3 3 5 m 3.w d 2.t.2.  T O S.| | S.S.[ | C.+ W   0 8 8 t.2.w t.c.8 w w j.j.I E E _ _ _ ;.;._ _ E ",
"_ _ _ _ _ _ _ E E E < y u.B.g & 2.t.2.3 b 2.j.d # 2.F G X '  X$ C.S.O }.=.o F F 0 t.8 0 t.3 c.2.# V f o.L E _ ;.;._ ;.;.;.;._ _ ",
";.;.;._ _ E E _ _ _ E < u.j.j.7 6 3 t.t.4.t.8 @ f @ G > . A F./.'.S.,.F.}   > G p t.2.@ 3 2.t.# ` u.X.f < _ _ ;.;._ _ ;.;.;.;.;.",
";.;.;._ E _ _ ;.;.;._ E < o.j.X.k.3 @ t.t.w 8 t.@ J >  .: . ' D.[.'.S.| . :  .> J n.t.@ @ 2.3 o.o.y u.d < _ ;.;.;.;._ _ _ ;.;.;.",
";._ _ _ _ _ _ _ _ ;.;.E E < o.y u.l 0 O 9.w t.2.t.G > *. .>   ' S.D.|   :  .*., G $ c.w 3 # C f j.X.u.3 E _ ;.;.;.;.;.;.;.;.;._ ",
"_ _ ;.;.;.;.;._ _ _ ;._ E E < m.y f 3 2.# 8 c.8 3.H . O + . :         : . + + . G 5 8 t.@ 6 f k.j.o.y < < E E E _ _ ;.;.;.;._ _ ",
"_ ;.;.;.;.;.;.;.;._ ;.;._ E u.u.y o.f O t.8 a.8 8 X 7 N   7 . : : : : O 7   7 7 o 3 % 2.3 k.j.q.o.M g < _ _ _ < < E E _ _ _ _ _ ",
";.;.;.;.;.;.;.;.;.;._ _ ;.E u.l o.f f f @ t.8 @ w N 1.] :.]   . O . .   A :.' 1.B 5 1 2.$.D l m.o.f < E _ _ _ _ _ < E E _ _ _ E ",
";.;.;.;.;.;.;.;._ _ _ ;.;.< u.X.u.t.y z.3 w w 2.t.1.`.Z.`.[ N         7 ' `.C.`.C.V q.o.k D 5 t.2.L _ _ _ _ _ ;.;._ < < E E E E ",
";.;.;.;.;.;.;.;.;.;.;._ _ < < r.< < f u.e.f 2.c.# Z.].'.[._.C.    K   ,.(.[.'.[.S.u z.%.b.f j.4 t.2._ _ _ _ ;.;.;._ < < < < E E ",
"E _ ;.;.;.;.;.;.;._ _ _ E E y w E < #.y q.4 t.w @ } D.D.D.D.| 5.  G P.-.S.D.D.D.| u u.y y.j.f M +.t.E _ _ _ _ _ E < E _ _ _ _ _ ",
"_ E E E _ ;.;._ < E E E E _ ` _ E E < y 0.V 3 @ q x.{ } } } t 2.-   = ' } | } | k r 9.u.o.f j.j.X.t.n E E E E E < < < _ ;.;.;._ ",
"_ _ _ _ E E E < < _ _ _ _ _ _ _ ` E E < r m d 8 t.t.% 5 8 x.q 0 2 9 ; f @.i.+.M f o.9.y f < < < E r z E ;.;.;.E E < _ ;.;.;._ _ ",
"_ _ _ E E < E E E _ _ ;.;.;.;.;._ _ E < h.$.$.% 2.@ 3 @ 3.y.3 8 d u.t.t q w B.&.o.o.< < < _ ;.;._ E E ;.;.;.;.;.E E _ ;.;.;.;.;.",
";._ _ E < E E _ _ ;.;.;.;.;._ _ y u.i.E O.i.u.#.3.3 o.@ t.@ * 3 o.u m.i.o.4 2 < < < < _ _ ;._ _ _ _ _ _ ;.;.;.;._ E _ ;.;.;.;.;.",
";.;.;._ E _ _ ;.;.;.;.;.;._ ;.;.;.y m.E i.m.y V d f f 2.- 3 V = o.j.y u.o.d < E E _ _ ;.;._ ;.;.;.;.;.;.;.;.;.;._ E _ ;.;.;.;.;.",
";.;.;._ E _ ;.;.;.;.;.;.;.;.;.;.;.;.i u.u.r X.o.B.j.f d u.#.u t f X.y u.u f E _ _ ;.;.;.;.;.;.;.;.;.;.;.;.;._ _ E < E _ ;.;.;.;.",
";.;._ _ E E _ ;.;.;.;.;.;.;.;.;.;.;._ y y < < < j.f j.t z.f v.f f f Z y u V E _ ;.;.;.;.;.;.;.;.;.;._ E < < < < < < < _ _ _ _ ;.",
";._ E E < E E _ ;.;.;.;.;.;.;.;._ E E < _ _ _ _ < < o.u u.y u.X.f o.f < < -.E E ;.;.;.;.;.;.;.;._ E E < _ _ _ _ _ _ < < < < _ _ ",
"E E < E E _ _ E E _ ;.;.;.;.;._ _ E _ ;._ _ _ _ _ _ < r 9.u.u X.< < < E E _ E E E _ ;.;.;.;.;._ _ E _ ;._ _ _ _ ;.;._ _ _ < < < ",
"< < E _ _ _ _ _ _ E < _ ;._ E E E _ ;.;.;.;.;._ ;.;.;.;.0.i < < E E E _ _ _ _ _ _ E < _ ;._ E E E _ ;.;.;.;.;._ ;.;.;.;.;._ < < ",
"E _ _ _ _ _ ;.;.;._ < < < < < < < E ;.;.;.;.;.;.;.;.;.;.;._ ` < E _ _ _ _ _ ;.;.;._ < < < < < < < E ;.;.;.;.;.;.;.;.;.;.;._ _ < ",
"E _ ;.;.;.;.;.;._ < < E E E E < < < _ ;.;.;.;.;.;.;.;.;._ _ _ _ E _ ;.;.;.;.;.;._ < < E E E E < < < _ ;.;.;.;.;.;.;.;.;._ _ _ _ ",
"E E _ ;.;.;._ < < < _ _ _ _ _ E E E E _ ;.;.;.;.;.;.;.;.;.;._ _ E E _ ;.;.;._ < < < _ _ _ _ _ E E E E _ ;.;.;.;.;.;.;.;.;.;._ _ ",
"_ E E E E E E _ _ _ _ _ _ _ ;._ _ _ < < _ _ ;.;._ _ _ ;.;.;.;.;._ E E E E E E _ _ _ _ _ _ _ ;._ _ _ < < _ _ ;.;._ _ _ ;.;.;.;.;.",
"_ E < < < _ _ _ _ ;.;._ ;.;.;.;._ _ _ _ < _ _ _ ;._ ;.;.;.;.;.;._ E < < < _ _ _ _ ;.;._ ;.;.;.;._ _ _ _ < _ _ _ ;._ ;.;.;.;.;.;.",
"E E _ _ _ _ _ ;.;.;._ _ ;.;.;.;.;.;.;._ E E _ ;.;.;.;.;.;.;.;.;.E E _ _ _ _ _ ;.;.;._ _ ;.;.;.;.;.;.;._ E E _ ;.;.;.;.;.;.;.;.;.",
"E _ _ _ _ _ _ _ _ _ _ _ _ ;.;.;.;.;.;.;.E < E _ ;.;.;.;.;.;._ _ E _ _ _ _ _ _ _ _ _ _ _ _ ;.;.;.;.;.;.;.E < E _ ;.;.;.;.;.;._ _ ",
"E _ _ _ _ _ ;.;.;.;._ _ ;.;.;.;.;.;.;.;._ E < E _ ;.;.;.;._ E < E _ _ _ _ _ ;.;.;.;._ _ ;.;.;.;.;.;.;.;._ E < E _ ;.;.;.;._ E < ",
"< < _ _ _ _ ;.;.;.;.;.;.;.;.;.;.;.;.;._ E < < E E _ ;._ _ E < < < < _ _ _ _ ;.;.;.;.;.;.;.;.;.;.;.;.;._ E < < E E _ ;._ _ E < < "
};
