/* XPM */
static char *_2510e62c8334090a6e691eb4b3b5a98CTMejNGwcbs83YZ6[] = {
/* columns rows colors chars-per-pixel */
"64 64 185 2 ",
"   c #121211",
".  c #181718",
"X  c #291814",
"o  c #291D19",
"O  c #252314",
"+  c #282419",
"@  c #302A15",
"#  c #322A1A",
"$  c #3C3218",
"%  c #211827",
"&  c #1E2A2C",
"*  c #312A28",
"=  c #4B371E",
"-  c #652416",
";  c #453A20",
":  c #4E362D",
">  c #54392D",
",  c #473131",
"<  c #4B3331",
"1  c #4F3830",
"2  c #523B34",
"3  c #643C2A",
"4  c #2D430A",
"5  c #2A6402",
"6  c #276800",
"7  c #2B6800",
"8  c #356704",
"9  c #3A6505",
"0  c #336C00",
"q  c #3B6B02",
"w  c #3C7104",
"e  c #3B7F05",
"r  c #326111",
"t  c #3C572A",
"y  c #4F540E",
"u  c #495C13",
"i  c #664C1B",
"p  c #684C1B",
"a  c #65521B",
"s  c #6D501C",
"d  c #73581F",
"f  c #496707",
"g  c #446B03",
"h  c #57680E",
"j  c #4A750E",
"k  c #447A08",
"l  c #537A0C",
"z  c #4D7215",
"x  c #62780E",
"c  c #5C4525",
"v  c #5E4D24",
"b  c #674C22",
"n  c #6C412C",
"m  c #6C5223",
"M  c #6F5428",
"N  c #785928",
"B  c #684331",
"V  c #776429",
"C  c #796039",
"Z  c #1B3E4B",
"A  c #1C4857",
"S  c #2C4953",
"D  c #265869",
"F  c #2F7B75",
"G  c #4C4D48",
"H  c #4B584D",
"J  c #52534B",
"K  c #4E4954",
"L  c #4F525B",
"P  c #575455",
"I  c #51535D",
"U  c #6A5C51",
"Y  c #686F54",
"T  c #535461",
"R  c #5A5D68",
"E  c #68706F",
"W  c #7B7764",
"Q  c #727C7D",
"!  c #B63F27",
"~  c #835B1F",
"^  c #815F28",
"/  c #874E35",
"(  c #8B5137",
")  c #87543B",
"_  c #8B5338",
"`  c #92563B",
"'  c #95593D",
"]  c #836E26",
"[  c #85642B",
"{  c #8A662C",
"}  c #8B692D",
"|  c #8F7B2E",
" . c #917C2A",
".. c #896730",
"X. c #8D6B34",
"o. c #886738",
"O. c #C6452C",
"+. c #835441",
"@. c #935C40",
"#. c #826B44",
"$. c #917E4F",
"%. c #A26B4C",
"&. c #AA755A",
"*. c #B87B5B",
"=. c #C47F58",
"-. c #368502",
";. c #3A8406",
":. c #388802",
">. c #45850B",
",. c #4B870E",
"<. c #42880D",
"1. c #499703",
"2. c #4C9D05",
"3. c #549C0B",
"4. c #5B9D0A",
"5. c #6C9814",
"6. c #4EA405",
"7. c #4CAB03",
"8. c #4CA309",
"9. c #54A505",
"0. c #56A509",
"q. c #56A412",
"w. c #71AD12",
"e. c #658C37",
"r. c #718B6F",
"t. c #759271",
"y. c #8B8225",
"u. c #96852A",
"i. c #958535",
"p. c #A4923D",
"a. c #A7B634",
"s. c #AFCA2E",
"d. c #B2C72E",
"f. c #B7D32E",
"g. c #ADC634",
"h. c #AEC73D",
"j. c #AFCB38",
"k. c #B3CD31",
"l. c #B1CD38",
"z. c #98805F",
"x. c #B9A64A",
"c. c #BDAC4C",
"v. c #989168",
"b. c #C68659",
"n. c #CB855D",
"m. c #C28C6B",
"M. c #D38D63",
"N. c #C5906E",
"B. c #D69267",
"V. c #D4946F",
"C. c #CD9974",
"Z. c #B2C843",
"A. c #776383",
"S. c #338B83",
"D. c #468F83",
"F. c #4A9287",
"G. c #778183",
"H. c #7B8788",
"J. c #7E8B8A",
"K. c #6DCDD9",
"L. c #71D0DD",
"P. c #77D6E6",
"I. c #828E8D",
"U. c #8A9693",
"Y. c #919C98",
"T. c #A69684",
"R. c #9EABA1",
"E. c #A1AEA4",
"W. c #A6B3A7",
"Q. c #B1BCAF",
"!. c #B2BEB0",
"~. c #DAB887",
"^. c #E8BD8A",
"/. c #B6C0B2",
"(. c #ECC28D",
"). c #F1C48F",
"_. c #F2C791",
"`. c #F4CA94",
"'. c #F8D199",
"]. c #CFD2C2",
"[. c #D2D5C5",
"{. c #DEDDCD",
"}. c #E2D7C7",
"|. c #F4EDDE",
" X c #F8F0E1",
/* pixels */
"; U U U U U U $.$.$.$.$.$.$.$.$.~ ~ ~ U U U U U U U U U U U P P ; U U U U U U z.$.$.$.$.$.$.$.$.~ ~ ~ U U U U U U U U U U U ; ; ",
"~ ~ ~ ~ ~ ~ ; ; $.U ~ ~ ~ ~ ~ ~ ~ U U ; U U ~ ~ ~ ~ ~ ~ U U U U U U ~ ~ ~ ~ ; ; U U ~ ~ ~ ~ ~ ~ ~ U U ; U U ~ ~ ~ ~ ~ ~ U U U U ",
"~ ~ ~ ~ ~ ~ ~ ; ; ; ; U U U U ; ; ; ; U ~ ~ ~ ~ ~ ~ ~ $.$.~ ~ U d ~ z.d ~ ~ ~ ; ; ; ; U U U U ; ; ; ; U ~ ~ ~ ~ ~ ~ ~ $.$.~ ~ U ",
"~ ~ ~ ~ ~ ~ ~ U U U U ; ~ ~ ~ U ; ; U ~ ~ $.$.$.$.~ $.$.$.$.~ ~ ~ z.| z.~ ~ d C U U U ; ~ ~ ~ U ; ; U ~ ~ $.$.$.$.~ $.$.$.$.~ ~ ",
"$.$.$.~ ~ U U ~ ~ ~ ~ U ~ ~ ~ ~ ~ U U ~ $.$.$.$.$.~ ~ $.$.$.$.$.~ $.$.$.~ U U ~ ~ ~ ~ U ~ ~ ~ ~ ~ U U ~ $.$.$.$.$.~ ~ $.$.$.$.$.",
"$.$.$.~ U ~ ~ $.$.$.$.~ U ~ ~ ~ ~ ~ U ~ ~ $.$.$.$.$.~ ~ ~ $.$.$.~ $.~ ~ U ~ d z.$.$.$.~ U ~ ~ ~ ~ ~ U ~ ~ $.$.$.$.$.~ ~ ~ $.$.$.",
"$.~ ~ ~ ~ ~ ~ ~ ~ $.$.$.~ U U ~ ~ ; ; U U ~ $.$.$.$.$.$.$.$.$.~ U ~ ~ U ~ ~ ~ ~ $.$.$.$.~ U U ~ ~ ; ; U U ~ $.$.$.$.$.$.$.$.$.~ ",
"~ ~ $.$.$.$.$.~ ~ ~ $.$.$.; U U U ; ~ ~ ~ U U U ~ ~ $.$.$.$.~ ~ U ~ U ~ $.i.z.~ ~ ~ $.$.$.; U U U ; ~ ~ ~ U U U ~ ~ $.$.$.$.~ ~ ",
"~ $.$.$.$.$.$.$.$.~ $.$.$.~ ; U U U ~ ~ ~ ~ ~ ; ; U U ~ ~ <.~ U U U k z.$.$.$.$.$.~ $.$.$.~ ; U U U ~ ~ ~ ~ ~ ; ; U U ~ ~ ~ ~ ~ ",
"$.$.$.$.$.$.$.$.$.$.~ ~ $.~ ; ; ~ ~ ~ ~ ~ ~ ^ <.~ ; U U z.l.<.W u.0 3.$.$.$.$.$.$.$.~ ~ $.~ ; ; ~ ~ ~ ~ ~ ~ ~ ~ ~ ; U U ~ ~ ~ U ",
"$.$.$.$.$.$.$.$.~ ~ ~ $.$.~ U ; ~ ~ ~ ~ ~ ~ ~ q l.~ ; t 9.9.<.W u.0.9.$.$.$.$.$.~ ~ ~ $.$.~ U ; ~ ~ ~ ~ ~ ~ ~ $.$.~ ; ; U U U U ",
"$.$.$.$.$.$.$.$.$.$.$.~ ~ U U U ~ ~ ~ ~ ~ ~ $.$.q.~ ; 9.9.{ [ u.{ ,.| E $.-.7.$.$.$.$.~ ; ; U U ~ ~ ~ ~ ~ ~ $.$.$.~ ; ; ; ; U U ",
"U ~ $.$.$.$.$.$.$.~ ~ ~ ~ ~ ~ U U ; ; ~ ~ ~ ~ ~ <.9.4.<.{ ; ; ; { 4.{ A.-.h.l $.$.~ ~ ; U ~ ~ U U ; ; ~ ~ ~ ~ ~ U ; U ~ ~ ~ ~ ~ ",
"~ U U U ~ $.$.~ ; U U U ~ ~ ~ ~ ~ ~ ~ U U U U U ; u.<.; U ~ ~ U u.g } -.h.9.U ~ U U U U ~ ~ ~ ~ ~ ~ ~ U U U U U ; ; ; ~ $.$.$.~ ",
"~ ~ ~ ~ U U U ; ; ~ ~ ~ ~ ~ ~ ~ ~ ~ ~ ~ $.$.$.~ U { p U 9 ,.~ U p p p 0 9.;.U U U p U ~ ~ ~ ~ ~ ~ ~ ~ ~ $.$.$.U U ; ~ $.$.$.~ ~ ",
"~ ~ ~ U U ; U U U ~ ~ $.$.$.$.$.~ ~ ~ $.$.$.$.~ U 9.} U ~ 6.<., p { { q 7. .{ p p { U ~ $.$.$.$.~ ~ ~ $.$.$.$.$.U U ~ $.$.$.$.$.",
"$.~ ~ U ; U U ~ d $.$.$.$.$.~ ~ ~ ~ ~ ~ $.Z.~ U U 0.0.U ~ ~ 6.e < N 4 | 8 6 0 u.{ { U ^ $.$.~ ~ ~ ~ ~ ~ $.$.$.$.~ U ~ $.$.$.$.$.",
"$.$.$.~ U ~ ~ $.$.$.$.$.$.~ $.$.$.$.$.$.$.9.<.U X.q 9., U U e 6.$ 4 7.4 p.d 2.[ { { p U ~ ~ ~ $.$.$.$.$.$.$.$.$.~ U ~ $.$.$.$.$.",
"$.$.$.~ U ~ $.$.$.$.$.$.$.$.$.$.$.$.$.~ U U q.,.c.x.6 7., } [ 6.5.4 6 4 7 -.| 6.9.7 4.U U ~ w $.$.$.$.$.$.$.~ ~ ; ; ; ~ $.$.$.$.",
"$.$.~ ~ U U ~ $.$.$.$.$.$.$.$.$.$.$.~ U m M { 0.u.{ 6 7.4 , -.} a.4 6 f.-.6 4 u ] V j.] U h.0 l $.$.~ U ; ; ; ; ; ; ; ~ ~ ~ ~ $.",
"$.~ U U ; U U ~ z.i.$.$.$.$.z.z.^ U 3...q g } 9.g p , 6 f.6 , { 5.4 f.7.:.6 7.7.4 , 9.0 9.9.U U ~ U U ; ~ ~ ~ ~ ~ ~ ; ; ; ; ~ ~ ",
"U U ; U U ~ ~ U U ~ $.$.$.z.| d U w a.o.l.p c.f f 4 5 4 -.f.6 , <.;.7.-.6 7.f.4 < , 0 9.9.g { U U q ~ $.~ ~ ~ ~ $.$.~ ~ ~ ; ; ; ",
"; ; U ~ ~ ~ ~ ~ d C ; ~ $.d U U U 7 9.q 9.u.{ < i 7.-.4 -.f.t.Q r.t.r.E :.f.-.{ i : k w g u...} l.0 $.$.$.$.$.~ $.$.$.$.$.~ ; ; ",
"U ~ ~ ~ ~ ~ $.$.z.~ ; ; ; = ; U [ 0 2.9.y u.i < , 4 f.7.H r.R.E.E.R.E.E.t.H $ -.7.5 u.u.< v l 9.9.U $.$.$.$.$.$.$.$.$.$.$.~ ~ ; ",
"U ~ $.$.$.$.$.$.~ ; ; U U U U i { i 1.p [ u.6 O , 4 6 Y Q R.].[.[.[.[.[.W.A.H 7.f.f.9 p p y 9.9.g U ~ $.$.$.$.$.$.$.$.$.~ ~ ~ ~ ",
"U U ~ $.$.$.~ ; ; ; ~ ~ ~ ~ U i { i , 5 4 -.4 w.4 :.4 L R.[.Y.!.!.!.!.Y.[.E.R l.7.4 -.^ { h 7 q o.U U ~ $.$.$.$.$.$.$.$.$.$.~ ~ ",
"~ U U U U U U ~ ~ ~ ~ ~ ~ ~ U } u., -.7.6 -.-.f.4 6 K Q W.Y.R.].[.[.[.W.Y.W.G.H 4 + 9.4 p { } i p U J 8 ~ ~ $.$.~ ~ ~ $.$.$.$.$.",
"~ U ; ; ; ~ ~ ~ ~ $.$.~ z.~ 0 } p 4 4 f.-.6 f.7.:.f.L H.W.J.].{.{.{.{.[.J.W.J.T 6 6 4 7.p p m { { p q l.~ ~ ~ ~ $.~ $.$.$.$.$.$.",
"U U ~ ~ ~ ~ ~ $.$.$.~ ~ $.~ 9.9.q { p 6 f.-.w.-.:.7.I J.U.R.|.{.|.|.{.|.U.U.J.T -.7.6 4 s p j l.p { 9.9.~ ~ ~ $.$.$.$.$.$.$.$.$.",
"U ~ ~ ~ ~ ~ ~ ~ ~ ~ ~ ~ ~ $.w l.9.u.{ 4 7.-.7.-.7.6 P I.R W.|./.|. X/. XJ.R J.T 5 7.{ p 4 p j 9.X.s 9.w U ; ~ ~ $.$.$.$.$.$.~ ~ ",
"U ~ ~ ~ ~ ~ $.$.$.$.~ ~ $.U N 0 0.{ { 6 4 7.-.6 6 -.L R L W.{.U.{.{.Y.{.J.I R L ;.5 f.7.-.{ } 0 0 0.g } U U ~ ~ ~ $.$.$.$.~ U ; ",
"; ; ~ ~ ~ ~ $.$.$.$.v.U U { p y 9.a 7.7 -.6 4 , -.7.. T.I R Y.I.Q./.J.Y.R I &.L 8.7 7 s.9.p } p 7 4.p { { ; ; U U ~ $.~ ~ U ; ; ",
"; U U U U U U ~ $.j 0 T.; 7.i i u.p e.;.;.k.7.-.5 ;.  ~.+.*.N.N.C.C.N.m.*.+.n.+ s.4 -.6 4 -.4 * < b s 7.7.0 } U U U U U U U U U ",
"~ ~ ~ ~ ~ ~ ; ; U j l.0 { 5 <.u.p b 7.-.6 7.7.f.-.  Z P o n.' ' M.M.` ( n.o P . e 4 -.7.6 -.-.4 < b 2.} u.u.u.U ~ ~ ~ ~ U U U U ",
"~ ~ ~ ~ ~ ~ ~ ; ; ; 0 9.j p 6 { , , < c -.6 p -.7.  A - . _ }.o b.M.o }.@.. - Z 5 4 4 7.-.6 7.f.4 7 7 u.u.J U U ~ ~ ~ $.$.~ ~ U ",
"~ ~ ~ ~ ~ ~ ~ U U U ; 0 9.c.p $ -.7.;., z -.u.p +   - ! . / V.~.(.M.*.V.`   ! - 5 7.4 6 7., f.-.+ m i } G U ~ $.$.~ $.$.$.$.~ ~ ",
"$.$.$.~ ~ U U ~ ~ ~ U ; 9.u.u.c 2 , 7.7.:.7.4 O i Z ! O.-   ( M.'.).M.` . - O.! S 8.-.O , :.7.O [ 7.[ p ; ~ ~ $.$.~ ~ $.$.$.$.$.",
"$.$.$.~ U ~ ~ $.$.$.~ U ; { u.{ i., O 7.7.6 4 7.O A o X .     ( M.B.`     . X X A g.7.O O -.< [ { 8 9.i ; ~ $.$.$.$.~ ~ ~ $.$.$.",
"$.~ ~ ~ ~ ~ ~ ~ ~ $.$.U U ; } 7 9.g 5 O 2.6 7.-.7.. 3 3   3   .   .     3   3 3 . O f.6 , O M p u.[ 9., U ~ $.$.$.$.$.$.$.$.$.~ ",
"~ ~ $.$.$.$.$.~ ~ ~ $.~ U U ; l.7 p , -.O 4 f.4 -.n =.` %./             / %.( =.B < 4 8.+ c p i.u.{ 0 ; ; U U U ~ ~ $.$.$.$.~ ~ ",
"~ $.$.$.$.$.$.$.$.~ $.$.~ U 9.9.0 { p O 7.4 w.4 4 b.).n.)._ 3 n     3 3 / (.n.).M.< @ -.< i.u.4.{ b p ; ~ ~ ~ ; ; U U ~ ~ ~ ~ ~ ",
"$.$.$.$.$.$.$.$.$.$.~ ~ $.U 9.g { p p p O 7.4 O 6 n.`.`.'.(.n._     / =.^.'._.'.M.< < -.X.C g l.{ p ; U ~ ~ ~ ~ ~ ; U U ~ ~ ~ U ",
"$.$.$.$.$.$.$.$.~ ~ ~ $.$.; 9.{ 9.9.7 a., 6 5 -.7.( M.B.B.B.` 9   F r.U B.B.B.B.' b 4.{ f C 1 7.-.G ~ ~ ~ ~ ~ $.$.~ ; ; U U U U ",
"$.$.$.$.$.$.$.$.$.$.$.~ ~ ; ; 6.; ; s 9.5.p -.f.O >._ ` ` ` >.5   S.S.D.@.` _ ) > 0 a.o.g.b u.< 7.-.~ ~ ~ ~ $.$.$.~ ; ; ; ; U U ",
"U ~ $.$.$.$.$.$.$.~ ~ ~ U U 8 6 U ; { 7 3.< 7.5 O 7.d.8 # @ -.7.  S.K.L.F.S o.B { 0 9.0 9.u.i b | 7.U ~ ~ ~ ~ ~ U ; U ~ ~ ~ ~ ~ ",
"~ U U U ~ $.$.~ ; U U U U ~ ~ ~ U U ; 0 9.m , O 6 f.7.O O 7.5 -.  A P.P.L.A 8.7.0 q 2.9.} i u.u.[ 7.x U U U U U ; ; ; ~ $.$.$.~ ",
"~ ~ ~ ~ U U U ; ; ~ ~ ~ ~ ~ ~ ~ ^ U U ; 8 v p 4 7.7.O , 4 f.6 6 = . & D D A | v s { 2.0 p ; ; ; U 8 h U $.$.$.U U ; ~ $.$.$.~ ~ ",
"~ ~ ~ U U ; U U U ~ ~ $.$.$.$.$.~ ~ U ; y.X.X.# -.O , O -.7., 4 b k ;.u r r x.i.{ { ; ; ; ~ $.$.~ U U $.$.$.$.$.U U ~ $.$.$.$.$.",
"$.~ ~ U ; U U ~ ~ $.$.$.$.$.~ ~ 0 9.0.U } 9.9...;., { O 7.O % , { q l.0.{ : : ; ; ; ; ~ ~ $.~ ~ ~ ~ ~ ~ $.$.$.$.~ U ~ $.$.$.$.$.",
"$.$.$.~ U ~ ~ $.$.$.$.$.$.~ $.$.$.0 l.U 4.l.7 M p p p -.* , m * {  .0 9.{ p ; U U ~ ~ $.$.~ $.$.$.$.$.$.$.$.$.$.~ U ~ $.$.$.$.$.",
"$.$.$.~ U ~ $.$.$.$.$.$.$.$.$.$.$.$.w 9.9.0 [ { c.u.p i 9.{ q 9 p [ 0 9.q p U ~ ~ $.$.$.$.$.$.$.$.$.$.$.$.$.~ ~ U ; U ~ $.$.$.$.",
"$.$.~ ~ U U ~ $.$.$.$.$.$.$.$.$.$.$.~ 0 0 ; ; ; u.p u.9 a.b g.p p p ^ 0 9 m U ~ $.$.$.$.$.$.$.$.$.$.~ U ; ; ; ; ; ; ; ~ ~ ~ ~ $.",
"$.~ U U ; U U ~ $.$.$.$.$.$.$.$.~ U U ; ~ ~ ~ ~ ; ; { q 9.0 9.{ p } p ; ; #.U U $.$.$.$.$.$.$.$.~ U U ; ~ ~ ~ ~ ~ ~ ; ; ; ; ~ ~ ",
"U U ; U U ~ ~ U U ~ $.$.$.$.$.~ ~ U ~ $.~ ~ ~ ~ ~ ~ ; 0 2.9.0 { ; ; ; U U ~ U U U ~ $.$.$.$.$.~ ~ U ~ $.~ ~ ~ ~ $.$.~ ~ ~ ; ; ; ",
"; ; U ~ ~ ~ ~ ~ ~ U ; ~ $.~ U U U ~ $.$.$.$.$.~ $.$.$.$.3.w ; ; U U U ~ ~ ~ ~ ~ ~ U ; ~ $.~ U U U ~ $.$.$.$.$.~ $.$.$.$.$.~ ; ; ",
"U ~ ~ ~ ~ ~ $.$.$.~ ; ; ; ; ; ; ; U $.$.$.$.$.$.$.$.$.$.$.~ ^ = U ~ ~ ~ ~ ~ $.$.$.~ ; ; ; ; ; ; ; U $.$.$.$.$.$.$.$.$.$.$.~ ~ ; ",
"U ~ $.$.$.$.$.$.~ ; ; U U U U ; ; ; ~ $.$.$.$.$.$.$.$.$.~ ~ ~ ~ U ~ $.$.$.$.$.$.~ ; ; U U U U ; ; ; ~ $.$.$.$.$.$.$.$.$.~ ~ ~ ~ ",
"U U ~ $.$.$.~ ; ; ; ~ ~ ~ ~ ~ U U U U ~ $.$.$.$.$.$.$.$.$.$.~ ~ U U ~ $.$.$.~ ; ; ; ~ ~ ~ ~ ~ U U U U ~ $.$.$.$.$.$.$.$.$.$.~ ~ ",
"~ U U U U U U ~ ~ ~ ~ ~ ~ ~ $.~ ~ ~ ; ; ~ ~ $.$.~ ~ ~ $.$.$.$.$.~ U U U U U U ~ ~ ~ ~ ~ ~ ~ $.~ ~ ~ ; ; ~ ~ $.$.~ ~ ~ $.$.$.$.$.",
"~ U ; ; ; ~ ~ ~ ~ $.$.~ $.$.$.$.~ ~ ~ ~ ; ~ ~ ~ $.~ $.$.$.$.$.$.~ U ; ; ; ~ ~ ~ ~ $.$.~ $.$.$.$.~ ~ ~ ~ ; ~ ~ ~ $.~ $.$.$.$.$.$.",
"U U ~ ~ ~ ~ ~ $.$.$.~ ~ $.$.$.$.$.$.$.~ U U ~ $.$.$.$.$.$.$.$.$.U U ~ ~ ~ ~ ~ $.$.$.~ ~ $.$.$.$.$.$.$.~ U U ~ $.$.$.$.$.$.$.$.$.",
"U ~ ~ ~ ~ ~ ~ ~ ~ ~ ~ ~ ~ $.$.$.$.$.$.$.U ; U ~ $.$.$.$.$.$.~ ~ U ~ ~ ~ ~ ~ ~ ~ ~ ~ ~ ~ ~ $.$.$.$.$.$.$.U ; U ~ $.$.$.$.$.$.~ ~ ",
"U ~ ~ ~ ~ ~ $.$.$.$.~ ~ $.$.$.$.$.$.$.$.~ U ; U ~ $.$.$.$.~ U ; U ~ ~ ~ ~ ~ $.$.$.$.~ ~ $.$.$.$.$.$.$.$.~ U ; U ~ $.$.$.$.~ U ; ",
"; ; ~ ~ ~ ~ $.$.$.$.$.$.$.$.$.$.$.$.$.~ U ; ; U U ~ $.~ ~ U ; ; ; ; ~ ~ ~ ~ $.$.$.$.$.$.$.$.$.$.$.$.$.~ U ; ; U U ~ $.~ ~ U ; ; "
};
