/* XPM */
static char *f9ed60b629b349d8d7195de580254df8pVto0xHYZzfGNMwv[] = {
/* columns rows colors chars-per-pixel */
"64 64 195 2 ",
"   c #121212",
".  c #1B1815",
"X  c #13191B",
"o  c #231814",
"O  c #1E211F",
"+  c #283A0B",
"@  c #252314",
"#  c #292419",
"$  c #31291B",
"%  c #393015",
"&  c #211827",
"*  c #162121",
"=  c #1E2120",
"-  c #1F2D30",
";  c #2A2624",
":  c #3A2929",
">  c #383424",
",  c #543F18",
"<  c #692212",
"1  c #772815",
"2  c #742B16",
"3  c #453A20",
"4  c #4A332D",
"5  c #4C342D",
"6  c #473131",
"7  c #4A3431",
"8  c #4F3830",
"9  c #553F35",
"0  c #214F06",
"q  c #2D430A",
"w  c #33450D",
"e  c #245505",
"r  c #3F5E03",
"t  c #276501",
"y  c #2C6301",
"u  c #276800",
"i  c #2B6800",
"p  c #386705",
"a  c #336C00",
"s  c #3B6B02",
"d  c #3C7104",
"f  c #377C05",
"g  c #3C7713",
"h  c #3C572A",
"j  c #4F550F",
"k  c #664C1B",
"l  c #684C1B",
"z  c #65521B",
"x  c #6D501C",
"c  c #486706",
"v  c #446B03",
"b  c #57680E",
"n  c #48750A",
"m  c #537A0C",
"M  c #4D7215",
"N  c #62780E",
"B  c #5D4824",
"V  c #664C22",
"C  c #6C5123",
"Z  c #685226",
"A  c #775A28",
"S  c #714E39",
"D  c #766627",
"F  c #796039",
"G  c #1A3F4D",
"H  c #243F4B",
"J  c #1B4554",
"K  c #1E4855",
"L  c #1C4D5B",
"P  c #27444E",
"I  c #274953",
"U  c #314651",
"Y  c #24525E",
"T  c #265869",
"R  c #494A4A",
"E  c #4B594C",
"W  c #53524C",
"Q  c #4E4954",
"!  c #4F515B",
"~  c #535654",
"^  c #51535D",
"/  c #6A5C51",
"(  c #6B5C5E",
")  c #526450",
"_  c #63605A",
"`  c #535461",
"'  c #5A5D68",
"]  c #407F75",
"[  c #727167",
"{  c #777D7A",
"}  c #802916",
"|  c #843A23",
" . c #835B1F",
".. c #815F28",
"X. c #834C35",
"o. c #89533C",
"O. c #93573B",
"+. c #BC4228",
"@. c #B44732",
"#. c #836E26",
"$. c #85642B",
"%. c #8A662C",
"&. c #8B692D",
"*. c #917E29",
"=. c #896730",
"-. c #8A6A37",
";. c #917A30",
":. c #C9462C",
">. c #C7492D",
",. c #C74E32",
"<. c #CE5233",
"1. c #865542",
"2. c #945D41",
"3. c #826B44",
"4. c #996143",
"5. c #917E4F",
"6. c #A17755",
"7. c #B67B5B",
"8. c #B87E60",
"9. c #368502",
"0. c #3A8406",
"q. c #388802",
"w. c #45860E",
"e. c #42880D",
"r. c #499703",
"t. c #4B9D05",
"y. c #549C0A",
"u. c #5B9D0A",
"i. c #4F8D12",
"p. c #4DA505",
"a. c #4CAB03",
"s. c #54A505",
"d. c #57A509",
"f. c #56A412",
"g. c #71AD12",
"h. c #659023",
"j. c #3D827A",
"k. c #47867C",
"l. c #738C70",
"z. c #8B8225",
"x. c #95842A",
"c. c #958535",
"v. c #A6B634",
"b. c #B2CA2D",
"n. c #B7D32E",
"m. c #AEC83A",
"M. c #B2CC31",
"N. c #B1CD38",
"B. c #98805F",
"V. c #B9A64A",
"C. c #BDAC4C",
"Z. c #989168",
"A. c #BC8564",
"S. c #B2966F",
"D. c #D78444",
"F. c #CC865E",
"G. c #E8914B",
"H. c #D28C62",
"J. c #C9906D",
"K. c #D0936D",
"L. c #C1A479",
"P. c #B2C843",
"I. c #776383",
"U. c #328582",
"Y. c #348D87",
"T. c #38948D",
"R. c #798586",
"E. c #7E8B8A",
"W. c #6DCBD7",
"Q. c #72D0DE",
"!. c #78D8E7",
"~. c #828E8D",
"^. c #8A9693",
"/. c #919C98",
"(. c #A69684",
"). c #9EABA1",
"_. c #A1AEA4",
"`. c #A6B3A7",
"'. c #B1BCAF",
"]. c #B2BEB0",
"[. c #D2B285",
"{. c #E6BE8C",
"}. c #B6C0B2",
"|. c #E4C08D",
" X c #E6C797",
".X c #F4CA94",
"XX c #F7D098",
"oX c #F8D199",
"OX c #CFD2C2",
"+X c #D2D5C5",
"@X c #DEDDCD",
"#X c #E2D7C7",
"$X c #EBE6D6",
"%X c #F4EDDE",
"&X c #F8F0E1",
/* pixels */
"3 / / / / / / 5.5.5.5.5.5.5.5.5. . . ./ / / / / / / / / / / W ~ 3 / / / / / / 5.5.5.5.5.5.5.5.5. . . ./ / / / / / / / / / / 3 3 ",
" . . . . . .3 3 5./  . . . . . . ./ / 3 / /  . . . . . ./ / / / / /  . . . .3 3 / /  . . . . . . ./ / 3 / /  . . . . . ./ / / / ",
" . . . . . . .3 3 3 3 / / / / 3 3 3 3 /  . . . . . . .5.5. . ./  .A c. . . . .3 3 3 3 / / / / 3 3 3 3 /  . . . . . . .5.5. . ./ ",
" . . . . . . ./ / / / 3  . . ./ 3 3 /  . .5.5.5.5. .5.5.5.5. . . .B.5.5. . . ./ / / / 3  . . ./ 3 3 /  . .5.5.5.5. .5.5.5.5. . .",
"5.5.5. . ./ /  . . . ./  . . . . ./ /  .5.5.5.5.5. . .5.5.5.5.5. .5.5.5. ./ /  . . . ./  . . . . ./ /  .5.5.5.5.5. . .5.5.5.5.5.",
"5.5.5. ./  . .5.5.5.5. ./  . . . . ./  . .5.5.5.5.5. . . .5.5.5. .5. . ./  . .5.5.5.5. ./  . . . . ./  . .5.5.5.5.5. . . .5.5.5.",
"5. . . . . . . . .5.5.5. ./ /  . .3 3 / /  .B.5.5.5.5.5.5.5.5. ./  . ./  . . . .5.5.5.5. ./ /  . .3 3 / /  .5.5.5.5.5.5.5.5.5. .",
" . .5.5.5.5.5. . . .5.5.5.3 / / / 3  . . ./ / /  . .5.5.5.5. . ./  ./  .5.5.5. . . .5.5.5.3 / / / 3  . . ./ / /  . .5.5.5.5. . .",
" .5.5.5.5.5.5.5.5. .5.5.5. .3 / / /  . . . . .3 3 / / .. .e.A ( / / n B.5.5.5.5.5. .5.5.5. .3 / / /  . . . . .3 3 / /  . . . . .",
"5.5.5.5.5.5.5.5.5.5. . .5. .3 3  . . . . . . .w. .3 / / 6.N.e.5.x.a t.B.5.5.5.5.5.5. . .5. .3 3  . . . . . . . . .3 / /  . . ./ ",
"5.5.5.5.5.5.5.5. . . .5.5. ./ 3  . . . . . . .a N. .3 h s.p.e.[ x.s.s.5.5.5.5.5. . . .5.5. ./ 3  . . . . . . .5.5. .3 3 / / / / ",
"5.5.5.5.5.5.5.5.5.5.5. . ./ / /  . . . . . .5.5.f. .3 s.s.&.%.x.%.i.;.[ 5.9.p.5.5.5.5. .3 3 / /  . . . . . .5.5.5. .3 3 3 3 / / ",
"/  .5.5.5.5.5.5.5. . . . . . ./ / 3 3  . . . . .e.s.u.e.%.3 3 3 %.u.%.I.0.m.m 5.5. . .3 /  . ./ / 3 3  . . . . ./ 3 /  . . . . .",
" ./ / /  .5.5. .3 / / /  . . . . . . ./ / / / / 3 x.e.3 /  . ./ x.s &.0.m.s./  ./ / / /  . . . . . . ./ / / / / 3 3 3  .5.5.5. .",
" . . . ./ / / 3 3  . . . . . . . . . . .5.5.5. ./ %.l / s w.D _ l l l a s.9./ / / l /  . . . . . . . . .5.5.5./ / 3  .5.5.5. . .",
" . . ./ / 3 / / /  . .5.5.5.5.5. . . .5.5.5.5. ./ s.&./ ..s.w.> l %.%.a p.x.$.l l %./  .5.5.5.5. . . .5.5.5.5.5./ /  .5.5.5.5.5.",
"5. . ./ 3 / /  . .5.5.5.5.5. . . . . . .5.P.../ / s.s./  .B.l.l.{ { { ;.a i s x.%.%./ ..5.5. . . . . . .5.5.5.5. ./  .5.5.5.5.5.",
"5.5.5. ./  . .5.5.5.5.5.5. .5.5.5.5.5.5.5.s.e./ 3.s s.Q I.)._._._.).).l.( C p.%.%.&.l /  . . .5.5.5.5.5.5.5.5.5. ./  .5.5.5.5.5.",
"5.5.5. ./  .5.5.5.5.5.5.5.5.5.5.5.5.5. ./ / f.w.C.V.E l._.+X+XOX+X+X+X_.R.E -.a.a.a u./ /  .s 5.5.5.5.5.5.5. . .3 3 3  .5.5.5.5.",
"5.5. . ./ /  .5.5.5.5.5.5.5.5.5.5.5. ./ A C &.u.x.=.! ).+X/.}.}.].]./.+X).` q j #.D m.#./ m.a m 5.5. ./ 3 3 3 3 3 3 3  . . . .5.",
"5. ./ / 3 / /  .5.5.5.5.5.5.5.5.../ f.=.a v %.s.c W I.`./._.+X+X+X+X_./.`.R.) p.q 6 s.a s.s./ /  ./ / 3  . . . . . .3 3 3 3  . .",
"/ / 3 / /  . ./ /  .5.5.5.5.5. ./ p v.-.N.l C.c c ! E.`.~.OX@X@X@X@X+X~.`.E.` q 6 6 a s.s.v %./ / a  .5. . . . .5.5. . . .3 3 3 ",
"3 3 /  . . . . . ./ 3  .5. ./ / / a s.s s.x.%.7 l ` R.^.).$X@X%X&X@X%X~.^.E.` $.l 5 n s v x.-.&.N.s 5.5.5.5.5. .5.5.5.5.5. .3 3 ",
"/  . . . . .5.5.5. .3 3 3 3 3 / $.a t.s.j x.l 6 6 ! R.' `.%X].%X&X].&X~.' R.` 9.a.y x.x.6 V m s.s./ 5.5.5.5.5.5.5.5.5.5.5. . .3 ",
"/  .5.5.5.5.5.5. .3 3 / / / / V $.k r.l $.x.u @ 6 ! ' ! `.@X^.@X@X^.@X~.` ' ! p.n.n.r k l j s.p.v /  .5.5.5.5.5.5.5.5.5. . . . .",
"/ /  .5.5.5. .3 3 3  . . . ./ l %.l 6 t q 9.q g.q ! S ^ ' ^.~.'.].~./.' ` 6.! M.a.q 9...&.b a a -./ /  .5.5.5.5.5.5.5.5.5.5. . .",
" ./ / / / / /  . . . . . . ./ &.x.6 0.a.u 9.9.n.q O 7.o.1.J.J. X X XJ.8.7.H.= t q @ a.w l %.%.k k / W p  . .5.5. . . .5.5.5.5.5.",
" ./ 3 3 3  . . . .5.5. .5. .a &.l q q n.9.u n.a.9.  ( # X.o.2.H.K.4.O.H.H.(   @ u i q a.l l x &.%.l a N. . . . .5. .5.5.5.5.5.5.",
"/ /  . . . . .5.5.5. . .5. .s.s.s %.l i n.9.g.9.9.  = R S #X; F.H.o #X2.( ;   + 9.a.u q x l n N.l %.s.s. . . .5.5.5.5.5.5.5.5.5.",
"/  . . . . . . . . . . . .5.d N.s.x.%.q a.9.a.9.a.e e * o $Xo {.H.. $XO.1.p + q u a.%.k q l M s.-.x s.d / 3  . .5.5.5.5.5.5. . .",
"/  . . . . .5.5.5.5. . .5./ A a d.%.%.i q a.9.u u q.u 2 o H.[.oX.X7.K.O.2 f a.q 9.t n.a.9.&.&.a a s.v &./ /  . . .5.5.5.5. ./ 3 ",
"3 3  . . . .5.5.5.5.Z./ / %.l j s.z a.t 9.u q 6 q.a.2 +.| O.H.oXoXH.2.| +.2 y.i s.i i b.p.l %.k a u.l %.%.3 3 / /  .5. . ./ 3 3 ",
"3 / / / / / /  .B.M a (.3 a.l l x.V h.0.0.M.a.0.i 0.< :.+.2 $ O.2.$ 1 +.:.1 e p.n.q 9.u q 9.q 6 6 B x a.a.s &./ / / / / / / / / ",
" . . . . . .3 3 / n N.a %.i w.x.k Z p.9.i a.a.n.0.I ] 2 1 o 2 ,.<.} o 2 1 ] I M.9.q 9.a.u 9.9.q 6 k p.&.x.x.x./  . . .x / / / / ",
" . . . . . . .3 3 3 a s.M k t %.6 6 7 B 9.u k 9.a.X W.k.P   P U U P X H j.W.O t.i q q a.9.u a.n.q i t x.x.W / /  . . .B.c. . ./ ",
" . . . . . . ./ / / 3 a s.C.l % 9.p.9.6 M 9.x.z @   Q.T.L G X J K X G J Y.!.X f i a.q t a.6 n.9.# C l %.R /  .5.B.A ;.B.B.B. . .",
"5.5.5. . ./ /  .A  ./ 3 s.x.x.B 9 6 a.a.q.a.q @ k   T L A.L.L.X X S.[.A.Y T   q q.a.0.@ 6 q.a.@ $.s.$.l 3  . .5.B. .x B.;.B.;.B.",
"5.5.5. ./  . .5.B.;. ./ 3 %.x.$.c.6 @ a.a.t q a.@ , X K {.XXoX    {.XX.XK X + @ @ n.a.@ @ q.5 %.$.a s.k 3  .5.5.c.c. . . .B.;.B.",
"5. . . .A  . . . .c.B./ / 3 %.a s.s i @ r.t a.9.a.t + X {.XXXXP G {.XXXXX f t @ 6 @ n.t 6 @ C l x.$.s.6 /  .5.5.B.5.c.[ B.;.B.x ",
" . .5.5.5.c.B. . . .B.x / / 3 N.a k 6 f @ q n.q 9.a.t < 2 ,.,.@.J X 2 2   f t q 6 6 q a.@ 9 l c.x.%.a 3 3 / / /  .A B.;.B.B. .D ",
" .5.5.5.5.5.5.5.5. .5.5. ./ s.s.a %.l @ a.w g.q q a.q . D.G.:.:..   < 2   + 9.9.@ 4 $ 9.6 c.x.u.$.z l 3  . . .3 3 / /  . . . . .",
"5.5.5.5.5.5.5.5.5.5. . .5./ s.v %.l l l @ a.q @ t 9.u   G.<.:.}     H H G   f a.@ 4 6 9.-.F c N.$.k B /  . . . . .3 / /  . . ./ ",
"5.5.5.5.5.5.5.5. . . .5.5.3 s.$.s.p.a v.6 t t 9.a.q a.  >.>.:.2     G U.U.K   @ 9.V d.%.v F 9 a.9.R  . . . . .5.5. .3 3 / / / / ",
"5.5.5.5.5.5.5.5.5.5.5. . .3 3 p.3 3 l s.u.l 9.n.@ 9.a.J k.k.k..     X * * X   6 5 a v.-.m.k x.7 a.9. . . . .5.5.5. .3 3 3 3 / / ",
"/  .5.5.5.5.5.5.5. . . ./ / a i / 3 $.a u.6 p.i @ a.I j.W.!.T.. : 0 0 : D : C 9 %.a s.a p.x.l V *.a./ A  . . . ./ 3 /  . . . . .",
" ./ / /  .5.5. .3 / / / /  . . ./ / 3 i u.C 6 @ t I U.Q.!.!.T.X 6 *.$.V %.*.a.a.s a t.s.&.l x.x.$.a.m / / / / / 3 3 3  .5.5.5. .",
" . . . ./ / / 3 3  . . . . . . .../ / 3 p Z l q a.K L T T - * 0 , p k l x.a.*.V l %.t.a l 3 3 3 / s b / 5.5.5./ / 3  .5.5.5. . .",
" . . ./ / 3 / / /  . .5.5.5.5.5. . ./ 3 z.-.-.$ 9.> 5 ; g 0.: + B s.s.v t i C.c.%.%.3 3 3  .5.5. ./ / 5.5.5.5.5./ /  .5.5.5.5.5.",
"5. . ./ 3 / /  . .5.5.5.5.5. . .a s.d./ %.d.s.=.0.6 $.@ a.@ & 6 %.s N.d.%.5 5 3 3 3 3  . .5. . . . . . .5.5.5.5. ./  .5.5.5.5.5.",
"5.5.5. ./  . .5.5.5.5.5.5. .5.5.5.a N./ u.N.a Z l k l 0.> 6 C ; %.x.a s.%.l 3 / /  . .5.5. .5.5.5.5.5.5.5.5.5.5. ./  .5.5.5.5.5.",
"5.5.5. ./  .5.5.5.5.5.5.5.5.5.5.5.5.s s.s.a $.%.C.x.l k d.%.a p l $.a s.c l /  . .5.5.5.5.5.5.5.5.5.5.5.5.5. . ./ 3 /  .5.5.5.5.",
"5.5. . ./ /  .5.5.5.5.5.5.5.5.5.5.5...a a 3 3 3 x.l x.s v.l m.l l l A a s k / ..5.5.5.5.5.5.5.5.5.5. ./ 3 3 3 3 3 3 3  . . . .5.",
"5. ./ / 3 / /  .5.5.5.5.5.5.5.5. ./ / 3  . . . .3 3 $.s s.a y.%.l %.l 3 3 -./ / 5.5.5.5.5.5.5.5. ./ / 3  . . . . . .3 3 3 3  . .",
"/ / 3 / /  . ./ /  .5.5.5.5.5. . ./  .5. . . . . . .3 p t.s.s %.3 3 3 / /  ./ / /  .5.5.5.5.5. . ./  .5. . . . .5.5. . . .3 3 3 ",
"3 3 /  . . . . . ./ 3  .5. ./ / /  .5.5.5.5.5. .5.5.5.5.y.s 3 3 / / /  . . . . . ./ 3  .5. ./ / /  .5.5.5.5.5. .5.5.5.5.5. .3 3 ",
"/  . . . . .5.5.5. .3 3 3 3 3 3 3 / 5.5.5.5.5.5.5.5.5.5.5. .$.3 /  . . . . .5.5.5. .3 3 3 3 3 3 3 / 5.5.5.5.5.5.5.5.5.5.5. . .3 ",
"/  .5.5.5.5.5.5. .3 3 / / / / 3 3 3  .5.5.5.5.5.5.5.5.5. . . . ./  .5.5.5.5.5.5. .3 3 / / / / 3 3 3  .5.5.5.5.5.5.5.5.5. . . . .",
"/ /  .5.5.5. .3 3 3  . . . . ./ / / /  .5.5.5.5.5.5.5.5.5.5. . ./ /  .5.5.5. .3 3 3  . . . . ./ / / /  .5.5.5.5.5.5.5.5.5.5. . .",
" ./ / / / / /  . . . . . . .5. . . .3 3  . .5.5. . . .5.5.5.5.5. ./ / / / / /  . . . . . . .5. . . .3 3  . .5.5. . . .5.5.5.5.5.",
" ./ 3 3 3  . . . .5.5. .5.5.5.5. . . . .3  . . .5. .5.5.5.5.5.5. ./ 3 3 3  . . . .5.5. .5.5.5.5. . . . .3  . . .5. .5.5.5.5.5.5.",
"/ /  . . . . .5.5.5. . .5.5.5.5.5.5.5. ./ /  .5.5.5.5.5.5.5.5.5./ /  . . . . .5.5.5. . .5.5.5.5.5.5.5. ./ /  .5.5.5.5.5.5.5.5.5.",
"/  . . . . . . . . . . . .5.5.5.5.5.5.5./ 3 /  .5.5.5.5.5.5. . ./  . . . . . . . . . . . .5.5.5.5.5.5.5./ 3 /  .5.5.5.5.5.5. . .",
"/  . . . . .5.5.5.5. . .5.5.5.5.5.5.5.5. ./ 3 /  .5.5.5.5. ./ 3 /  . . . . .5.5.5.5. . .5.5.5.5.5.5.5.5. ./ 3 /  .5.5.5.5. ./ 3 ",
"3 3  . . . .5.5.5.5.5.5.5.5.5.5.5.5.5. ./ 3 3 / /  .5. . ./ 3 3 3 3  . . . .5.5.5.5.5.5.5.5.5.5.5.5.5. ./ 3 3 / /  .5. . ./ 3 3 "
};
