/* XPM */
static char *result[] = {
/* columns rows colors chars-per-pixel */
"64 64 186 2 ",
"   c #131312",
".  c #151817",
"X  c #191818",
"o  c #231B14",
"O  c #283A0D",
"+  c #252314",
"@  c #292516",
"#  c #312C1A",
"$  c #393015",
"%  c #211827",
"&  c #162221",
"*  c #1E2A2C",
"=  c #222523",
"-  c #29202C",
";  c #3B2F27",
":  c #622313",
">  c #692617",
",  c #742714",
"<  c #7D3119",
"1  c #453A20",
"2  c #4A332D",
"3  c #4D352D",
"4  c #473131",
"5  c #4B3431",
"6  c #4F3830",
"7  c #543F36",
"8  c #6B3221",
"9  c #214F06",
"0  c #2D430A",
"q  c #33440E",
"w  c #255404",
"e  c #3A5804",
"r  c #334610",
"t  c #276601",
"y  c #276800",
"u  c #2C6902",
"i  c #386604",
"p  c #336C00",
"a  c #3B6B02",
"s  c #397404",
"d  c #316813",
"f  c #52580E",
"g  c #664B1B",
"h  c #684C1B",
"j  c #6D501C",
"k  c #496707",
"l  c #446B03",
"z  c #48750A",
"x  c #54750E",
"c  c #4D7215",
"v  c #62780E",
"b  c #5D4924",
"n  c #5A4033",
"m  c #664C22",
"M  c #6C5223",
"N  c #6F5428",
"B  c #795B2A",
"V  c #7B4831",
"C  c #7C503E",
"Z  c #776429",
"A  c #796039",
"S  c #1A3E4C",
"D  c #243F4B",
"F  c #1B414B",
"G  c #1B4555",
"H  c #1D4D5C",
"J  c #1E515E",
"K  c #2B434E",
"L  c #234F5B",
"P  c #344751",
"I  c #265868",
"U  c #2F7D77",
"Y  c #4D4C4B",
"T  c #52534B",
"R  c #575458",
"E  c #655A54",
"W  c #6A5C51",
"Q  c #656A5A",
"!  c #555562",
"~  c #5C5C66",
"^  c #5D606A",
"/  c #777769",
"(  c #835B1F",
")  c #815D26",
"_  c #894F35",
"`  c #895238",
"'  c #94583C",
"]  c #BB4229",
"[  c #AF4530",
"{  c #B64C35",
"}  c #85642B",
"|  c #8A662C",
" . c #886A2B",
".. c #8A7928",
"X. c #896730",
"o. c #8A6A37",
"O. c #C9462C",
"+. c #C6482D",
"@. c #CC5232",
"#. c #8D5D47",
"$. c #9A6244",
"%. c #917E4F",
"&. c #B97B57",
"*. c #C05C46",
"=. c #368502",
"-. c #3A8405",
";. c #388802",
":. c #44860B",
">. c #42880D",
",. c #469905",
"<. c #4C9C05",
"1. c #549C0B",
"2. c #5B9D0A",
"3. c #539214",
"4. c #4BA505",
"5. c #4CAB03",
"6. c #54A505",
"7. c #57A50A",
"8. c #56A412",
"9. c #71AD12",
"0. c #659023",
"q. c #3C8077",
"w. c #31827D",
"e. c #45877D",
"r. c #778872",
"t. c #8B8225",
"y. c #96852A",
"u. c #958535",
"i. c #9AB432",
"p. c #A6B634",
"a. c #ADC72E",
"s. c #B2C82D",
"d. c #B7D32E",
"f. c #AEC838",
"g. c #B3CD32",
"h. c #B1CD38",
"j. c #98805F",
"k. c #B9A64A",
"l. c #BDAC4C",
"z. c #989168",
"x. c #818778",
"c. c #D38647",
"v. c #CA845D",
"b. c #E78A49",
"n. c #EC954D",
"m. c #F0994F",
"M. c #C88D68",
"N. c #D28C63",
"B. c #D6946A",
"V. c #E1A163",
"C. c #B2C843",
"Z. c #318582",
"A. c #348B85",
"S. c #359189",
"D. c #38948D",
"F. c #3D9893",
"G. c #4D9282",
"H. c #7A8586",
"J. c #6DCDD9",
"K. c #70D0DD",
"L. c #78D7E6",
"P. c #83908E",
"I. c #879491",
"U. c #8F9A97",
"Y. c #A69684",
"T. c #9EABA1",
"R. c #A2AFA4",
"E. c #A5B3A7",
"W. c #ACB8AB",
"Q. c #B2BEB0",
"!. c #DBBD93",
"~. c #B9C0B3",
"^. c #DFC396",
"/. c #F0C48F",
"(. c #E5C99A",
"). c #F5CC95",
"_. c #F8D199",
"`. c #C7CABD",
"'. c #CACDBF",
"]. c #84CAD1",
"[. c #85CBD2",
"{. c #D2D5C5",
"}. c #DCDCCB",
"|. c #E1DACA",
" X c #E9E6D5",
".X c #F3ECDD",
/* pixels */
"1 W W W W W W %.%.%.%.%.%.%.%.%.( ( ( W W W W W W W W W W W T R 1 W W W W W W %.%.%.%.%.%.%.%.%.( ( ( W W W W W W W W W W W 1 1 ",
"( ( ( ( ( ( 1 1 %.W ( ( ( ( ( ( ( W W 1 W W ( ( ( ( ( ( W W W W W W ( ( ( ( 1 1 W W ( ( ( ( ( ( ( W W 1 W W ( ( ( ( ( ( W W W W ",
"( ( ( ( ( ( ( 1 1 1 1 W W W W 1 1 1 1 W ( ( ( ( ( ( ( %.%.( ( W ( ( %.( ( ( ( 1 1 1 1 W W W W 1 1 1 1 W ( ( ( ( ( ( ( %.%.( ( W ",
"( ( ( ( ( ( ( W W W W 1 ( ( ( W 1 1 W ( ( %.%.%.%.( %.%.%.%.( ( ( %.%.%.( ( ( W W W W 1 ( ( ( W 1 1 W ( ( %.%.%.%.( %.%.%.%.( ( ",
"%.%.%.( ( W W ( ( ( ( W ( ( ( ( ( W W ( %.%.%.%.%.( ( %.%.%.%.%.( %.%.%.( W W ( ( ( ( W ( ( ( ( ( W W ( %.%.%.%.%.( ( %.%.%.%.%.",
"%.%.%.( W ( ( %.%.%.%.( W ( ( ( ( ( W ( ( %.%.%.%.%.( ( ( %.%.%.( %.( ( W ( ( %.%.%.%.( W ( ( ( ( ( W ( ( %.%.%.%.%.( ( ( %.%.%.",
"%.( ( ( ( ( ( ( ( %.%.%.( W W ( ( 1 1 W W ( %.%.%.%.%.%.%.%.%.( W ( ( W ( ( ( ( %.%.%.%.( W W ( ( 1 1 W W ( %.%.%.%.%.%.%.%.%.( ",
"( ( %.%.%.%.%.( ( ( %.%.%.1 W W W 1 ( ( ( W W W ( ( %.%.%.%.( ( W ( W ( %.%.%.( ( ( %.%.%.1 W W W 1 ( ( ( W W W ( ( %.%.%.%.( ( ",
"( %.%.%.%.%.%.%.%.( %.%.%.( 1 W W W ( ( ( ( ( 1 1 W E ) ) >.) W W W :.%.%.%.%.%.%.B %.%.%.( 1 W W W ( ( ( ( ( 1 1 W W ( ( ( ( ( ",
"%.%.%.%.%.%.%.%.%.%.( ( %.( 1 1 ( ( ( ( ( ( ) >.) 1 W E j.h.>./ y.p 3.%.%.%.%.%.%.%.( ( %.( 1 1 ( ( ( ( ( ( ( ( ( 1 W W ( ( ( W ",
"%.%.%.%.%.%.%.%.( ( ( %.%.( W 1 ( ( ( ( ( ( ( a g.) 1 f 6.6.-./ y.7.7.%.%.%...j.( ( ( %.%.( W 1 ( ( ( ( ( ( ( %.%.( 1 1 W W W W ",
"%.%.%.%.%.%.%.%.%.%.%.( ( W W W ( ( ( ( ( ( %.%.8.( 1 7.6.| r.r.x.r.x.H.j.=.5.j.%.%.%.( 1 1 W W ( ( ( ( ( ( %.%.%.( 1 1 1 1 W W ",
"W ( %.%.%.%.%.%.%.( ( ( ( ( ( W W 1 1 ( ( ( ( ( >.6.2.>.R / T.{.'.'.{.T.r.Q x j.%.( ( 1 W ( ( W W 1 1 ( ( ( ( ( W 1 W ( ( ( ( ( ",
"( W W W ( %.%.( 1 W W W ( ( ( ( ( ( ( W W W W W 1 y.>.Y H.R.H.~.Q.Q.Q.I.T.H.R ) W W W W ( ( ( ( ( ( ( W W W W W 1 1 1 ( %.%.%.( ",
"( ( ( ( W W W 1 1 ( ( ( ( ( ( ( ( ( ( ( %.%.%.( W | h ! R.I.T.{.{.{.{.E.P.`.! W W h W ( ( ( ( ( ( ( ( ( %.%.%.W W 1 ( %.%.%.( ( ",
"( ( ( W W 1 W W W ( ( %.%.%.%.%.( ( ( %.%.%.%.( W <.E ! H.T.{.}..X.X|.{.T.U.~.R h  .W ( %.%.%.%.( ( ( %.%.%.%.%.W W ( %.%.%.%.%.",
"%.( ( W 1 W W ( ( %.%.%.%.%.( ( ( ( ( ( %.C.) W W 6.3.E H.W. X~..X.X~..XW.P.{.~ | X.W ( %.%.( ( ( ( ( ( %.%.%.%.( W ( %.%.%.%.%.",
"%.%.%.( W ( ( %.%.%.%.%.%.( %.%.%.%.%.%.%.6.>.W o.a 7.5 ^ E. XW.}. XW.}.W.^ W.! | | h W ( ( ( %.%.%.%.%.%.%.%.%.( W ( %.%.%.%.%.",
"%.%.%.( W ( %.%.%.%.%.%.%.%.%.%.%.%.%.( W W 8.:.k.k.    R H.U.I.Q.Q.I.U.I.= E.! 6.p 7.W W ( s j.%.%.%.%.%.%.( ( 1 1 1 ( %.%.%.%.",
"%.%.( ( W W ( %.%.%.%.%.%.%.%.%.%.%.( W N N | 2.y.)     C !.^.^.(.(.^.^.M.  H.!  .Z g.Z W f.p x %.%.( W 1 1 1 1 1 1 1 ( ( ( ( %.",
"%.( W W 1 W W ( %.%.%.%.%.%.%.%.) W 8.X.s l | 6.k       _ B.)._._._._.B.N.  H.R 0 4 4.p 6.6.W W ( W W 1 ( ( ( ( ( ( 1 1 1 1 ( ( ",
"W W 1 W W ( ( W W ( %.%.%.%.%.( W i p.o.g.h l.k k   S   V v.$.$._._.$.#.v.. H.= 4 4 p 6.6.l | W W p ( %.( ( ( ( %.%.( ( ( 1 1 1 ",
"1 1 W ( ( ( ( ( ( W 1 ( %.( W W W p 6.i 6.y.| 5 g   G S   _ |.o N.B.@ |.N.V ~   h 3 z s l y.X.| g.p %.%.%.%.%.( %.%.%.%.%.( 1 1 ",
"W ( ( ( ( ( %.%.%.( 1 1 1 1 1 W } p <.6.f y.h 4 4 S G Z.U X #.&././.&.B.' _     ,.w y.y.2 b x 6.6.W %.%.%.%.%.%.%.%.%.%.%.( ( 1 ",
"W ( %.%.%.%.%.%.( 1 1 W W W W m } g <.h } y.y + 4 G Z.J.K.w.X ` N._.N.N._   D U . a.e h h f 6.6.l W ( %.%.%.%.%.%.%.%.%.( ( ( ( ",
"W W ( %.%.%.( 1 1 1 ( ( ( ( W h | h 4 t 0 =.0 9.0 G S.L.L.D.: X &.B.N.' _   U A.. O ;.} | k p s X.W W ( %.%.%.%.%.%.%.%.%.%.( ( ",
"( W W W W W W ( ( ( ( ( ( ( W | y.4 =.5.y =.=.d.0 d L F.F.J.,   X _ ' _   > A.J O + 5.q h | | h g W T i ( ( %.%.( ( ( %.%.%.%.%.",
"( W 1 1 1 ( ( ( ( %.%.( %.( p | h 0 0 d.=.y d.5.=.d.3.& H L.{ :         : ] L = y y 0 5.h h M | | g a h.( ( ( ( %.( %.%.%.%.%.%.",
"W W ( ( ( ( ( %.%.%.( ( %.( 6.6.a | h y d.=.9.=.=.5.=.9 . I P ] c.c.c.c.+.P @ O =.5.y 0 j j z h.m | 6.6.( ( ( %.%.%.%.%.%.%.%.%.",
"W ( ( ( ( ( ( ( ( ( ( ( ( %.s h.6.y.| 0 5.=.5.=.5.y y =.  G Z.L @.n.n.@.P G 0 0 y 5.| h 0 h c 6.o.j 6.l W 1 ( ( %.%.%.%.%.%.( ( ",
"W ( ( ( ( ( %.%.%.%.( ( %.W B p 7.| | y 0 5.=.t y =.y 5.y G S.Z.e.G.G.G.H d 5.0 =.y d.5.=.| | p p 7.l  .W W ( ( ( %.%.%.%.( W 1 ",
"1 1 ( ( ( ( %.%.%.%.z.W W | h f 6.h 5.y =.y 0 5 =.5.y =.+ . A.S.J.J.K.S.& <.6.u 6.u y s.4.h | h p 1.j  .| 1 1 W W ( %.( ( W 1 1 ",
"1 W W W W W W ( j.c p Y.1 5.h j u.m 0.-.-.g.5.-.u -.r d.=.: 8 { L.L.L.F.> <.t 5.d.0 =.y 0 =.0 4 4 b j 5.5.p | W W W W W W W W W ",
"( ( ( ( ( ( 1 1 W z h.p | y :.y.h m 4.=.y 5.5.d.=.y 0 y d.S q.].B.V.*.8 X a.=.d.=.0 =.5.y =.=.0 4 h <. .y.y.y.W ( ( ( ( W W W W ",
"( ( ( ( ( ( ( 1 1 1 p 6.z h u | 4 4 3 b =.y h =.5.=.=.0 F G J F.[.[.[.S.. u y 5.y 0 0 5.=.y 5.d.0 y u y.y.T W W ( ( ( %.%.( ( W ",
"( ( ( ( ( ( ( W W W 1 p 6.l.j $ =.5.=.4 c =.y.j + =.5.y > [ > L I G.F.F.G 4.u =.t 5.0 t 5.4 d.=.@ N h | Y W ( %.%.( %.%.%.%.( ( ",
"%.%.%.( ( W W ( ( ( W 1 6.y.y.6 7 4 5.5.;.5.0 + g + =., ] b.+.> G J J L G 0 t 0 =.5.=.+ 5 =.5.+ } 6.} h 1 ( ( %.%.( ( %.%.%.%.%.",
"%.%.%.( W ( ( %.%.%.( W 1 | y.} u.4 + 5.5.y 0 5.+ g 0 , b.m.+.] X : [ X i.=.0 + + d.5.+ + =.2 | | p 6.g 1 ( %.%.%.%.( ( ( %.%.%.",
"%.( ( ( ( ( ( ( ( %.%.W W 1 | p 6.l w @ ,.y 5.=.5.y 0 , n.m.O.O.> ] O.: a.5.t + 4 + d.y 4 + N h y.} 6.4 W ( %.%.%.%.%.%.%.%.%.( ",
"( ( %.%.%.%.%.( ( ( %.( W W 1 g.p h 2 =.@ 0 d.0 =.5.y   < @.O.P > O.O., <.=.y 0 5 5 0 5.+ 7 h u.y.| p 1 1 W W W ( ( %.%.%.%.( ( ",
"( %.%.%.%.%.%.%.%.( %.%.( W 6.6.p | h + 5.0 9.0 0 5.0 O   P K Z.o +.O.o s 0 =.=.+ 4 # ;.5 u.y.2.} m j 1 ( ( ( 1 1 W W ( ( ( ( ( ",
"%.%.%.%.%.%.%.%.%.%.( ( %.W 6.l } h h h + 5.0 + y =.y =.  w.A.S.  , ,   s 0 =.5.+ 4 2 =.o.A l h.| h 1 W ( ( ( ( ( 1 W W ( ( ( W ",
"%.%.%.%.%.%.%.%.( ( ( %.%.1 7.| 6.4.p p.5 y y =.5.0 5.y   A.S.&   D D S 0 =.2 + =.m 7. .k A 6 5.=.Y ( ( ( ( ( %.%.( 1 1 W W W W ",
"%.%.%.%.%.%.%.%.%.%.%.( ( 1 1 4.1 1 j 6.2.h =.d.+ =.5.=.  . & 9   w.Z.Z.. 4 5 2 3 u p.o.f.h y.5 5.=.( ( ( ( %.%.%.( 1 1 1 1 W W ",
"W ( %.%.%.%.%.%.%.( ( ( W W p y W 1 } p 2.5 6.t + 5.d.y + X u 5.  Z.J.S.G 5 | n  .p 6.p 6.y.h m ..5.W ( ( ( ( ( W 1 W ( ( ( ( ( ",
"( W W W ( %.%.( 1 W W W W ( ) ( W W 1 p 2.M 4 + y d.5.+ + 5.t =.4 & D.J.A.. 4.5.p a <.6. .h y.y.} 5.v W W W W W 1 1 1 ( %.%.%.( ",
"( ( ( ( W W W 1 1 ( ( ( ( ( ( ( ) W W 1 i b g 0 5.5.+ 2 0 d.y y 8 w & * &    .b h | <.p h 1 1 1 W i x W %.%.%.W W 1 ( %.%.%.( ( ",
"( ( ( W W 1 W W W ( ( %.%.%.%.%.( ( W 1 t.o.o.# =.+ 4 + =.5.4 0 b 4.:.e 9 w l.u.| | 1 1 1 ) %.%.( W W %.%.%.%.%.W W ( %.%.%.%.%.",
"%.( ( W 1 W W ( ( %.%.%.%.%.( ( p 6.7.W | 7.6.X.-.4 | + 5.+ % 2 | a h.7.| 2 3 1 1 1 1 ( ( %.( ( ( ( ( ( %.%.%.%.( W ( %.%.%.%.%.",
"%.%.%.( W ( ( %.%.%.%.%.%.( %.%.%.p h.W 2.h.p M g h g -.; 4 M - | y.p 6.| h 1 W W ( ( %.%.( %.%.%.%.%.%.%.%.%.%.( W ( %.%.%.%.%.",
"%.%.%.( W ( %.%.%.%.%.%.%.%.%.%.%.%.s 6.6.p } | l.y.h g 7.X.a i h } p 6.a j W ( ( %.%.%.%.%.%.%.%.%.%.%.%.%.( ( W 1 W ( %.%.%.%.",
"%.%.( ( W W ( %.%.%.%.%.%.%.%.%.%.%.( p p 1 1 1 y.h y.i p.h f.h h h B p i M W ( %.%.%.%.%.%.%.%.%.%.( W 1 1 1 1 1 1 1 ( ( ( ( %.",
"%.( W W 1 W W ( %.%.%.%.%.%.%.%.( W W 1 ( ( ( ( 1 1 | a 6.p 6.| h | h 1 1 #.W W %.%.%.%.%.%.%.%.( W W 1 ( ( ( ( ( ( 1 1 1 1 ( ( ",
"W W 1 W W ( ( W W ( %.%.%.%.%.( ( W ( %.( ( ( ( ( ( 1 p <.6.p | 1 1 1 W W ( W W W ( %.%.%.%.%.( ( W ( %.( ( ( ( %.%.( ( ( 1 1 1 ",
"1 1 W ( ( ( ( ( ( W 1 ( %.( W W W ( %.%.%.%.%.( %.%.%.%.1.l 1 1 W W W ( ( ( ( ( ( W 1 ( %.( W W W ( %.%.%.%.%.( %.%.%.%.%.( 1 1 ",
"W ( ( ( ( ( %.%.%.( 1 1 1 1 1 1 1 W %.%.%.%.%.%.%.%.%.%.%.( ) 1 W ( ( ( ( ( %.%.%.( 1 1 1 1 1 1 1 W %.%.%.%.%.%.%.%.%.%.%.( ( 1 ",
"W ( %.%.%.%.%.%.( 1 1 W W W W 1 1 1 ( %.%.%.%.%.%.%.%.%.( ( ( ( W ( %.%.%.%.%.%.( 1 1 W W W W 1 1 1 ( %.%.%.%.%.%.%.%.%.( ( ( ( ",
"W W ( %.%.%.( 1 1 1 ( ( ( ( ( W W W W ( %.%.%.%.%.%.%.%.%.%.( ( W W ( %.%.%.( 1 1 1 ( ( ( ( ( W W W W ( %.%.%.%.%.%.%.%.%.%.( ( ",
"( W W W W W W ( ( ( ( ( ( ( %.( ( ( 1 1 ( ( %.%.( ( ( %.%.%.%.%.( W W W W W W ( ( ( ( ( ( ( %.( ( ( 1 1 ( ( %.%.( ( ( %.%.%.%.%.",
"( W 1 1 1 ( ( ( ( %.%.( %.%.%.%.( ( ( ( 1 ( ( ( %.( %.%.%.%.%.%.( W 1 1 1 ( ( ( ( %.%.( %.%.%.%.( ( ( ( 1 ( ( ( %.( %.%.%.%.%.%.",
"W W ( ( ( ( ( %.%.%.( ( %.%.%.%.%.%.%.( W W ( %.%.%.%.%.%.%.%.%.W W ( ( ( ( ( %.%.%.( ( %.%.%.%.%.%.%.( W W ( %.%.%.%.%.%.%.%.%.",
"W ( ( ( ( ( ( ( ( ( ( ( ( %.%.%.%.%.%.%.W 1 W ( %.%.%.%.%.%.( ( W ( ( ( ( ( ( ( ( ( ( ( ( %.%.%.%.%.%.%.W 1 W ( %.%.%.%.%.%.( ( ",
"W ( ( ( ( ( %.%.%.%.( ( %.%.%.%.%.%.%.%.( W 1 W ( %.%.%.%.( W 1 W ( ( ( ( ( %.%.%.%.( ( %.%.%.%.%.%.%.%.( W 1 W ( %.%.%.%.( W 1 ",
"1 1 ( ( ( ( %.%.%.%.%.%.%.%.%.%.%.%.%.( W 1 1 W W ( %.( ( W 1 1 1 1 ( ( ( ( %.%.%.%.%.%.%.%.%.%.%.%.%.( W 1 1 W W ( %.( ( W 1 1 "
};
