/* XPM */
static char *_c8c6b1bf1ee4dd9f87189d58534c1261aR0F88uLq8md2qn[] = {
/* columns rows colors chars-per-pixel */
"64 64 128 2 ",
"   c #1F1E1E",
".  c #211F1F",
"X  c #30281F",
"o  c #211F20",
"O  c #252223",
"+  c #292626",
"@  c #2D2925",
"#  c #2A2728",
"$  c #2D2A2A",
"%  c #342D24",
"&  c #3A2E21",
"*  c #322E2C",
"=  c #3B3222",
"-  c #35312D",
";  c #3A342C",
":  c #3E382E",
">  c #363231",
",  c #3A3634",
"<  c #3D3936",
"1  c #3E3A39",
"2  c #45391F",
"3  c #413721",
"4  c #453A20",
"5  c #493B24",
"6  c #41372B",
"7  c #433B2D",
"8  c #4A3F2C",
"9  c #533E20",
"0  c #423B34",
"q  c #423D3B",
"w  c #6A4B1F",
"e  c #73511F",
"r  c #7C571F",
"t  c #4B6C1A",
"y  c #4B412C",
"u  c #414E2D",
"i  c #564124",
"p  c #4B4232",
"a  c #46413D",
"s  c #4B433D",
"d  c #544B36",
"f  c #5A4A36",
"g  c #51473C",
"h  c #544C3C",
"j  c #5B4D3B",
"k  c #4E5B39",
"l  c #5D533C",
"z  c #604520",
"x  c #654A21",
"c  c #6C4D21",
"v  c #6E5023",
"b  c #6D542E",
"n  c #745323",
"m  c #7B5620",
"M  c #7E5A24",
"N  c #76592D",
"B  c #7D5B2A",
"V  c #63553C",
"C  c #64583C",
"Z  c #6B5C3E",
"A  c #705735",
"S  c #755A33",
"D  c #795E37",
"F  c #725B3A",
"G  c #506834",
"H  c #474342",
"J  c #4B4542",
"K  c #4E4945",
"L  c #4E4A48",
"P  c #514B46",
"I  c #584E45",
"U  c #544E4A",
"Y  c #584F4A",
"T  c #5B5145",
"R  c #56514C",
"E  c #5A534D",
"W  c #545553",
"Q  c #5C5651",
"!  c #5F5854",
"~  c #5E5958",
"^  c #645644",
"/  c #665A44",
"(  c #62564C",
")  c #645A4E",
"_  c #6D5D4A",
"`  c #755D40",
"'  c #605751",
"]  c #625B55",
"[  c #6A5C51",
"{  c #645E59",
"}  c #685F59",
"|  c #5B604A",
" . c #6D6143",
".. c #6A6F41",
"X. c #6D624F",
"o. c #726443",
"O. c #7B6B46",
"+. c #73644C",
"@. c #77694E",
"#. c #7D6D4B",
"$. c #6B6155",
"%. c #66605C",
"&. c #6B625C",
"*. c #726651",
"=. c #756956",
"-. c #7B6D55",
";. c #71665D",
":. c #74695D",
">. c #7D7056",
",. c #6C6561",
"<. c #6F6863",
"1. c #706760",
"2. c #726A64",
"3. c #756E69",
"4. c #77706C",
"5. c #79716E",
"6. c #7D7571",
"7. c #835B1F",
"8. c #815B22",
"9. c #815D29",
"0. c #84734C",
"q. c #89774D",
"w. c #8C7A4E",
"e. c #917E4F",
"r. c #837351",
"t. c #887752",
"y. c #8D7B51",
"u. c #917E50",
/* pixels */
"4 [ [ [ [ [ [ e.e.e.e.e.e.e.e.e.7.7.7.[ [ [ [ [ [ [ [ [ [ [ W W 4 [ [ [ [ [ [ e.e.e.e.e.e.e.e.e.7.7.7.[ [ [ [ [ [ [ [ [ [ [ 2 2 ",
"7.7.7.7.7.7.4 2 e.[ 7.7.7.7.7.7.7.[ [ 4 [ [ 7.7.7.7.7.7.[ [ [ [ [ [ 7.7.7.7.4 4 [ [ 7.7.7.7.7.7.7.[ [ 2 [ [ 7.7.7.7.7.7.[ [ [ [ ",
"7.7.7.7.7.7.7.4 4 4 4 [ [ [ [ 4 4 4 4 [ 7.7.7.7.7.7.7.e.e.7.7.[ 8.7.e.7.7.7.7.4 4 4 2 [ [ [ [ 4 4 4 4 [ 7.7.7.7.7.7.7.e.e.7.7.[ ",
"7.7.7.7.7.7.7.[ [ [ [ 4 7.7.7.[ 4 4 [ 7.7.e.e.e.e.7.e.e.e.e.7.7.7.e.e.e.7.7.7.[ [ [ [ 4 7.7.7.[ 4 4 [ 7.7.e.e.e.e.7.e.e.e.e.7.7.",
"e.e.e.7.7.[ [ 7.7.7.7.[ 7.7.7.7.7.[ [ 7.e.e.e.e.e.7.7.e.e.e.e.e.7.e.u.w.7.[ [ 7.7.7.7.[ 7.7.7.7.7.[ [ 7.e.e.e.e.e.7.7.e.e.e.e.e.",
"e.e.e.7.[ 7.7.e.e.e.e.7.[ 7.7.7.7.7.[ 7.7.e.e.e.e.e.7.8.7.e.e.e.7.e.7.8.[ 7.7.e.e.e.e.7.[ 7.7.7.7.7.[ 7.7.e.e.e.e.e.7.7.7.e.e.e.",
"e.7.7.7.7.7.7.7.7.e.e.e.7.[ [ 7.7.4 4 [ [ 7.y.u.e.e.e.w.w.q.q.M [ B 9._ M 8.7.7.e.e.e.e.7.[ [ 7.7.4 4 [ [ 7.e.e.e.e.e.e.e.e.e.7.",
"7.7.e.e.e.e.e.7.7.7.e.e.e.2 [ [ [ 4 7.7.7.[ _ ) 8.M y.#.@.@.Z ^ ]  .%.A -.#.y.9.8.8.e.e.e.4 [ [ [ 4 7.7.7.[ [ [ 7.7.e.e.e.e.7.7.",
"7.e.e.e.e.e.e.e.e.7.e.e.e.7.4 [ [ [ 7.7.7.8.M y y ) ) / T | X.Q ] %.] ) ) X.=.-.>.M w.w.e.7.4 [ [ [ 7.7.7.7.7.4 4 [ [ 8.7.7.7.7.",
"e.e.e.e.e.e.e.e.e.e.7.7.e.7.4 4 7.7.7.7.8.B D G l U ! E ! | %.Q Q { ] ] E E $.! ) X.D B w.8.4 4 7.7.7.7.7.7.7.7.7.2 _ $.7.7.7.[ ",
"e.e.e.e.e.e.e.e.7.7.7.e.e.7.[ 4 8.8.8.m N ` [ E P E Q U U ) %.E E ! %.$.T ! $.Q U R X.=.0.m [ 4 8.7.7.7.7.7.7.e.e.7.4 4 [ _ [ [ ",
"e.e.e.e.e.e.e.e.e.e.e.7.7.[ [ [ B D S A / ' ] R P E Q U K E Q U P Q Q Q U ! %.] T U ~ ] I p ' } 9.7.7.7.7.7.e.e.e.7.4 4 4 5 [ [ ",
"[ 7.e.e.e.e.e.e.e.7.7.7.7.7.8.[ ' ' T I Q ~ { W P U R K a s K J K R E I J E ] ! P P Q { E h T &.} 4 4 8.7.7.7.7.[ 4 [ 7.8.7.7.7.",
"7.[ [ [ 7.e.e.7.2 [ [ [ 7.7.B F ) { ] P Q { ,.,.Q K K H s s K U U E E U K K U K K R R ~ E K Q { _ A 8.[ [ [ [ [ 4 4 4 7.e.e.e.7.",
"7.7.7.7.[ [ [ 4 4 7.7.7.7.B F ) Q ] ~ R R { &.%.W U U R E E R R T E E ! ! E s a K W E U U E ] ~ ~ ^ S 8.e.e.e.[ [ 2 7.e.e.e.7.7.",
"7.7.7.[ [ 4 [ [ [ 7.7.e.w.#.) Q E Q ] { Q Q ] Q R ] %.E U s s K K K I K U E ! Q U R R J U { %.] Q Q V 0.e.e.e.e.[ [ 7.e.e.e.e.e.",
"e.7.7.[ 2 [ [ 7.7.e.e.e.w. .g P U ] &.2.2.] R ] %.{ R h P K s U K J P I K P R ! ~ Q U R ] 2.;.{ Q Y j n e.e.e.e.7.[ 7.e.e.e.e.e.",
"e.e.e.7.[ 7.7.e.e.e.e.e.w.b T K P E &.2.2.&.,.<.! U K K R R K K K g P U R R U R { { Q ! %.;.:.{ P P { r.e.e.e.e.7.[ 7.e.e.e.e.e.",
"e.e.e.7.[ 7.e.e.e.e.e.e.y.r.} E U U E &.%.%.<.&.Q U R Q R P K P R E T R T Q R U Q { ] E ] $.$.) Q ] } -.u.u.7.7.4 4 4 7.e.e.e.e.",
"e.e.7.7.[ [ 7.e.e.e.e.e.t.:.{ { &.{ Q E Q %.&.Q E U P ! ! U E Q ] $.;.&.{ E K U Q Q ] ! U R %.&.&.} } } y 5 2 2 4 4 4 7.7.7.7.e.",
"e.7.[ [ 4 [ [ 7.e.e.e.t.-.$.] &.:.2.&.Q ] &.{ Q P P E ! Q ! ! E E ) ] $.{ ] R U U Y R ~ E ] &.2.;.} &.} ` 9.7.7.7.7.4 4 4 4 7.7.",
"[ [ 2 [ [ 7.7.[ [ 7.e.0._ ' ] } <.3.%.! { ] Q { E E W Q %.&.E g K U T E E E ! E W P K ~ { ] %.;.1.} ] ] _ S 8.7.e.e.7.7.7.4 4 4 ",
"4 4 [ 7.7.7.7.7.7.[ 5 S E P R ] %.&.%.! %.Q Q ~ ! ] Q E Q ! Q Q { [ ) R Q ~ Q Q E U P Q } ] Q } ] Q Y L Y -.w.8.e.e.e.e.e.7.4 4 ",
"[ 7.7.7.7.7.e.e.e.7.5 ( ) ( ( ] ] E Q %.&.E E Q ! &.Q E ! %.%.%.&.:.$.] Q ~ { ! R R E E { ] U Q &.} ] Q ' *.q.u.e.e.e.e.e.7.7.4 ",
"[ 7.e.e.e.e.e.e.7.4 d $.$.' ) { $.Q E $.$.] W Q &.,.W E ! %.%.$.;.:.&.] E Q %.{ R R U R { $.) } 2.2.] ~ ] [ 0.e.e.e.e.e.7.7.7.7.",
"[ [ 7.e.e.e.7.4 4 4 D *.} ) ) ] $.E Q &.%.! ! Q :.;.! ! %.~ ! %.} :.;.[ ( R Q { Q R K K ] &.} ;.3.1.] R Q } r.e.e.e.e.e.e.e.7.7.",
"7.[ [ [ [ [ [ 7.7.m F ) ] R R E ! R E &.! E E Q <.<.Q { ,.{ ~ ! } ;.;.' Q Y W { ~ R Q E ] &.' ' &.} Q U { { -.w.7.7.7.e.e.e.e.e.",
"7.[ 4 2 2 7.7.7.7.0.^ K U s K P K s R $.X.Q Q Q <.4.| %.3.,.%.~ ' ;.&.{ ~ R U ~ { Q { ~ ] $.] R E Y K P ] Q V M e.7.e.e.e.e.e.e.",
"[ [ 7.7.7.7.7.e.e.0.f K K a s R P s P %.! Q E Q &.3.%.&.3.<.,.{ ~ { &.} { E P Q ~ E E E ] $.] ' ] Y H K Q Q ^ q.e.e.e.e.e.e.e.e.",
"[ 7.7.7.7.7.7.7.7.B _ ] Q J K ! ] R U $.! P U E ~ &.%.%.3.4.3.<.{ { } &.%.R P W W K Y ] &.;.} 1.2.} P K ] } +.9.e.e.e.e.e.e.7.7.",
"[ 7.7.7.7.7.e.e.w.q._ %.Q K s R ! E P ! ! K U ! ] %.%.%.<.4.4.4.3.&.} &.{ Y U Q R K U ' ;.1.} &.2.{ H K ' ] _ B 7.e.e.e.e.7.[ 4 ",
"4 4 7.7.7.7.e.e.u.t.:.] E P a a K U P Q X.R E | %.] %.$.&.<.4.6.5.&.] ~ ~ W Q { Q Y U ( 1.,.Q ~ { Q q H ' { T [ [ 7.e.7.7.[ 2 4 ",
"2 [ [ [ [ _ ) 7.w.t k Q R J q q a K U R ! ! P E &.%.&.%.! ! &.<.2.%.] Y Y Q { { { ~ ' { 1.{ U U Y L < q Q { *.[ [ [ [ [ [ [ [ [ ",
"7.7.7.7.8.7.5 2 [ t ..K K a 1 K Q $.| U Q ! P E ~ %.<.<.&.%.Q E R Q ~ ~ Y R { ~ ] { { ,.,.Q { ,.} P > q Y Y _ ( 7.8.7.7.[ [ [ [ ",
"7.7.7.7.7.7.7.5 4 4 u K K a 1 K Q ] Q P U ] Q E Q Q %.<.3.&.%.! { ,.2.} W Y E Y Y ' &.3.{ Q %.1.} H > s P K P ( 7.7.7.e.e.7.7.[ ",
"7.7.7.7.7.7.7.[ [ ] h ! ! R 0 q E Q E P K ! %.Q ! Q W %.&.<.&.&.&.,.&.] Q Q Y U Y ' 1.&.U Y { %.} 0 < Y ] ' V 0.e.7.e.e.e.e.7.7.",
"e.e.e.7.7.) [ 7.7.n U ! ] Q q > s P R E K U %.&.] E ! ] Q E E E Y E ~ ' Q Q Q P U ' } Y Q ~ Q ~ P > < P ] Q f 0.e.7.7.e.e.e.e.e.",
"e.e.e.7.[ 7.7.e.e.O.f E ] ] K - - K ~ %.) U E %.%.~ ! ! ~ R K H L L U W Q L P Q Q Q L L ~ &.&.~ < * 0 K E U h O.e.e.7.7.7.e.e.e.",
"e.7.7.7.7.7.7.7.7.0.T U Q U a - @ a ! &.;.Q R | %.%.! W E R R J U L L U W W Q %.' J q L [ &.%.R * > q J P s j 0.e.e.e.e.e.e.e.7.",
"7.7.e.e.e.e.e.7.7.r / g J J J 1 @ - P $.;.&.%.L U ! %.%.W E W R R R L R ] %.,.{ L s Y L Q } ~ 1 * q Y P q < q ) 7.7.e.e.e.e.7.7.",
"7.e.e.e.e.e.e.e.e.7. .K K E Q K - # < T $.:.:.! K K W ~ %.%.%.~ ~ ~ { %.,.{ ] L L Q { Q L U q * 0 E } } P 6 z 4 2 [ [ 7.7.7.7.7.",
"e.e.e.e.e.e.e.e.e.e.v y K ~ ~ U q $ $ a ) :.;.$.E R R K E %.] ~ ~ ~ ~ ~ W L L H E ,.1.{ L , $ * J } ;.&.P 7 w 7.7.2 [ [ 7.7.7.[ ",
"e.e.e.e.e.e.e.e.7.7.n d 1 R ] Y a * @ ; g ) ;.&.~ %.%.Q R U J H H H H H L L Q ' ' ~ %.E q # o > Y &.&.E 0 5 e e.e.7.4 2 [ [ [ [ ",
"e.e.e.e.e.e.e.e.e.w.q.i ; K ! U a < > * ; p T ! %.<.4.&.~ %.! R L L W L U ] %.,.~ U H , $ o > a P [ } J % 9 q.e.e.7.4 4 4 4 [ [ ",
"[ 7.e.e.e.e.e.e.w.7.8.w , < K H H L J , * % ; s %.<.<.%.} 3.2.,.~ %.,.~ ~ { ,.} U , # o o , H Y P P P 6 = x 7.7.[ 4 [ 7.7.7.7.7.",
"7.[ [ [ 7.e.e.7.4 [ $.( a ; 1 J E ! E J > * # - H W ~ Q ~ 2.<.,.~ ~ %.%.~ W ' L q o o o > L E } ' U q * 0 ( [ [ 4 4 2 7.e.e.e.7.",
"7.7.7.7.[ [ [ 4 4 8.7.7.w = a ~ ~ ~ ~ R a > - + $ , q 1 K Q ] ] W L L L H q 1 > $ o # * H Q ~ } } ' q > o.w.e.[ [ 4 7.e.e.e.7.7.",
"7.7.7.[ [ 4 [ [ _ 7.7.w.0.l K ~ %.] { E a a a ; $ $ $ + # > , 1 > > > * # $ $ # # * q a H Q ~ ' ' Y s T q.e.e.e.[ [ 7.e.e.e.e.e.",
"e.7.7.[ 5 _ [ 7.7.e.e.e.e.Z 6 J ~ %.! P K E E P , $ + O O O O   o # # # # $ $ $ , q L U L P Y Q L 1 ; x e.e.e.e.7.[ 7.e.e.e.e.e.",
"e.e.e.7.[ 7.8.e.e.e.e.e.e.w : - J Q P K Q ~ ] ] P q > $ $ # + + # $ * * * > , , J U U ~ E H K P , o 0 ` e.e.e.e.7.[ 7.e.e.e.e.e.",
"e.e.e.7.[ 7.e.e.e.e.e.e.w.O.7 @ - 1 > a E ~ ] ' P P R K a 1 , 1 q 1 , q H L L J J Y ] { Q q < > # # q 0.e.e.7.7.[ 4 [ 7.e.e.e.e.",
"e.e.7.7.[ [ 7.e.e.e.e.e.e.q.C ; @ # O + < K Q E P ] &.} ] U R ] ~ Q J P Y ~ ] Y J L Q L q $ o O o ; z ( 4 4 4 4 4 4 2 7.7.7.7.e.",
"e.7.[ [ 2 [ [ 7.e.e.e.e.e.e.q.C = + . O # $ q a R &.2.2.&.E ~ &.] ] P P Q ] } ' J q 0 * # o o O & J ( 2 7.7.7.7.7.7.4 4 4 4 7.7.",
"[ [ 2 [ [ 7.7.[ [ 7.e.e.e.e.w.r 9 - X @ + + + - J ~ ] { { R ] ,.{ ] W E E Y Y J , $ o # + $ * & 9 ( 7.e.7.7.7.7.e.e.7.7.7.4 4 4 ",
"2 5 ) 7.7.7.7.7.7.[ 4 7.e.7._ ] ( z C d ; + O + * , < a K J K Y U W Y J q 0 * # + + # # ; 9 q g ( 8.e.e.e.e.e.7.e.e.e.e.e.7.4 4 ",
"[ 7.7.7.7.7.e.e.e.7.4 4 4 4 4 2 2 ) q.0.Z p % + + $ $ $ $ # + + # > > $ + * # + o o + % & 4 4 4 4 [ e.e.e.e.e.e.e.e.e.e.e.7.7.4 ",
"[ 7.e.e.e.e.e.e.7.4 4 [ [ [ [ 2 4 4 7.e.w.O.V : * $ + $ # # o o o o o o # o $ * % X & Y ( [ [ 4 4 2 7.e.e.e.e.e.e.e.e.e.7.7.7.7.",
"[ [ 7.e.e.e.7.4 4 4 7.7.7.7.7.[ [ [ [ 7.e.e.q.O.C p 6 , - % o o o # # o ; ; 3 * & 3 r 7.7.7.7.[ [ [ [ 7.e.e.e.e.e.e.e.e.e.e.7.7.",
"7.[ [ [ [ [ [ 7.7.7.7.7.7.7.e.7.7.7.4 4 7.7.e.e.r e c ` V d 8 6 6 > ; 0 a g I e 8.7.7.7.7.7.e.7.7.7.4 4 7.7.e.e.7.7.7.e.e.e.e.e.",
"7.[ 4 4 4 7.7.7.7.e.e.7.e.e.e.e.7.7.7.7.2 7.7.7.e.7.e.w.0.O.O.` c P 3 3 3 7.8.8.7.e.e.7.e.e.e.e.7.7.7.7.4 7.7.7.e.7.e.e.e.e.e.e.",
"[ [ 7.7.7.7.7.e.e.e.7.7.e.e.e.e.e.e.e.7.[ [ 7.e.e.e.e.e.e.e.e.e.[ [ 7.7.8.7.7.e.e.e.7.7.e.e.e.e.e.e.e.7.[ [ 7.e.e.e.e.e.e.e.e.e.",
"[ 7.7.7.7.7.7.7.7.7.7.7.7.e.e.e.e.e.e.e.[ 4 [ 7.e.e.e.e.e.e.7.7.[ 7.7.7.8.8.7.7.7.7.7.7.7.e.e.e.e.e.e.e.[ 4 [ 7.e.e.e.e.e.e.7.7.",
"[ 7.7.7.7.7.e.e.e.e.7.7.e.e.e.e.e.e.e.e.7.[ 2 [ 7.e.e.e.e.7.[ 2 [ 7.7.7.7.7.e.e.e.e.7.7.e.e.e.e.e.e.e.e.7.[ 2 [ 7.e.e.e.e.7.[ 4 ",
"4 2 7.7.7.7.e.e.e.e.e.e.e.e.e.e.e.e.e.7.[ 2 2 [ [ 7.e.7.7.[ 2 2 5 2 7.7.7.7.e.e.e.e.e.e.e.e.e.e.e.e.e.7.[ 4 4 [ [ 7.e.7.7.[ 4 4 "
};
