/* XPM */
static char *_957468987f44fbad95c8feb79be85a0z5bWVR24wUwvL2w5[] = {
/* columns rows colors chars-per-pixel */
"64 64 227 2 ",
"   c #362F1F",
".  c #221F21",
"X  c #252323",
"o  c #292625",
"O  c #2D2A25",
"+  c #2A2728",
"@  c #2C292A",
"#  c #322C26",
"$  c #392F23",
"%  c #322D2C",
"&  c #3D3421",
"*  c #35312E",
"=  c #3B352E",
"-  c #312D30",
";  c #363232",
":  c #393534",
">  c #3D3836",
",  c #3B3739",
"<  c #3E393A",
"1  c #42371F",
"2  c #443523",
"3  c #453A20",
"4  c #4A3C27",
"5  c #423B2E",
"6  c #523E22",
"7  c #423B34",
"8  c #423C3C",
"9  c #483F3A",
"0  c #6E4E1F",
"q  c #7B551F",
"w  c #7C571F",
"e  c #43651F",
"r  c #4A731A",
"t  c #4D412C",
"y  c #564022",
"u  c #5D4422",
"i  c #46413D",
"p  c #4A4239",
"a  c #554A37",
"s  c #5A4D3A",
"d  c #4B5B32",
"f  c #5F523C",
"g  c #684C22",
"h  c #6F5024",
"j  c #755525",
"k  c #7A5622",
"l  c #7D5923",
"z  c #7B5B2B",
"x  c #645337",
"c  c #6A573D",
"v  c #6A5A3E",
"b  c #765A34",
"n  c #536C31",
"m  c #443E41",
"M  c #464142",
"N  c #4A4443",
"B  c #4E4945",
"V  c #4D4649",
"C  c #4F494B",
"Z  c #534B44",
"A  c #534B4C",
"S  c #594E48",
"D  c #5A5444",
"F  c #56514E",
"G  c #5C534D",
"H  c #554E52",
"J  c #555253",
"K  c #5B5354",
"L  c #5D565A",
"P  c #5F5859",
"I  c #695A46",
"U  c #62574D",
"Y  c #65594E",
"T  c #735E43",
"R  c #605752",
"E  c #635A54",
"W  c #6A5C51",
"Q  c #60575B",
"!  c #635B5C",
"~  c #685E5D",
"^  c #5D6749",
"/  c #756443",
"(  c #7C6C46",
")  c #756649",
"_  c #7C6D4B",
"`  c #6A6455",
"'  c #6C615E",
"]  c #726655",
"[  c #746858",
"{  c #7E7353",
"}  c #5D5761",
"|  c #655D62",
" . c #695F62",
".. c #645F6C",
"X. c #6C6264",
"o. c #6D6469",
"O. c #6F6A69",
"+. c #726664",
"@. c #766A66",
"#. c #71666B",
"$. c #74696D",
"%. c #796C6D",
"&. c #787160",
"*. c #6C6777",
"=. c #746A72",
"-. c #746A76",
";. c #796E73",
":. c #736D7A",
">. c #7D7175",
",. c #77717A",
"<. c #7D737B",
"1. c #835B1F",
"2. c #815B21",
"3. c #84734B",
"4. c #89774D",
"5. c #8D7B4D",
"6. c #917E4F",
"7. c #857553",
"8. c #887751",
"9. c #8D7B51",
"0. c #907E50",
"q. c #80716B",
"w. c #837374",
"e. c #83757A",
"r. c #86797D",
"t. c #88787A",
"y. c #42870F",
"u. c #7D873E",
"i. c #686988",
"p. c #746D86",
"a. c #6E738A",
"s. c #747284",
"d. c #7B7584",
"f. c #74758B",
"g. c #7C758B",
"h. c #7C798D",
"j. c #696D9B",
"k. c #736E94",
"l. c #6B739B",
"z. c #777797",
"x. c #757B9B",
"c. c #5E70B5",
"v. c #666BA5",
"b. c #6873A7",
"n. c #7678A6",
"m. c #7475AE",
"M. c #7B7BAA",
"N. c #646EB5",
"B. c #6473BB",
"V. c #6B73B9",
"C. c #6678B8",
"Z. c #727CB4",
"A. c #7579B8",
"S. c #5C6CC5",
"D. c #5D74CC",
"F. c #5C79D7",
"G. c #6474C4",
"H. c #6E7BC3",
"J. c #657BCD",
"K. c #6878C8",
"L. c #737AC3",
"P. c #6174D0",
"I. c #637AD5",
"U. c #697ED4",
"Y. c #637BDB",
"T. c #5B7DE3",
"R. c #557BEA",
"E. c #517FF8",
"W. c #617EE6",
"Q. c #857A83",
"!. c #897C83",
"~. c #837C8C",
"^. c #8A7F8A",
"/. c #827DA4",
"(. c #7A829D",
"). c #7783A9",
"_. c #6984BB",
"`. c #6C84BC",
"'. c #7384B5",
"]. c #7886B4",
"[. c #7284BA",
"{. c #758BBE",
"}. c #5C81CA",
"|. c #5D85DC",
" X c #5C8BDB",
".X c #5E93DC",
"XX c #6B84C3",
"oX c #698BC7",
"OX c #6685CF",
"+X c #6A85CA",
"@X c #728DC3",
"#X c #7386C8",
"$X c #6484D3",
"%X c #6C84D3",
"&X c #6682DD",
"*X c #6688D9",
"=X c #6B8CDA",
"-X c #718CD6",
";X c #6B92D6",
":X c #6694DC",
">X c #7394D7",
",X c #5C84E3",
"<X c #5E8CE2",
"1X c #598AE7",
"2X c #5B8DEB",
"3X c #5D93E3",
"4X c #5D94EB",
"5X c #5B9EEE",
"6X c #5689F6",
"7X c #5897F4",
"8X c #6384E4",
"9X c #6887E5",
"0X c #648BE3",
"qX c #678EE9",
"wX c #6393E3",
"eX c #6A93E4",
"rX c #6899E6",
"tX c #6295EB",
"yX c #629BEC",
"uX c #639BF4",
"iX c #5DA1EA",
"pX c #59A7F6",
"aX c #61A1EE",
"sX c #60A5F3",
"dX c #8A8197",
"fX c #8583A6",
"gX c #828BB1",
/* pixels */
"3 W W W W W W 6.6.6.6.6.6.6.6.6.1.1.1.W W W W W W W W W W W J J 3 ` W W W W W 6.6.6.6.6.6.6.6.6.1.1.1.W W W W W W W W W W W 3 3 ",
"1.1.1.1.1.1.3 3 6.W 1.1.1.1.1.1.1.W W 3 W W 1.1.1.1.1.1.W W W W W W 1.1.1.1.3 3 W W 1.1.1.1.1.1.1.W W 3 W W 1.1.1.1.1.1.W W W W ",
"1.1.1.1.1.1.1.3 3 3 3 W W W W 3 3 3 3 W 1.1.1.1.1.1.1.6.6.1.1.W 1.1.6.1.1.1.1.3 3 3 3 W W W W 3 3 3 3 W 1.1.1.1.1.1.1.6.6.1.1.W ",
"1.1.1.1.1.1.1.W W W W 3 1.1.1.W 3 3 W 1.1.6.6.6.6.1.6.6.6.6.1.1.1.6.6.6.1.1.1.W W W W 3 1.1.1.W 3 3 W 1.1.6.6.6.6.1.6.6.6.6.1.1.",
"6.6.6.1.1.W W 1.1.1.1.W 1.1.1.1.1.W W 1.6.6.6.6.6.1.1.6.6.6.6.6.1.6.6.6.1.W W 1.1.1.1.W 1.1.1.1.1.W W 1.6.6.6.6.6.1.1.6.6.6.6.6.",
"6.6.6.1.W 1.1.6.6.6.6.1.W 1.1.1.1.1.W 1.1.6.6.6.6.6.1.1.1.6.6.6.1.6.1.1.W 1.1.6.6.6.6.1.W 1.1.1.1.1.W 1.1.6.6.6.6.6.1.1.1.6.6.6.",
"6.1.1.1.1.1.1.1.1.6.6.6.1.W W 1.1.3 3 W W 1.6.6.6.6.6.6.6.6.6.1.W 1.1.W 1.1.1.1.6.6.6.6.1.W W 1.1.3 3 W W 1.6.6.6.6.6.6.6.6.6.1.",
"1.1.6.6.6.6.6.1.1.1.6.6.6.3 W W W 3 1.1.1.W W W 1.1.6.6.6.6.1.1.W 1.W 1.6.6.6.1.1.1.6.6.6.3 W W W 3 1.1.1.W W W 1.1.6.6.6.6.1.1.",
"1.6.6.6.6.6.6.6.6.1.6.6.6.1.3 W W W 1.1.1.1.1.3 3 W W w j y.b U Y E n 4.3.4.5.9.6.2.6.6.6.1.3 W W W 1.1.1.1.1.3 3 W W 1.1.1.1.1.",
"6.6.6.6.6.6.6.6.6.6.1.1.6.1.3 3 1.1.1.1.1.1.2.y.l t E Y ] { ^ ' ` ` ` ] ] ) 7.7.9.9.1.1.6.1.3 3 1.1.1.1.1.1.1.1.1.3 W W 1.1.1.W ",
"6.6.6.6.6.6.6.6.1.1.1.6.6.1.W 3 1.1.1.1.1.2.2.e u.I R P ! O.$.X.O.$.O.O.~ ~ ' ] c b z 0.0.2.W 3 1.1.1.1.1.1.1.6.6.1.3 3 W W W W ",
"6.6.6.6.6.6.6.6.6.6.6.1.1.W W W 1.1.1.2.2.b [ ` D E X.! ! $.$.o.X.$.;.@. . .@.~ G U [ b 3 3 W W 1.1.1.1.1.1.6.6.6.1.3 3 3 3 W W ",
"W 1.6.6.6.6.6.6.6.1.1.1.1.1.1.W W t 4 l b I W Q K X.X.| L o.O.X.| o.=.%.X.X.;.#.| P ~ K U z l W W 3 3 2.1.1.1.1.W 3 W 1.1.1.1.1.",
"1.W W W 1.6.6.1.3 W W W 1.1.1.2.b T v G P | o.| L ! X.P J J | L K P X.| Q X.;.$.~ K X.X.R f c / 2.2.2.W W W W W 3 3 3 1.6.6.6.1.",
"1.1.1.1.W W W 3 3 1.1.1.1.1.2.z I ` U A Q =.:.-.| } P J V V J J } | | L A Q X.| P P  .$.~ Z G E T z 2.2.6.6.6.W W 3 1.6.6.6.1.1.",
"1.1.1.W W 3 W W W 1.1.6.6.0.7.] G ` ! P Q =.<.,.o.K H } ..*.i.j.b.l.a.:.*.| H A H | | | | K ! ! R I z 6.6.6.6.6.W W 1.6.6.6.6.6.",
"6.1.1.W 3 W W 1.1.6.6.6.6.8.T G G ! X.X.| X.;.=.| ..:.l._..X.X X<X3X*XOXXXl.*.Q K | ..L K X.o.' P G v l 6.6.6.6.2.W 1.6.6.6.6.6.",
"6.6.6.1.W 1.1.6.6.6.6.6.6.h S F K ' $.>.=.o.| | O.f.@X.X X5XpX X X7X<X3X5X<X_.s.o.| } J | >.>.o.! K G ( 6.6.6.6.1.W 1.6.6.6.6.6.",
"6.6.6.1.W 1.6.6.6.6.6.6.5./ Z N F o.>.Q.Q.>.=.,.h.oXpXpX.X&X6X6X6X7X7X,X|.,X XoXx.*.X.| =.e.r.>.! B U _ 6.6.1.1.3 3 3 1.6.6.6.6.",
"6.6.1.1.W W 1.6.6.6.6.6.6.{ W K F P $.e.e.,.e.~.{.tXwX2X6XR.R.E.6X6X7X4X,X|.*X4XoXf.o.X.$.t.w.+.K P W ` 3 3 3 3 3 3 3 1.1.1.1.6.",
"6.1.W W 3 W W 1.6.6.6.6.9.7.' X.o.o.| X.#.=.~.@X=X0X6XW.W.E.F.N.c.m.m.Z.V.G.4X3XOX'.f.O. .X.@.%.$.o.o.G z 1.1.1.1.1.3 3 3 3 1.1.",
"W W 3 W W 1.1.W W 1.6.6.7.[ ' $.>.,.$.X.X.d.{.rX5X2XT.I.W.S.v.v.N.G.A.m.k.j.F. XOXeXoXa. . .=.e.w.$.@.+.b 1.2.2.6.6.1.1.1.3 3 3 ",
"3 3 W 1.1.1.1.1.1.W 4 2.[ +.+.;.r.r.<.o.$.n.-X>X0X,XG.P.P.L.OX X6XqXY.U.C.C.N.J.,X4X.X).=.X.=.e.t.>.$.@.[ 8.0.2.6.6.6.6.6.1.3 3 ",
"W 1.1.1.1.1.6.6.6.2.2 4 S S ! o.>.r.<.O.s.#X0X&XU.N.N.P.P.U.J.G.C.C.K.F.F.B.S.F.F.3X5X_.f.#.#.e.%.o.| K E _ 0.0.6.6.6.6.6.1.1.3 ",
"W 1.6.6.6.6.6.6.1.3 4 W W R ! o.$.o.o.$.(.:XyX9XJ.v.C.T.I.L.k.p.s.g.k.N.G.V.G.S.D.|.wX:Xn.=.! +.$.#. .P Q ] 4.6.6.6.6.6.1.1.1.1.",
"W W 1.6.6.6.1.3 3 3 2./ [ ' X.%.$.' ~ ,.].>XrXwX#Xn.J.F.N.k.p.;.w.e.w.p.j.N.m.G.T.T.8X*X).,. .#.e.e.$. .' W 3.6.6.6.6.6.6.6.1.1.",
"1.W W W W W W 1.2.2.z ] +.+.+.$.$.+.X.,.gX-X:XaX@XM.&XI.j.*.$.;.>.t.w.;.i.B.G.m.J.T.2X2X_.d.$.;.Q.t.$. .! Y 7.6.1.1.1.6.6.6.6.6.",
"1.W 3 3 3 1.1.1.1.9.7.] +. .| #.$.X.X.d.@XuXsXaX@XM.*X$Xk.-.=.$.;.t.e.%.*.B.$Xv.N.,X2XwXoX~.;.;.Q.e.$.! X.' T 2.6.1.6.6.6.6.6.6.",
"W W 1.1.1.1.1.6.6.4.h R ! Q L Q ! Q Q d.'.:X*X X'./.OXXX~.<.-.#.$.e.e.;.*.v.}.b.b.|.+XXX[.g.#. .#.+.| L X.~ I 4.6.6.6.6.6.6.6.6.",
"W 1.1.1.1.1.1.1.2.k a N A A A R K A P :.)._._.K.Z./.[.[.~.Q.<.*.#.;.>.;.-.j.c.j.j.XXOXXXZ.Q.#.! | L H H | E f k 6.6.6.6.6.6.1.1.",
"W 1.1.1.1.1.6.6.6.4.c Q Q A A  .X.Q Q :.'.aX3X,XJ.M.#X#X/.^.Q.<.=.;.,.>.a.c.,Xc.j..XuXqX@X~.%.;.;.$.L H X.X.] 2.1.6.6.6.6.1.W 3 ",
"3 3 1.1.1.1.6.6.6.9.&.X.X.H A | #. .Q -.'.iX5X8XJ.m.A.#XM.^.^.^.e.;.;.,.l.F.R.v.v.<X7XqX#XQ.;.t.!.-.Q H X.X.R W W 1.6.1.1.W 3 3 ",
"3 W W W W W W 1.6.r n X. .K V K | | L o.z._.OX*X9XU.A.A.L./.dXdX^.d.:.z.K.F.D.v.B.1X2XrXgXr.;.;.<.#.K H ~ X.] Y W W W W W W W W ",
"1.1.1.1.1.1.3 3 W r { ' | K V N N J K ! a.oX4XtX&XU.J.K.H.L.gXfX/./.m.I.Y.I.G.v.K.9XqX:XfXe.| P Q Q V V ~ o.] W 1.1.1.1.W W W W ",
"1.1.1.1.1.1.1.1 3 4 d K K A N C P X.X.P *._.pXiX%X%XL.H.U.&X%X&X:XrX=XP.S.D.V.A.-X-XeX>Xh.O.o.$.+.Q m m ! X.E E 1.1.1.6.6.1.1.W ",
"1.1.1.1.1.1.1.W W Y 7 N A A M H o.o.O.P ' a.oXwXqX0XL.M.M.H.I.W.8XU.A.V.F.D.G.wXaXrX>XgXe.o.=.<.w.Q , V J A s ( 6.1.6.6.6.6.1.1.",
"6.6.6.1.1.W W 1.1.l G K P L m N o.$.o.P K =.x.:XqX*X=X%XM.x.n.m././.L.W.Y.P.T.8XwXeX].~.%.! -.e.;.H 8 H ! Q I _ 6.1.1.6.6.6.6.6.",
"6.6.6.1.W 1.1.6.6.3.x ! X.~ V > K ~ Q Q K Q ,.x.[.>XeXU.%X;X%XU.W.W.W.W.W.W.9X2X Xn.Q.@.| .. .#.+.M < Q  .! Y ( 6.6.1.1.1.6.6.6.",
"6.1.1.1.1.1.1.1.1.3.D K X.X.H , , L X.#.' K o.,.n.;XeX#X&X0X4X7X6XE.6XW.0XaXsXwXb.:.o.Q  .;.-.o.H ; m K ~ Q s / 6.6.6.6.6.6.6.1.",
"1.1.6.6.6.6.6.1.1.k D D ~ X.H ; % A #.;.>.X.P $.d.).%X0XuX3X X7X2XW.7X4XeXpXaX'.*.| H K #.w.w.#.8 % m K K S i S 1.1.6.6.6.6.1.1.",
"1.6.6.6.6.6.6.6.6.w I A F A Z m % < Q w.w.%. .Q ..s.x.oXtXtX<X7X4X2XpXpXqX-X].h.X.H H J ..w.;.H * 8 H Z M 7 6 & 3 W W 1.1.1.1.1.",
"6.6.6.6.6.6.6.6.6.5.g p B J P H : + N +.%.w.w.~ J | =.z.'.'.`.OX%X$XoX@X].x.d.X.K L X.| Q ..Q , ; H  .~ Z > 6 w 1.3 W W 1.1.1.W ",
"6.6.6.6.6.6.6.6.1.1.h a B ! X.P m @ ; F @.w.w.%.Q J Q } O.d.h.z.x.l.z.s.*...L K L =.>.=.| C < - m  .%.@.K 5 u 5.6.1.3 3 W W W W ",
"6.6.6.6.6.6.6.6.6.6.{ t i K X.P C ; o 7 U q.t.w.o.o.o.P Q | } } } } L P L L L | X.;.e.=.H ; + ; R %.%.' N 2 / 6.6.1.3 3 3 3 W W ",
"W 1.6.6.6.6.6.6.6.1.w y : A X.P A , % % 7 U %.%.O.,.Q.;.o.| L H C H H H } ..$.-.o.X.*.H : X @ 8 R %.@.S : 3 q 1.W 3 W 1.1.1.1.1.",
"1.W W W 1.6.6.1.3 W Y Z = 8 F A V V V ; $ : N R =.!.^.<.=.e.,.=.....#.o...#.e.e.o.H m - + @ m H H Q E i @ p Y W 3 3 3 1.6.6.6.1.",
"1.1.1.1.W W W 3 3 1.1.0 4 * 8 N H Q Q N ; # # 7 P :.<.;.=.Q.!.e.-.;.<.,.#...;.#.J , X . + m L  .! Z i : 5 / 6.W W 3 1.6.6.6.1.1.",
"1.1.1.W W 3 W W W 1.1.5.v = < A P  . .Q m * # @ : M K P | ;.<.<.$...#.#.| L K m ; X . + < } ..o. .K 9 = s 4.6.6.W W 1.6.6.6.6.6.",
"6.1.1.W 3 W W 1.1.6.6.6.3.a p ! ! ! O.| C 8 > @ @ - : ; < B J } H V V M < ; ; % + + - < C | o.~ ! E N 4 / 5.6.6.1.W 1.6.6.6.6.6.",
"6.6.6.1.W 1.1.6.6.6.6.6.4.u p G ! ! ' P C J J N ; O @ X X @ @ @ + + @ @ @ @ @ + @ < C J H K ! E G N > I 4.6.6.6.1.W 1.6.6.6.6.6.",
"6.6.6.1.W 1.6.6.6.6.6.6.6./ 5 > F ` P F J X.X.P A > - X X X . . X + @ @ @ @ % ; m K L | L C A G M % = T 6.6.1.1.W 3 W 1.6.6.6.6.",
"6.6.1.1.W W 1.6.6.6.6.6.6.( 5 @ > B i i ! X.X.X.P C B M < ; - - - ; ; , 8 M V V Z Q | X.! C 9 M - X $ Z 3 3 3 2 3 3 3 1.1.1.1.6.",
"6.1.W W 3 W W 1.6.6.6.6.6.3.a O % % O % N K ' ' K P +.' P A B K } H V C K ! | P H K ! ! F > + + o o 7 2 1.1.1.1.1.1.3 3 3 3 1.1.",
"W W 3 W W 1.1.W W 1.6.6.6.5.( 3 # + X X % > C G F o.>.;.$.! X.$.o.o.L H ~ X.o.~ A N Z 8 ; o . X o : g 4.1.1.1.1.6.6.1.1.1.3 3 3 ",
"3 3 W 1.1.1.1.1.1.W 3 1.6.1.W D > o . . o + % : A X.&.%.+.~ ' ;.+.X.Q K ! ! ' R M : % @ o . . X % g 4.6.6.6.6.1.6.6.6.6.6.1.3 3 ",
"W 1.1.1.1.1.6.6.6.1.3 3 3 3 3 3 & 7 t 5 o X X O > i N F P J K X.' ! ! K A N 8 : % o o o o .   O & Y 0.6.6.6.6.6.6.6.6.6.6.1.1.3 ",
"W 1.6.6.6.6.6.6.1.3 3 W W W W 3 1 1 0 / a # o X + - ; ; : : : > < 8 M < ; * @ X X X X O > Z S & 3 3 1.6.6.6.6.6.6.6.6.6.1.1.1.1.",
"W W 1.6.6.6.1.3 3 3 1.1.1.1.1.W ` I W w ( v p O X + @ @ O @ X X X @ @ o X @ @ @ X X 1 y 0 w 1.W W W W 1.6.6.6.6.6.6.6.6.6.6.1.1.",
"1.W W W W W W 1.1.1.1.1.1.1.6.1.1.1.3 3 1.w ( x 3 # + @ @ X X . X X + X X o o # 3 y 0 w 1.1.6.1.1.1.3 3 1.1.6.6.1.1.1.6.6.6.6.6.",
"1.W 3 3 3 1.1.1.1.6.6.1.6.6.6.6.1.1.1.1.3 1.w w ( u s a t = O X X X X o O 3 6 u 0 4.4.1.6.6.6.6.1.1.1.1.3 1.1.1.6.1.6.6.6.6.6.6.",
"W W 1.1.1.1.1.6.6.6.1.1.6.6.6.6.6.6.6.1.W W 1.6.6.5.3.( / v x s 9 7 y u g h w 4.5.6.1.1.6.6.6.6.6.6.6.1.W W 1.6.6.6.6.6.6.6.6.6.",
"W 1.1.1.1.1.1.1.1.1.1.1.1.6.6.6.6.6.6.6.W 3 W 1.6.6.6.6.5.4.k w Y w w w l 1.1.1.1.1.1.1.1.6.6.6.6.6.6.6.W 3 W 1.6.6.6.6.6.6.1.1.",
"W 1.1.1.1.1.6.6.6.6.1.1.6.6.6.6.6.6.6.6.1.W 3 W 1.6.6.6.6.1.W 3 W 1.1.1.1.1.6.6.6.6.1.1.6.6.6.6.6.6.6.6.1.W 3 W 1.6.6.6.6.1.W 3 ",
"3 3 1.1.1.1.6.6.6.6.6.6.6.6.6.6.6.6.6.1.W 3 3 W ` 1.6.1.1.W 3 3 3 3 1.1.1.1.6.6.6.6.6.6.6.6.6.6.6.6.6.1.W 3 3 W W 1.6.1.1.W 3 3 "
};
