/* XPM */
static char *_e4e0eb85ea54b48bda26939643ad68al8EwQ7GGLBkabpkd[] = {
/* columns rows colors chars-per-pixel */
"64 64 145 2 ",
"   c #000000",
".  c #0C0000",
"X  c #0C0800",
"o  c #120500",
"O  c #1B0000",
"+  c #100B00",
"@  c #1B0D00",
"#  c #151100",
"$  c #1C1300",
"%  c #240000",
"&  c #2A0000",
"*  c #350000",
"=  c #3D0000",
"-  c #221200",
";  c #291500",
":  c #281900",
">  c #3A1E00",
",  c #3C2200",
"<  c #450000",
"1  c #4C0000",
"2  c #550000",
"3  c #5A0000",
"4  c #620000",
"5  c #6C0000",
"6  c #730000",
"7  c #7F0000",
"8  c #442400",
"9  c #542C00",
"0  c #543300",
"q  c #5C3000",
"w  c #623400",
"e  c #623B00",
"r  c #683900",
"t  c #713B00",
"y  c #594B00",
"u  c #704400",
"i  c #7A6600",
"p  c #820000",
"a  c #8C0100",
"s  c #930100",
"d  c #9C0101",
"f  c #A30101",
"g  c #AC0101",
"h  c #B30101",
"j  c #BC0201",
"k  c #C40201",
"l  c #CD0201",
"z  c #D40202",
"x  c #D90302",
"c  c #834200",
"v  c #8D4600",
"b  c #874B00",
"n  c #8B4F00",
"m  c #934700",
"M  c #974900",
"N  c #875600",
"B  c #8F5200",
"V  c #8C5C00",
"C  c #995700",
"Z  c #975800",
"A  c #A54E00",
"S  c #A55100",
"D  c #AD5200",
"F  c #A05F00",
"G  c #AB5F00",
"H  c #B75600",
"J  c #B65800",
"K  c #8B7500",
"L  c #8E7800",
"P  c #AB6400",
"I  c #A06C00",
"U  c #AB6C00",
"Y  c #B76300",
"T  c #BE6000",
"R  c #AB7400",
"E  c #A07A00",
"W  c #AB7C00",
"Q  c #C35D00",
"!  c #CA6100",
"~  c #C36D00",
"^  c #D76B00",
"/  c #D86A00",
"(  c #C37400",
")  c #C37B00",
"_  c #D37600",
"`  c #D67A00",
"'  c #E77500",
"]  c #EE7000",
"[  c #EC7700",
"{  c #E77800",
"}  c #E77E00",
"|  c #EB7B00",
" . c #F37100",
".. c #F37400",
"X. c #FF7700",
"o. c #F37B00",
"O. c #F97900",
"+. c #FF7900",
"@. c #FB7F00",
"#. c #FF7C00",
"$. c #AB8400",
"%. c #AB8A00",
"&. c #AB9000",
"*. c #C38500",
"=. c #C38C00",
"-. c #D58900",
";. c #C39400",
":. c #C39B00",
">. c #E78100",
",. c #E58700",
"<. c #E78F00",
"1. c #F38200",
"2. c #F78400",
"3. c #FB8200",
"4. c #FF8200",
"5. c #FB8500",
"6. c #FF8400",
"7. c #FB8900",
"8. c #FF8900",
"9. c #FF8E00",
"0. c #E49400",
"q. c #F39300",
"w. c #FF9100",
"e. c #FF9400",
"r. c #FF9C00",
"t. c #C3A400",
"y. c #D2B200",
"u. c #EFA200",
"i. c #E8AE00",
"p. c #F7A500",
"a. c #FFA400",
"s. c #FFAB00",
"d. c #E2BF00",
"f. c #FFB400",
"g. c #F7B900",
"h. c #FFBC00",
"j. c #E6C200",
"k. c #EFC100",
"l. c #EEC900",
"z. c #FFC300",
"x. c #F7CD00",
"c. c #FFCB00",
"v. c #F7D100",
"b. c #FFD300",
"n. c #FFD800",
/* pixels */
"                                                                                                                              . ",
"  . 4 7 7 7 7 7 7 7 7 7 7 7 7 7 7 7 7 7 7 7 7 7 7 7 7 7 7 p 7 7 7 7 7 7 7 7 7 7 7 7 7 7 7 7 7 7 7 7 7 7 7 7 7 7 7 7 7 7 7 4 .   ",
"  2 . 3 7 7 7 7 7 7 7 7 7 7 7 7 7 7 7 7 7 7 p 7 7 7 7 7 7 7 7 7 7 7 p 7 7 7 7 7 7 7 7 7 7 7 p 7 7 7 7 7 7 7 7 p 7 7 p 7 3 . 2   ",
"  7 2 . 4 7 7 7 7 7 6 7 7 p 7 7 7 7 p 7 7 7 7 7 7 p 7 7 7 7 7 7 7 7 7 7 7 p 7 7 7 7 7 7 7 7 7 7 7 p 7 7 7 7 7 7 7 7 7 4 . 2 7   ",
"  7 7 2 . 3 7 7 7 2 * 5 7 7 7 7 7 7 7 7 7 7 7 7 7 7 7 7 7 7 7 7 7 7 7 7 7 7 7 7 7 7 7 7 7 7 7 7 7 7 7 7 6 = 5 7 7 7 4 . 2 7 7   ",
"  7 7 7 2 . 4 7 6 * . 1 7 7 7 7 7 7 7 7 7 7 7 7 7 7 7 7 7 7 7 7 7 7 7 7 7 7 p 7 7 7 7 p p 7 7 p p 7 p 7 = . * 7 7 4 . 2 7 p p   ",
"  7 7 7 7 2 . 3 7 5 1 6 p 7 7 7 7 7 7 7 p 7 p 7 p 7 p 7 p 7 p 7 p p 7 7 p p p 7 7 p p p p p p p p 7 p p 6 * 5 p 4 . 2 p p p p   ",
"  p 7 p 7 7 2 . 3 7 p p 7 p p p p 7 p p p p p p p 7 p p p p p p p p p p p p p p p p p p p p p p p p p p 7 7 p 4 . 2 p p p p p   ",
"  p p p 7 2 7 2 . 4 p p p p p p p p p p p p p p p p p p p p p p p p p p p p p p a p p p p p p p a p p p a p 4 . 2 7 5 7 7 p p   ",
"  p p p 1 o 2 p                           .                                                 .                 3 p 4 % 1 7 p a   ",
"  p p p 2 O 3 a   ] X.X.X.X.X.+. .- H X.X.+.X.X.X.X.+.+.+.+.+.+.+.+.X.+.+.+.+.+.X.+.+.+.Q @ ] +.+.X.+.+.+.+.  p a 3 O < p p a   ",
"  p p a p 4 p p   +.+.+.] D ..+.+.Q X D +.+.+.+.+.+.+.+.+.+.+.+.+.+.+.+.+.+.+.#.+.+.X.J @ J +.+.+...A ! O.+.  a a p 4 7 p a a   ",
"  a a p p a a a   #.#.O.M ; A #.#.#.^ @ m #.#.#.#.#.#.#.#.#.#.#.#.#.#.#.#.#.#.#.+.#.D X Q #.#.#.#.D ; 9 ^ #.  a a a a a a a a   ",
"  a a a a a p a   #.#.O.S > J #.#.#.#.^ @ v 4.#.4.#.#.4.4.#.4.#.#.4.4.#.4.4.#.#.4.v @ ^ 4.4.#.4.4./ t S [ #.  a a a a a a s a   ",
"  a a a a a a a   4.4.4.o.T o.4.4.4.4.4.' ; t #.4.4.4.4.4.4.4.6.4.4.4.4.4.4.4.4.c - ^ 4.4.4.4.4.4.@.' o.4.4.  a s a s a a a a   ",
"  a a a s a a a   6.4.4.4.6.4.6.6.4.4.4.6.' > w 3.4.6.6.6.4.6.6.6.6.6.6.4.6.6.t ; { 6.6.4.4.6.6.6.6.6.4.6.6.  s a s a s s s s   ",
"  a a a s a s a   6.6.6.6.8.6.6.6.8.6.6.8.6.1.> 9 3.6.6.8.6.6.6.6.6.6.8.6.6.q > | 6.8.6.6.8.8.6.8.6.8.6.8.6.  s s s s s s s a   ",
"  s s a s a a s   3.8.8.8.8.8.8.8.8.8.8.8.8.8.5.9 , 1.8.8.8.8.8.8.8.8.9.2.9 8 1.8.8.8.8.8.8.8.8.8.8.8.8.8.2.  s s s s s s s s   ",
"  s s s s s s s   - Y 8.8.8.8.8.8.8.8.8.8.8.8.9.7.w > } 9.8.9.8.9.9.8.1., 9 7.9.9.8.8.8.9.9.8.9.8.9.9.9.~ @   s s d s s d s s   ",
"  s s s s s s s   ~ o G 9.9.9.9.9.9.9.9.9.9.9.9.9.9.t : } 9.9.9.9.9.>.> r 7.9.9.9.9.9.9.9.9.9.w.9.9.9.~ o P   s s s s d s s d   ",
"  d s s s s s s   w._ $ B w.9.w.9.w.w.w.9.w.9.w.w.9.w.b $ ` w.w.9.>.; r w.w.w.w.w.w.w.w.w.w.w.w.w.w.~ X P w.  d d s s d d s d   ",
"  s d s s d s d   w.w.` - n w.w.w.w.w.w.w.e.w.w.w.e.w.w.B $ ` e.` $ B e.w.w.w.e.w.e.w.w.w.e.w.e.w.~ o P e.w.  d d d d d d d d   ",
"  d d s s d d d   e.w.e.,.; u e.e.e.e.e.e.e.e.e.e.e.e.e.w.P o C $ Z r.e.e.e.e.e.e.e.e.r.e.e.e.r.( X P e.e.e.  d d d d d d d d   ",
"  d d d d s d d   e.r.e.r.,., e e.r.e.e.r.e.e.r.e.r.e.r.e.e.P . F e.r.e.r.e.r.e.r.e.r.e.e.e.r.( o P r.r.r.e.  d d d d f d d d   ",
"  d d d d d d d   r.r.e.r.r.q., 0 e.r.r.r.r.r.r.r.r.r.r.r.r.r.-.r.e.r.e.r.r.r.e.r.r.e.r.r.r.) X P r.r.r.r.r.  d f d d f d d d   ",
"  d d d f d d d   r.r.r.r.r.r.r.0 , q.r.r.r.r.r.r.e.r.r.r.r.r.r.r.r.r.r.r.r.r.r.r.r.r.r.r.( o P r.a.r.r.r.r.  f d f f d f f f   ",
"  f f d f d d d   r.r.r.r.r.r.r.a.q , <.r.r.a.r.r.r.r.r.r.r.r.r.a.r.a.a.r.a.a.r.r.a.a.a.) X U a.a.r.r.r.r.a.  f f f f f f f f   ",
"  d f f d f f f   r.a.a.r.a.a.a.a.a.u : 0.a.r.a.a.a.r.a.a.a.a.a.a.r.a.r.a.r.a.a.a.a.r.) o U a.a.a.a.a.r.a.a.  f f f f f f f f   ",
"  f f f f f f f   a.a.a.a.a.a.a.a.a.a.N $ -.a.a.a.a.a.a.a.a.a.a.a.a.a.a.a.a.a.a.a.a.) o R a.a.a.a.a.a.a.a.a.  f g f f f f f f   ",
"  f f f f f f f   a.s.a.a.a.a.a.a.a.a.a.V $ -.a.s.a.a.a.a.s.s.a.s.a.s.a.a.a.a.s.s.) X R a.a.a.a.a.s.s.a.s.a.  f f f g f f g g   ",
"  f f f f f f g   s.a.a.s.a.a.s.a.s.a.s.s.U o $.a.s.s.a.s.a.s.a.a.s.a.s.s.s.s.p.*.o U s.s.a.s.s.a.s.a.s.s.s.  f g f f g f g f   ",
"  f g f g f g f   s.s.s.s.s.s.s.s.s.s.s.s.s.V   0.s.s.s.s.s.s.s.s.s.s.s.s.f.q.@ X R s.s.s.s.s.s.s.s.s.s.s.s.  g g g g g g g g   ",
"  f g g f g g f   s.s.s.s.s.s.s.s.s.s.s.s.*.+ I s.s.s.s.s.s.s.s.s.s.s.s.s.s.p.X X *.s.s.f.s.f.s.s.f.s.s.s.f.  g g g g g g g g   ",
"  g g g g g g g   f.s.f.f.s.f.s.f.f.s.f.*.+ R s.f.s.f.s.f.f.s.f.s.f.s.f.f.f.f.u.R o =.s.s.f.s.f.f.s.s.f.s.f.  g g g g g g g h   ",
"  g g g g g g g   f.f.f.f.s.f.f.f.f.f.*.+ W f.f.f.f.f.f.f.f.f.f.f.f.f.f.f.f.f.f.f.W X =.f.f.f.f.f.f.f.f.f.f.  g h g h h g h g   ",
"  g g g g g g g   f.f.f.f.f.f.f.f.f.*.+ W f.f.f.f.f.f.f.f.f.f.f.f.f.f.f.f.f.f.f.f.f.W o =.f.f.f.f.f.f.f.f.f.  h h g h g h g h   ",
"  g g h g g h h   f.f.h.h.f.f.f.f.*.X W f.h.f.f.f.f.f.h.h.f.f.f.f.f.h.f.h.f.f.f.f.h.f.W + =.f.f.h.f.f.h.h.f.  h h h h h h h h   ",
"  h g h h h h g   h.f.h.f.h.h.h.=.+ W h.h.h.h.h.h.h.h.h.f.h.h.h.h.h.h.h.h.h.h.h.h.h.h.h.W + =.h.h.h.h.h.h.h.  h h h h h h h h   ",
"  h h h h g h h   h.h.h.h.h.h.=.+ W h.h.h.h.h.h.h.h.h.h.h.h.h.h.h.h.h.h.h.h.h.h.h.h.h.h.h.$.X ;.h.h.h.h.h.h.  h h h h h h h h   ",
"  h h h h h h h   z.h.h.h.h.;.+ W h.h.z.h.h.h.z.h.h.h.h.z.h.h.g.z.h.h.z.h.h.z.h.h.z.h.z.h.h.$.o ;.h.z.h.h.z.  h h j h j j j h   ",
"  h h h h h h h   h.z.z.h.;.+ $.z.z.z.z.h.z.h.z.z.h.z.h.z.z.;.$ i.z.z.h.h.z.z.h.z.z.h.z.z.z.z.$.+ ;.z.z.z.z.  j j j h j j j j   ",
"  j h j j j h j   z.z.z.;.+ $.z.z.z.z.z.z.z.z.z.z.z.z.z.z.;.+ E $ ;.z.z.z.z.z.z.z.z.z.z.z.z.z.z.$.+ ;.z.z.z.  j j h j j j h j   ",
"  j h h h j j j   z.z.;.+ $.z.z.z.z.z.z.z.z.z.z.z.z.z.z.;.+ $.z.$.+ :.z.z.c.z.z.c.z.z.z.z.z.z.z.z.$.+ ;.z.c.  j j j j j j j j   ",
"  j j j j h j j   c.:.+ $.c.c.z.z.c.c.z.c.c.z.c.c.z.c.:.+ $.c.c.c.$.X :.c.z.c.c.c.z.c.c.c.c.c.c.z.c.%.X ;.c.  j j j j k j j j   ",
"  j j j j j j j   :.+ $.c.c.c.c.c.c.c.c.c.c.c.c.c.c.:.+ %.c.c.c.c.c.%.+ :.c.c.c.c.c.c.c.c.c.c.c.c.c.c.$.+ :.  j k j k j k k j   ",
"  j k j j j j k   $ %.c.c.c.c.c.c.c.c.c.c.c.c.c.c.:.+ %.c.c.c.c.c.c.c.%.+ :.c.c.c.c.c.c.c.c.c.c.b.c.b.c.%.+   k j k j k k j k   ",
"  j j j k j k j   k.c.c.c.c.b.c.c.b.c.c.c.c.c.c.:.+ %.b.c.b.b.c.c.b.c.c.%.+ :.b.b.b.c.b.b.c.b.c.b.c.c.b.c.%.  j k k k j k k k   ",
"  k k j k k j k   b.b.b.b.b.c.b.b.b.b.b.b.b.b.t.+ %.b.c.b.b.c.b.b.b.b.b.b.%.+ t.b.c.b.b.b.b.b.b.b.b.b.b.n.n.  k k k k k k k k   ",
"  k k k k k k k   n.b.b.x.x.b.b.n.b.n.b.b.b.t.+ &.b.b.b.b.b.b.b.b.b.b.b.n.n.%.# t.b.b.b.b.n.n.n.b.n.b.b.n.b.  k k l l k k k k   ",
"  k k k k k k k   n.n.v.t.i d.n.n.n.n.b.n.t.+ &.n.n.n.n.n.n.n.n.n.n.n.b.n.n.n.&.X t.n.n.n.n.n.n.n.l.K y.v.n.  k l k k k k l l   ",
"  k k k k k k k   n.n.d.y # L n.n.n.n.n.t.+ &.n.n.n.n.n.n.n.n.n.n.n.n.n.n.n.n.n.&.+ t.n.n.n.n.n.n.L # y j.n.  l k k l l l k k   ",
"  k l k k j l k   n.n.b.y.K l.n.n.n.n.t.+ &.n.n.n.n.n.n.n.n.n.n.n.n.n.n.n.n.n.n.n.&.+ t.n.n.n.n.n.j.i t.v.n.  l l l l k l l l   ",
"  l l k a 5 j l   n.n.n.n.n.n.n.n.n.t.# &.n.n.n.n.n.n.n.n.n.n.n.n.n.n.n.n.n.n.n.n.n.&.+ t.n.n.n.n.n.v.b.n.n.  l l g 2 j l l l   ",
"  k l f = o 6 l   v.n.n.n.n.n.n.n.v.$ &.n.n.n.n.n.n.n.n.n.n.n.n.n.n.n.n.n.n.n.n.n.n.n.&.X t.n.n.n.n.n.n.n.n.  l k <   1 l l l   ",
"  l l k d 6 k l                                                                                               d l a & d l l l   ",
"  l l l l l l d . a l l z l l l l l z l l l l z l l l z l z l z l l z l l z l z l z l z z k l z l z z l l z a . f k g l z z z   ",
"  l l l l l d . a k j l l l z l z l z z l z z l l z l z l l z l z z z z z l z z l z l z l z z z z l z l k h l a . d z z z z z   ",
"  l z z z f . a l s 2 g z z z z z z z l l z z z z z z z z z z z z z z z z z z z z z z z z z z z z z z l s < d z s . f z z z z   ",
"  z z z f . s z j 2 O 7 z z z z z z z z z z z z z z z z z z z z z z z z z z z z x z z z z z z z z z x l 6 % 5 l z a . f z z z   ",
"  z z f . a z z l h 7 k z z z z z z z z z z z z z z z x z z z z z z z z x z z z x z z x z z x z x x z x k p h x z x s . f x z   ",
"  z f . s z z z x z x z z z z x x z z z x z z z z z x z x z x x x z x x z x x z x x x z x x x x x x z x x x x x x x x s o f x   ",
"  f . s z x x z z x z z z x z x z x x x x x x x x x x x x x x x x x x x x x x x x x x x x x x x x x x x x x z x x x x x s . f   ",
"  . s x x x x x x x x x x x x x x x x x x x x x x x x x x x x x x x x x x x x x x x x x x x x x x x x x x x x x x x x x x s .   ",
"                                                                                                                  .             "
};
