/* XPM */
static char *c4112fec8ecf40999135f05b3f63f07eMcjNJgEyLC1Cl3oG[] = {
/* columns rows colors chars-per-pixel */
"64 64 228 2 ",
"   c #1E1E18",
".  c #293B0D",
"X  c #252314",
"o  c #292515",
"O  c #332C1A",
"+  c #253D18",
"@  c #383019",
"#  c #211827",
"$  c #2A2828",
"%  c #382B2B",
"&  c #24382A",
"*  c #35322D",
"=  c #283634",
"-  c #4C3814",
";  c #513F19",
":  c #402D2D",
">  c #572D25",
",  c #453A20",
"<  c #4B352C",
"1  c #58372A",
"2  c #473131",
"3  c #4B3431",
"4  c #4A3B38",
"5  c #573C34",
"6  c #70392A",
"7  c #2D430A",
"8  c #264B0B",
"9  c #384B09",
"0  c #275907",
"q  c #2C4A11",
"w  c #35471B",
"e  c #2B6301",
"r  c #276800",
"t  c #2B6805",
"y  c #386605",
"u  c #336C00",
"i  c #3C6B02",
"p  c #397306",
"a  c #346C1A",
"s  c #2F4E31",
"d  c #346222",
"f  c #3D6936",
"g  c #54540F",
"h  c #484E18",
"j  c #4A5419",
"k  c #5C5411",
"l  c #664C1B",
"z  c #684C1B",
"x  c #76471B",
"c  c #65521B",
"v  c #6D501C",
"b  c #446B03",
"n  c #466806",
"m  c #48750A",
"M  c #537A0C",
"N  c #4D6914",
"B  c #4D7215",
"V  c #62780E",
"C  c #5C4825",
"Z  c #49562F",
"A  c #5C4539",
"S  c #664C22",
"D  c #7B4C21",
"F  c #6C5223",
"G  c #6F5428",
"H  c #7A5B28",
"J  c #69433B",
"K  c #78473B",
"L  c #51692A",
"P  c #516838",
"I  c #4D7A3E",
"U  c #766534",
"Y  c #203F48",
"T  c #344548",
"R  c #2E4D52",
"E  c #33704F",
"W  c #275C62",
"Q  c #375B62",
"!  c #376D6F",
"~  c #4B4A47",
"^  c #5A4C47",
"/  c #52564C",
"(  c #495655",
")  c #575959",
"_  c #624D44",
"`  c #685644",
"'  c #635B55",
"]  c #6A5C51",
"[  c #556A43",
"{  c #516950",
"}  c #68675A",
"|  c #76675A",
" . c #607F54",
".. c #605F66",
"X. c #436666",
"o. c #556F64",
"O. c #466B71",
"+. c #4A7A7A",
"@. c #686765",
"#. c #767466",
"$. c #696E71",
"%. c #6C7775",
"&. c #767A73",
"*. c #863724",
"=. c #963823",
"-. c #A13D29",
";. c #835B1F",
":. c #815F28",
">. c #914C36",
",. c #AD4E34",
"<. c #85632B",
"1. c #8A662C",
"2. c #886A2A",
"3. c #867428",
"4. c #907E29",
"5. c #896730",
"6. c #8A6936",
"7. c #876B3C",
"8. c #847539",
"9. c #C55C38",
"0. c #D4673E",
"q. c #8C5B45",
"w. c #8A664A",
"e. c #917E4F",
"r. c #946A52",
"t. c #987257",
"y. c #B56946",
"u. c #B37755",
"i. c #937666",
"p. c #A67F6C",
"a. c #368502",
"s. c #398405",
"d. c #368408",
"f. c #428A0B",
"g. c #42880D",
"h. c #5B860E",
"j. c #459706",
"k. c #4C9D05",
"l. c #549D0B",
"z. c #5A9E0A",
"x. c #559417",
"c. c #669910",
"v. c #4CA505",
"b. c #4CAB03",
"n. c #48A30A",
"m. c #54A505",
"M. c #56A40A",
"N. c #48A411",
"B. c #57A414",
"V. c #71AD12",
"C. c #558A2E",
"Z. c #658C37",
"A. c #3D807C",
"S. c #5E994F",
"D. c #6E8376",
"F. c #7A897C",
"G. c #8B8225",
"H. c #96852A",
"J. c #948535",
"K. c #A1B92B",
"L. c #A5B734",
"P. c #B3CB2D",
"I. c #B7D32E",
"U. c #ADC738",
"Y. c #B3CD32",
"T. c #B1CD38",
"R. c #92845A",
"E. c #A4875F",
"W. c #9DB145",
"Q. c #BDAC4C",
"!. c #908869",
"~. c #878878",
"^. c #AB8367",
"/. c #BA8963",
"(. c #B3916E",
"). c #C1845E",
"_. c #E98F53",
"`. c #CB946C",
"'. c #CDAD7F",
"]. c #E3AA7A",
"[. c #B2C843",
"{. c #787082",
"}. c #3B8A8A",
"|. c #478587",
" X c #568887",
".X c #518A93",
"XX c #469697",
"oX c #599699",
"OX c #6C8F8F",
"+X c #7A8784",
"@X c #64A49D",
"#X c #4F9EA7",
"$X c #52A5AC",
"%X c #5CB5BD",
"&X c #6EB1AE",
"*X c #60BBC3",
"=X c #69C2CD",
"-X c #6BC8D4",
";X c #74D4E2",
":X c #838B89",
">X c #9C988A",
",X c #8C9892",
"<X c #8C9994",
"1X c #AB9483",
"2X c #92A28F",
"3X c #98A49B",
"4X c #A4A699",
"5X c #ACB096",
"6X c #9FABA1",
"7X c #A4AEA5",
"8X c #AAB5AA",
"9X c #B6B8A8",
"0X c #B2B9AE",
"qX c #B5BCB0",
"wX c #D1B693",
"eX c #A2CABF",
"rX c #BDC3B6",
"tX c #DDC59A",
"yX c #F5CB94",
"uX c #C2C9B9",
"iX c #C5C8BC",
"pX c #84CACD",
"aX c #CCCFC1",
"sX c #CDD0C1",
"dX c #D8D8C9",
"fX c #E0DFCE",
"gX c #E1E0CF",
"hX c #E8E4D4",
/* pixels */
", ] ] ] ] ] ] e.e.e.e.e.e.e.e.e.;.;.;.] ] ] ] ] ] ] ] ] ] ] ) ) , ] ` ] ] ] ] R.e.e.e.e.e.e.e.e.;.;.;.] ] ] ] ] ] ] ] ] ] ] , , ",
";.;.;.;.;.;., , e.] ;.;.;.;.;.;.;.] ] , ] ] ;.;.;.;.;.;.] ] ] ] ] ] ;.;.;.;., - ] ] ;.;.;.;.;.;.;.] ] , ] ] ;.;.;.;.;.;.] ] ] ] ",
";.;.;.;.;.;.;., , , , ] ] ] ] , , , , ] ;.;.;.;.;.;.;.e.e.;.;.] D ;.R.;.;.;.;., , , , ] ] ] ] , , , , ] ;.;.;.;.;.;.;.e.e.;.;.] ",
";.;.;.;.;.;.;.] ] ] ] , ;.;.;.] , , ] ;.;.e.e.e.e.;.e.e.e.e.;.;.;.R.8.R.;.;.;.] ] ] ] , ;.;.;.] , , ] ;.;.e.e.e.e.;.e.e.e.e.;.;.",
"e.e.e.;.;.] ] ;.;.;.;.] ;.;.;.;.;.] ] ;.e.e.e.e.e.;.;.e.e.e.e.e.;.e.e.R.;.] ] ;.;.;.;.] ;.;.;.;.;.] ] ;.e.e.e.e.e.;.;.e.e.e.e.e.",
"e.e.e.;.] ;.;.e.e.e.e.;.] ;.;.;.;.;.] ;.;.e.e.e.e.e.;.;.;.e.e.e.;.e.;.;.] ;.;.R.e.e.e.;.] ;.;.;.;.;.] ;.;.e.e.e.e.e.;.;.;.e.e.e.",
"e.;.;.;.;.;.;.;.;.e.e.e.;.] ] ;.;., , ] ] ;.e.e.e.e.e.e.e.e.e.;.` ;.;.] ;.;.;.;.e.e.e.e.;.] ] ;.;., , ] ] ;.e.e.e.e.e.e.e.e.e.;.",
";.;.e.e.e.e.e.;.;.;.e.e.e., ] ] ] , ;.;.;.] ] ] ;.;.e.e.e.e.;.;.] ;.` ;.e.e.e.;.;.;.e.e.e., ] ] ] , ;.;.;.] ] ] ;.;.e.e.e.e.;.;.",
";.e.e.e.e.e.e.e.e.;.e.e.e.;., ] ] ] ;.;.;.;.;., , ] ] ;.:.g.;.} ] ] f.e.e.e.e.e.e.;.e.e.e.;., ] ] ] ;.;.;.;.;., , ] ] ;.;.;.;.;.",
"e.e.e.e.e.e.e.e.e.e.;.;.e.;., , ;.;.;.;.;.;.;.f.;., ] ] t.Y.f.#.H.i x.e.e.e.e.e.e.e.;.;.e.;., , ;.;.;.;.;.;.;.;.;., ] ] ;.;.;.] ",
"e.e.e.e.e.e.e.e.;.;.;.e.e.;.] , ;.;.;.;.;.;.;.i T.;., Z M.m.s.#.H.l.m.e.e.e.e.e.;.;.;.e.e.;.] , ;.;.;.;.;.;.;.e.e.;., , ] ] ] ] ",
"e.e.e.e.e.e.e.e.e.e.e.;.;.] ] ] ;.;.;.;.;.;.e.e.B.;., B.B.8.7.J.7.x.4.{.e.a.b.e.e.e.e.;., , ] ] ;.;.;.;.;.;.e.e.e.;., , , , ] ] ",
"] ;.e.e.e.e.e.e.e.;.;.;.;.;.;.] ] , , ;.;.;.;.;.f.k.x.Z.!.%.&.&.~.S.| $.s.U.M e.e.;.;., ] ;.;.] ] , , ;.;.;.;.;.] , ] ;.;.;.;.;.",
";.] ] ] ;.e.e.;., ] ] ] ;.;.;.;.;.;.;.] ] ] ] ] , e. .F.6X7X7X7X8X>Xi.I W.z.] :.] ] ] ] ;.;.;.;.;.;.;.] ] ] ] ] , , , ;.e.e.e.;.",
";.;.;.;.] ] ] , , ;.;.;.;.;.;.;.;.;.;.;.e.e.e.;.' | +X7XqXuXuXuXuX0X3X%.Z.p ] ] ] z ] ;.;.;.;.;.;.;.;.;.e.e.e.] ] , ;.e.e.e.;.;.",
";.;.;.] ] , ] ] ] ;.;.e.e.e.e.e.;.;.;.e.e.e.e.:.) &.3X8X0XrXuXuXqX9X8X,X .8.5.z z 1.] ;.e.e.e.e.;.;.;.e.e.e.e.e.] ] ;.e.e.e.e.e.",
"e.;.;.] , ] ] ;.;.e.e.e.e.e.;.;.;.;.;.;.e.[.:.' @.+X6X6X0XiXaXaXrX7X6X<X%.Z y H.1.5.] ;.e.e.;.;.;.;.;.;.e.e.e.e.;.] ;.e.e.e.e.e.",
"e.e.e.;.] ;.;.e.e.e.e.e.e.;.e.e.e.e.e.e.e.b.g.' @.:X<X7XaXdXgXdXdX0X6X3XD.} x.1.1.1.z ] ;.;.;.e.e.e.e.e.e.e.e.e.;.] ;.e.e.e.e.e.",
"e.e.e.;.] ;.e.e.e.e.e.e.e.e.e.e.e.e.e.;.] ] l.L #.+X,X0XdXgXhXhXgXiX<X+X%.{ 3.v.m.u M.] ] ;.i R.e.e.e.e.e.e.;.;., , , ;.e.e.e.e.",
"e.e.;.;.] ] ;.e.e.e.e.e.e.e.e.e.e.e.;.] F G 1.C.@.%.{.0XaXsXhXfXaXrX+X$.$.[ w w 3.U U.2.] U.u M e.e.;.] , , , , , , , ;.;.;.;.e.",
"e.;.] ] , ] ] ;.e.e.e.e.e.e.e.e.:.] l.5.i b 1.C.) ) %.4X0XqXiXrX0X7X{...) P N.b.7 2 m.u m.m.] ] ;.] ] , ;.;.;.;.;.;., , , , ;.;.",
"] ] , ] ] ;.;.] ] ;.e.e.e.e.e.;.] i L.7.Y.c Q.j Z / | :X>X7XwX9X7X>X&.] ^ I L.7 : < u m.m.b 1.] ] u ;.e.;.;.;.;.e.e.;.;.;., , , ",
", , ] ;.;.;.;.;.;.] , ;.e.;.] ] ] u m.i m.H.5.* 2 R.t.i.wXwXtXtXwXwXp.r.J U p 1.l < m i b H.6.<.T.i e.e.e.e.e.;.e.e.e.e.e.;., , ",
"] ;.;.;.;.;.e.e.e.;., , , , , ] <.u k.m.g H.z % $ r.t.u.).).`.wX`.u.u.q.4 w . a.b.e H.H.< C M m.m.] e.e.e.e.e.e.e.e.e.e.e.;.;., ",
"] ;.e.e.e.e.e.e.;., , ] ] ] ] S 1.l j.z <.H.r X $ ^ ^ q.1X| q._.>.i.p._ % o 0 b.I.I.y z z g m.m.b ] ;.e.e.e.e.e.e.e.e.e.;.;.;.;.",
"] ] ;.e.e.e.;., , , ;.;.;.;.] z 1.l 2 r 7 a.7 c.. N * 1 wX#.t.].` >X1X2 + 9 v.I.b.7 p <.1.n u i 6.] ] :.e.e.e.e.e.e.e.e.e.e.;.;.",
";.] ] ] ] ] ] ;.;.;.;.;.;.;.] 1.H.2 a.b.r a.a.I.7 e % @ p.(.'.yX^.(.r.O u r b.r 7 X b.9 v 1.1.c z ] ~ u ;.;.e.e.;.;.;.e.e.e.e.e.",
";.] , , , ;.;.;.;.e.e.;.e.;.u 1.z 7 7 I.a.r I.b.a.I.h.h S /.yXyX].q.5 ; m Y.a.X r r 7 b.z z v 1.1.z i T.;.;.;.;.e.;.e.e.e.e.e.e.",
"] ] ;.;.;.;.;.e.e.e.;.;.e.;.m.m.b 1.z r I.a.V.a.a.h.D *.6 >.u./.u.>.6 *.x h.X 7 a.b.r 7 v z m Y.z 1.M.m.;.;.;.e.e.e.e.e.e.e.e.e.",
"] ;.;.;.;.;.;.;.;.;.;.;.;.e.p Y.m.H.1.7 b.a.b.a.v.k =.=.=.>.y./.u.,.-.=.*.k . 7 r b.5.z 7 v B m.6.z m.b ] , ;.;.e.e.e.e.e.e.;.;.",
"] ;.;.;.;.;.e.e.e.e.;.;.e.] :.u M.1.1.r 7 b.a.r d P _ 6 -.9._._._.0.,.*.5 P x.w a.r I.b.a.5.1.u u m.b 2.] ] ;.;.;.e.e.e.e.;.] , ",
", , ;.;.;.;.e.e.e.e.!.} ] 1.z g m.c b.r a.r 7 2 I  X|.( J w.u.E.^.t.K ~ +.XXS.t m.e r P.v.z 1.z u l.v 5.1., , ] ] ;.e.;.;.] , , ",
", ] ] ] ] ] ] ;.e.B u 1X, v.z z H.z Z.s.s.Y.m.s.f oX%X|.X.A.@X&X&X XQ ! $X$XE B.I.7 a.r 7 a.7 2 2 C v b.b.u 1.] ] ] ] ] ] ] ] ] ",
";.;.;.;.;.;., , ] m T.u 1.r g.H.z S b.a.r b.b.I.f .X-XoXO.}.%X-X=X#X!  X-X$XE U.a.7 a.b.r a.a.7 2 z v.1.H.H.H.] ;.;.;.;.] ] ] ] ",
";.;.;.;.;.;.;., , , u m.m z r 1.2 2 < C a.r z a.d D.eX+Xo.o.,X8X2X&.{ +XeX Xd n.r 7 7 b.a.r b.I.7 r u H.H./ ] ] ;.;.;.e.e.;.;.] ",
";.;.;.;.;.;.;.] ] ] , u m.Q.z @ a.b.a.2 B a.H.z   !.wX~.o.} ~.5X2X .o.F.wX} 8 a.r b.7 r b.2 I.a.o F z 1.~ ] ;.e.e.;.e.e.e.e.;.;.",
"e.e.e.;.;.] ] ;.;.;.] , m.H.H.C A 2 b.b.a.b.8 o @ r./.} ! .X&XpX=XoXA.@.(.` 8 . a.b.a.X 2 a.m.o :.m.1.l , ;.;.e.e.;.;.e.e.e.e.e.",
"e.e.e.;.] ;.;.e.e.e.;.] , 1.H.<.J.: X b.b.r 7 b.  J 5 s W |.*X;X-X#X! T A j . X X I.b.X o a.2 1.1.u m.l , ;.e.e.e.e.;.;.;.e.e.e.",
"e.;.;.;.;.;.;.;.;.e.e.] ] , 1.u m.i e X j.r b.a.b.0 $ = ~ ' +XOXD.X.Y = L f.r o 2 o I.r 2 o G z H.<.m.2 ] ;.e.e.e.e.e.e.e.e.e.;.",
";.;.e.e.e.e.e.;.;.;.e.;.] ] , T.u z < p o 7 I.7 a.b.q > q.,.,.5 5 6 1 w j.a.r 7 2 3 7 b.o 4 z J.H.1.u , , ] ] ] ;.;.e.e.e.e.;.;.",
";.e.e.e.e.e.e.e.e.;.e.e.;.] m.m.u 5.z X b.7 V.7 8 b.- *.9.0.-.> 5 K ^ s d.7 d.a.  2 O a.3 4.J.z.1.C v , ;.;.;., , ] ] ;.;.;.;.;.",
"e.e.e.e.e.e.e.e.e.e.;.;.e.] m.b 1.c z z X b.7 X t d.j 6 q.r._ * R O.|.Q a . a.b.X < < a.6.U n T.1.z , ] ;.;.;.;.;., ] ] ;.;.;.] ",
"e.e.e.e.e.e.e.e.;.;.;.e.e., m.1.m.v.u L.2 r r a.b.w [ X.X.X.Q R ! $X%X|.s a 2 o a.S M.1.n U 5 b.a.~ ;.;.;.;.;.e.e.;., , ] ] ] ] ",
"e.e.e.e.e.e.e.e.e.e.e.;.;., , v., , v m.c.z a.I.X s +.XXXX}.W R Q |..X! = $ < 2 < u L.7.U.l H.2 b.a.;.;.;.;.e.e.e.;., , , , ] ] ",
"] ;.e.e.e.e.e.e.e.;.;.;.] ' u r ] , <.u z.2 b.r   = Q |.! W R & = s s * Z % <.5 1.u m.u m.H.l z 4.b.] ;.;.;.;.;.] , ] ;.;.;.;.;.",
";.] ] ] ;.e.e.;., ] ] ] ] ;.;.;.] ] , i z.F 2 X 8 L d = & d + 0 : H G C H 3.v.b.i u k.m.1.z H.H.<.b.V ] ] ] ] ] , , , ;.e.e.e.;.",
";.;.;.;.] ] ] , , ;.;.;.;.;.;.;.:.] ] , y C z 7 v.j.X * 7 K.0 e C u l z 4.b.4.S z 1.k.u z , , , ] b N ] e.e.e.] ] , ;.e.e.e.;.;.",
";.;.;.] ] , ] ] ] ;.;.e.e.e.e.e.;.;.] , G.6.6.O a.X 2 X d.b.2 7 l m.m.b r e Q.J.1.1., , , :.e.e.;.] ] e.e.e.e.e.] ] ;.e.e.e.e.e.",
"e.;.;.] , ] ] ;.;.e.e.e.e.e.;.;.u m.m.] 1.M.m.5.s.2 1.X b.o # 2 1.i T.M.1.< < , , , , ;.;.e.;.;.;.;.;.;.e.e.e.e.;.] ;.e.e.e.e.e.",
"e.e.e.;.] ;.;.e.e.e.e.e.e.;.e.e.e.i T.] M.T.u S z z l s.@ 2 F $ 1.G.i m.1.z , ] ] ;.;.e.e.;.e.e.e.e.e.e.e.e.e.e.;.] ;.e.e.e.e.e.",
"e.e.e.;.] ;.e.e.e.e.e.e.e.e.e.e.e.e.i m.m.u <.1.Q.H.z l l.5.i y z <.u m.i z ] ;.;.e.e.e.e.e.e.e.e.e.e.e.e.e.;.;.] , ] ;.e.e.e.e.",
"e.e.;.;.] ] ;.e.e.e.e.e.e.e.e.e.e.R.;.u u , , , H.z H.y L.z U.z z z H u i v ] ;.e.e.e.e.e.e.e.e.e.e.;.] , , , , , , , ;.;.;.;.e.",
"e.;.] ] , ] ] ;.e.e.e.e.e.e.e.e.;.] ] , ;.;.;.;., , 1.i m.u m.1.z 1.z , , w.] ] e.e.e.e.e.e.e.e.;.] ] , ;.;.;.;.;.;., , , , ;.;.",
"] ] , ] ] ;.;.] ] ;.e.e.e.e.e.;.;.] ;.e.;.;.;.;.;.;., u k.m.u 1., , , ] ] ;.] ] ] ;.e.e.e.e.e.;.;.] ;.e.;.;.;.;.e.e.;.;.;., , , ",
", , ] ;.;.;.;.;.;.] , ;.e.;.] ] ] ;.e.e.e.e.e.;.e.e.e.e.l.b , , ] ] ] :.;.;.;.;.;.] , ;.e.;.] ] ] ;.e.e.e.e.e.;.e.e.e.e.e.;., , ",
"] ;.;.;.;.;.e.e.e.;., , , , , , , ] e.e.e.e.e.e.e.e.e.e.e.;.:., ] ;.;.;.;.;.e.e.e.;., , , , , , , ] e.e.e.e.e.e.e.e.e.e.e.;.;., ",
"] ;.e.e.e.e.e.e.;., , ] ] ] ] , , , ;.e.e.e.e.e.e.e.e.e.;.;.;.;.] ;.e.e.e.e.e.e.;., , ] ] ] ] , , , ;.e.e.e.e.e.e.e.e.e.;.;.;.;.",
"] ] ;.e.e.e.;., , , ;.;.;.;.;.] ] ] ] ;.e.e.e.e.e.e.e.e.e.e.;.;.] ] ;.e.e.e.;., , , ;.;.;.;.;.] ] ] ] ;.e.e.e.e.e.e.e.e.e.e.;.;.",
";.] ] ] ] ] ] ;.;.;.;.;.;.;.e.;.;.;., , ;.;.e.e.;.;.;.e.e.e.e.e.;.] ] ] ] ] ] ;.;.;.;.;.;.;.e.;.;.;., , ;.;.e.e.;.;.;.e.e.e.e.e.",
";.] , , , ;.;.;.;.e.e.;.e.e.e.e.;.;.;.;., ;.;.;.e.;.e.e.e.e.e.e.;.] , , , ;.;.;.;.e.e.;.e.e.e.e.;.;.;.;., ;.;.;.e.;.e.e.e.e.e.e.",
"] ] ;.;.;.;.;.e.e.e.;.;.e.e.e.e.e.e.e.;.] ] ;.e.e.e.e.e.e.e.e.e.] ] ;.;.;.;.;.e.e.e.;.;.e.e.e.e.e.e.e.;.] ] ;.e.e.e.e.e.e.e.e.e.",
"] ;.;.;.;.;.;.;.;.;.;.;.;.e.e.e.e.e.e.e.] , ] ;.e.e.e.e.e.e.;.;.] ;.;.;.;.;.;.;.;.;.;.;.;.e.e.e.e.e.e.e.] , ] ;.e.e.e.e.e.e.;.;.",
"] ;.;.;.;.;.e.e.e.e.;.;.e.e.e.e.e.e.e.e.;.] , ] ;.e.e.e.e.;.] , ] ;.;.;.;.;.e.e.e.e.;.;.e.e.e.e.e.e.e.e.;.] , ] ;.e.e.e.e.;.] , ",
", , ;.;.;.;.e.e.e.e.e.e.e.e.e.e.e.e.e.;.] , , ] ] ;.e.;.;.] , , , , ;.;.;.;.e.e.e.e.e.e.e.e.e.e.e.e.e.;.] , , ] ] ;.e.;.;.] , , "
};
