/* XPM */
static char *ef36651fd2f341b5f7afc3b1caec222b05Hm47ziwVgzdRnQ[] = {
/* columns rows colors chars-per-pixel */
"64 64 145 2 ",
"   c #2A281B",
".  c #332E1C",
"X  c #3C331C",
"o  c #261E2B",
"O  c #343124",
"+  c #3B3729",
"@  c #2D2530",
"#  c #473D25",
"$  c #513A2F",
"%  c #493434",
"&  c #4E3832",
"*  c #433D3F",
"=  c #503A34",
"-  c #314512",
";  c #394614",
":  c #364817",
">  c #2F6503",
",  c #2B6800",
"<  c #3B6705",
"1  c #346C01",
"2  c #3B6C04",
"3  c #34640A",
"4  c #3A660D",
"5  c #34690C",
"6  c #3C6C0C",
"7  c #3D7005",
"8  c #3E710C",
"9  c #3C7E0C",
"0  c #3F4A2B",
"q  c #3E582E",
"w  c #415E0B",
"e  c #474D19",
"r  c #4F591A",
"t  c #5A5517",
"y  c #505B11",
"u  c #654F1E",
"i  c #406B07",
"p  c #45660B",
"a  c #4A630E",
"s  c #456B0A",
"d  c #4A6A0C",
"f  c #44710C",
"g  c #406A15",
"h  c #4D6B12",
"j  c #4B6F1F",
"k  c #586816",
"l  c #4B7415",
"z  c #457A16",
"x  c #577511",
"c  c #527B16",
"v  c #507318",
"b  c #627716",
"n  c #5D4527",
"m  c #5A4229",
"M  c #5E4E2A",
"N  c #564135",
"B  c #5A4236",
"V  c #53403C",
"C  c #4D5733",
"Z  c #535D33",
"A  c #654C23",
"S  c #684D20",
"D  c #644D28",
"F  c #655321",
"G  c #6C5124",
"H  c #615129",
"J  c #6D532B",
"K  c #725425",
"L  c #725924",
"P  c #70572B",
"I  c #7D5F2D",
"U  c #76642D",
"Y  c #78603C",
"T  c #4D4E4A",
"R  c #53544C",
"E  c #545755",
"W  c #6A5C52",
"Q  c #7A7664",
"!  c #825B24",
"~  c #805F2C",
"^  c #85642F",
"/  c #88652F",
"(  c #826E2A",
")  c #8A772B",
"_  c #8D7B2D",
"`  c #90772F",
"'  c #907C2E",
"]  c #866532",
"[  c #896630",
"{  c #8A6A32",
"}  c #86663C",
"|  c #86683A",
" . c #8B6B39",
".. c #9A7E3B",
"X. c #816B46",
"o. c #8D6E40",
"O. c #907D50",
"+. c #977F5F",
"@. c #398408",
"#. c #42830A",
"$. c #4D950C",
"%. c #4C9C0C",
"&. c #448715",
"*. c #498416",
"=. c #468817",
"-. c #538413",
";. c #559B13",
":. c #5B9C13",
">. c #5D9B1D",
",. c #649316",
"<. c #4EA30C",
"1. c #4DAA0A",
"2. c #55A40D",
"3. c #58A30F",
"4. c #50AA0C",
"5. c #55A211",
"6. c #5AA312",
"7. c #54AA13",
"8. c #54A01A",
"9. c #58AA19",
"0. c #71AB19",
"q. c #5A892E",
"w. c #5B9629",
"e. c #739A20",
"r. c #658B3A",
"t. c #95842E",
"y. c #928334",
"u. c #968439",
"i. c #A3913F",
"p. c #A4B537",
"a. c #A9B935",
"s. c #A6B138",
"d. c #A6B83C",
"f. c #AFCA34",
"g. c #ADC63D",
"h. c #AFCA3B",
"j. c #B2CC33",
"k. c #B0CC3B",
"l. c #B6D232",
"z. c #B8A54B",
"x. c #BCAA4D",
"c. c #979068",
"v. c #B1C745",
"b. c #766382",
"n. c #A59583",
/* pixels */
"# W W W W W W O.O.O.O.O.O.O.O.O.! ! ! W W W W W W W W W W W E E # W W W W W W O.O.O.O.O.O.O.O.O.! ! ! W W W W W W W W W W W # # ",
"! ! ! ! ! ! # # O.W ! ! ! ! ! ! ! W W # W W ! ! ! ! ! ! W W W W W W ! ! ! ! # # W W ! ! ! ! ! ! ! W W # W W ! ! ! ! ! ! W W W W ",
"! ! ! ! ! ! ! # # # # W W W W # # # # W ! ! ! ! ! ! ! O.O.! ! W ! ! O.! ! ! ! # # # # W W W W # # # # W ! ! ! ! ! ! ! O.O.! ! W ",
"! ! ! ! ! ! ! W W W W # ! ! ! W # # W ! ! O.O.O.O.! O.O.O.O.! ! ! O.O.O.! ! ! W W W W # ! ! ! W # # W ! ! O.O.O.O.! O.O.O.O.! ! ",
"O.O.O.! ! W W ! ! ! ! W ! ! ! ! ! W W ! O.O.O.O.O.! ! O.O.O.O.O.! O.O.O.! W W ! ! ! ! W ! ! ! ! ! W W ! O.O.O.O.O.! ! O.O.O.O.O.",
"O.O.O.! W ! ! O.O.O.O.! W ! ! ! ! ! W ! ! O.O.O.O.O.! ! ! O.O.O.! O.! ! W ! ! O.O.O.O.! W ! ! ! ! ! W ! ! O.O.O.O.O.! ! ! O.O.O.",
"O.! ! ! ! ! ! ! ! O.O.O.! W W ! ! # # W W ! O.O.O.O.O.O.O.O.O.! W ! ! W ! ! ! ! O.O.O.O.! W W ! ! # # W W ! O.O.O.O.O.O.O.O.O.! ",
"! ! O.O.O.O.O.! ! ! O.O.O.# W W W # ! ! ! W W W ! ! O.O.O.O.! ! W ! W ! O.O.O.! ! ! O.O.O.# W W W # ! ! ! W W W ! ! O.O.O.O.! ! ",
"! O.O.O.O.O.O.O.O.! O.O.O.! # W W W ! ! ! ! ! # # W W ! ! &.! W W W z O.O.O.O.O.O.! O.O.O.! # W W W ! ! ! ! ! # # W W ! ! ! ! ! ",
"O.O.O.O.O.O.O.O.O.O.! ! O.! # # ! ! ! ! ! ! ! &.! # W W +.k.&.Q t.2 >.O.O.O.O.O.O.O.! ! O.! # # ! ! ! ! ! ! ! ! ! # W W ! ! ! W ",
"O.O.O.O.O.O.O.O.! ! ! O.O.! W # ! ! ! ! ! ! ! 6 k.! # q 2.2.&.Q ' 3.2.O.O.O.O.O.! ! ! O.O.! W # ! ! ! ! ! ! ! O.O.! # # W W W W ",
"O.O.O.O.O.O.O.O.O.O.O.! ! W W W ! ! ! ! ! ! O.O.9.! # 3.2.[ [ t./ $.y.b.O.@.1.O.O.O.O.! # # W W ! ! ! ! ! ! O.O.O.! # # # # W W ",
"W ! O.O.O.O.O.O.O.! ! ! ! ! ! W W # # ! ! ! ! ! &.2.:.*.[ # # # [ :.[ Q 9 v.c O.O.! ! # W ! ! W W # # ! ! ! ! ! W # W ! ! ! ! ! ",
"! W W W ! O.O.! # W W W ! ! ! ! ! ! ! W W W W W # t.&.# W ! ! W t.2 { @.v.;.W ! W W W W ! ! ! ! ! ! ! W W W W W # # # ! O.O.O.! ",
"! ! ! ! W W W # # ! ! ! ! ! ! ! ! ! ! ! O.O.O.! W / A W 6 *.! W S S u < 5.@.W W W S W ! ! ! ! ! ! ! ! ! O.O.O.W W # ! O.O.O.! ! ",
"! ! ! W W # W W W ! ! O.O.O.O.O.! ! ! O.O.O.O.! W 2./ W ! 2.=.% S [ [ < 1._ ^ S S ] W ! O.O.O.O.! ! ! O.O.O.O.O.W W ! O.O.O.O.O.",
"O.! ! W # W W ! ! O.O.O.O.O.! ! ! ! ! ! O.v.! W W 2.2.W ! ! %.9 % K - ..< , 2 t.[ { W ! O.O.! ! ! ! ! ! O.O.O.O.! W ! O.O.O.O.O.",
"O.O.O.! W ! ! O.O.O.O.O.O.! O.O.O.O.O.O.O.7.&.W o.7 2.% W W 9 <.+ - 1.- i.L <.] [ [ S W ! ! ! O.O.O.O.O.O.O.O.O.! W ! O.O.O.O.O.",
"O.O.O.! W ! O.O.O.O.O.O.O.O.O.O.O.O.O.! W W 8.-.x.z., 1.% [ ] <.e.- , - , @.` 2.2.1 :.W W ! 8 O.O.O.O.O.O.O.! ! # # # ! O.O.O.O.",
"O.O.! ! W W ! O.O.O.O.O.O.O.O.O.O.O.! W J J / 6.t.] , 1.- % @.[ a.- , l.@., - e ( U h.( W g.1 c O.O.! W # # # # # # # ! ! ! ! O.",
"O.! W W # W W ! O.O.O.O.O.O.O.O.! W :.{ 7 s [ 2.d S % , l., % { >.- l.1.@., 1.1.- % 2.1 2.3.W W ! W W # ! ! ! ! ! ! # # # # ! ! ",
"W W # W W ! ! W W ! O.O.O.O.O.! W 6 d.} h.F x.h a - , - @.l., % z @.1.@., 1.l.- % % 1 2.2.a / W W 6 ! O.! ! ! ! O.O.! ! ! # # # ",
"# # W ! ! ! ! ! ! W # ! O.! W W W 1 2.2 3.' [ % A 1.@.- @.l.1.% z 1., - @.l.@./ u & f 7 f t. ./ h.6 O.O.O.O.O.! O.O.O.O.O.! # # ",
"W ! ! ! ! ! O.O.O.! # # # # # W ] 1 %.2.r t.S % % - l.1., 1.1., g - o - 1.@.- @.1.3 t.t.% M x 2.2.W O.O.O.O.O.O.O.O.O.O.O.! ! # ",
"W ! O.O.O.O.O.O.! # # W W W W D ] A $.S ^ t.,   % - , l.@., 1.  d.- o , @.  , 1.j.l.w u u t 2.2.d W ! O.O.O.O.O.O.O.O.O.! ! ! ! ",
"W W ! O.O.O.! # # # ! ! ! ! W S / u % , - @.- 0.- @.- @.1.@.1.1.>.l.- o , , 1.l.1.- @.^ [ h 1 2 | W W ! O.O.O.O.O.O.O.O.O.O.! ! ",
"! W W W W W W ! ! ! ! ! ! ! W [ t.% @.1., @.@.l.- , % - 1.1.@.@.Z o 1.- @., 1., -   1.; S [ [ S u W R 5 ! ! O.O.! ! ! O.O.O.O.O.",
"! W # # # ! ! ! ! O.O.! O.! 2 [ S - - l.@., l.1.@.l.1.@., 4., , q.- - , @.l.@.  , , - 1.S S S { [ u 2 k.! ! ! ! O.! O.O.O.O.O.O.",
"W W ! ! ! ! ! O.O.O.! ! O.! 2.2.i [ S , l.@.0.@.@.1.@., 1.l.1., w., @., @.1.  - @.1., - G S l k.S / 3.3.! ! ! O.O.O.O.O.O.O.O.O.",
"W ! ! ! ! ! ! ! ! ! ! ! ! O.6 h.2.t.[ - 1.@.1.@.1., , @.l.@.1.@.* , 1., @.@.- - , 1.[ u - u v 3. .G 2.i W # ! ! O.O.O.O.O.O.! ! ",
"W ! ! ! ! ! O.O.O.O.! ! O.W I 1 6./ [ , - 1.@., , @., 1.@.- 1.f.C @.1., , @.1.- @., l.1.@./ { 1 1 3.f { W W ! ! ! O.O.O.O.! W # ",
"# # ! ! ! ! O.O.O.O.c.W W [ S y 2.F 1., @., - % @.1., @.  , @.<.0 2.@.; , <.2., 2.> > j.2.u / u 1 ;.G / / # # W W ! O.! ! W # # ",
"# W W W W W W ! O.l 1 n.# 4.S u y.S r.@.@.f.7.@.5 @.: j.@., l.1.1.l.@.- @.1., 1.l.- @., - @.- % % M G 1.1.2 [ W W W W W W W W W ",
"! ! ! ! ! ! # # W l k.1 / , &.t.S D 1.@., 1.1.l.@., - , l.@.0.@.#.1., - - l.@.l.@.- @.1., @.@.- % S %.[ t.t.t.W ! ! ! ! W W W W ",
"! ! ! ! ! ! ! # # # 1 3.l S , [ & % & n @., A @.1.@.@.- 1.@.1.@.@., , @.1.1 , 1., - - 1.@., 1.l.- , 1 t.t.R W W ! ! ! O.O.! ! W ",
"! ! ! ! ! ! ! W W W # 1 3.x.G X @.1.@.% j @.t.u   @.1., - 1.@., - , @., @.1.1 @., 1.- , 1.% l.@.. J F ] T W ! O.O.! O.O.O.O.! ! ",
"O.O.O.! ! W W ! ! ! W # 2.t.t.m N % 1.1.@.1.-   S   @., , - , , , , @., 1.- , - @.1.@.  % @.1.  ~ 2.^ S # ! ! O.O.! ! O.O.O.O.O.",
"O.O.O.! W ! ! O.O.O.! W # [ y.] u.%   1.1., - 1.  S - @.- - , @.@., 1 @.l.@.-     l.1.    @.% [ ] 1 2.S # ! O.O.O.O.! ! ! O.O.O.",
"O.! ! ! ! ! ! ! ! O.O.W W # [ 1 2.p >   %., 1.@.1., - @., @., @.@.  - , l.1.,   %   l., %   P S t.~ 2.% W ! O.O.O.O.O.O.O.O.O.! ",
"! ! O.O.O.O.O.! ! ! O.! W W # h.1 A % 9   - l.- @.1., - @., @.l., 1.- , 1.@., - % & - 1.  V u u.t./ 2 # # W W W ! ! O.O.O.O.! ! ",
"! O.O.O.O.O.O.O.O.! O.O.! W 2.2.1 ] S   2.- 0.- - 1.- - , @.l.@., l.@.- @.- @.@.  % . @.% u.t.:.[ D F # ! ! ! # # W W ! ! ! ! ! ",
"O.O.O.O.O.O.O.O.O.O.! ! O.W 5.d / F u u   1.-   , @., @., @.1.-   1.l.- @.- @.1.  % & @. .Y s h.[ S # W ! ! ! ! ! # W W ! ! ! W ",
"O.O.O.O.O.O.O.O.! ! ! O.O.# 5.] 2.2.1 s.% , , @.1.- 1., @., , , - @.1.@.- @.%   @.G :./ a Y = 1.@.T ! ! ! ! ! O.O.! # # W W W W ",
"O.O.O.O.O.O.O.O.O.O.O.! ! # # <.# # G 2.,.u @.l.  @.1.@.- , @., , - @.% ) % & % & 1 p.| g.S y.& 1.@.! ! ! ! O.O.O.! # # # # W W ",
"W ! O.O.O.O.O.O.O.! ! ! W W 5 > W # ] , :.% 1.,   1.l.,     @.1.% , , & t.% [ B [ 1 2.1 2.t.S S ) 1.W ! ! ! ! ! W # W ! ! ! ! ! ",
"! W W W ! O.O.! # W W W W ! ! ! W W e 2 :.J %   , l.1.    1., @.% _ / H / ' 1.1.2 2 %.2.[ F t.t.] 1.b W W W W W # # # ! O.O.O.! ",
"! ! ! ! W W W # # ! ! ! ! ! ! ! ! W W # 4 M u - 1.1.  % - j., , m 1 u S t.4.' D S [ %.1 S # # # W 4 k W O.O.O.W W # ! O.O.O.! ! ",
"! ! ! W W # W W W ! ! O.O.O.O.O.! ! W # _ {  .O @.  %   @.1.% - n 2.3.p , , x.u./ [ # # # ! O.O.! W W O.O.O.O.O.W W ! O.O.O.O.O.",
"O.! ! W # W W ! ! O.O.O.O.O.! ! 1 2.6.W [ 6.2.] @.% [   1.  o % [ 2 k.6.[ & $ # # # # ! ! O.! ! ! ! ! ! O.O.O.O.! W ! O.O.O.O.O.",
"O.O.O.! W ! ! O.O.O.O.O.O.! O.O.O.1 h.W 5.h.1 J S S S @.+ % J @ / t.1 2.[ S # W W ! ! O.O.! O.O.O.O.O.O.O.O.O.O.! W ! O.O.O.O.O.",
"O.O.O.! W ! O.O.O.O.O.O.O.O.O.O.O.O.f 2.2.2 ] ] x.t.S A 2.[ 6 4 S ^ 1 2.i S W ! ! O.O.O.O.O.O.O.O.O.O.O.O.O.! ! W # W ! O.O.O.O.",
"O.O.! ! W W ! O.O.O.O.O.O.O.O.O.O.O.! 1 1 # # # t.S t.4 p.S g.S S S I < 6 S W ! O.O.O.O.O.O.O.O.O.O.! W # # # # # # # ! ! ! ! O.",
"O.! W W # W W ! O.O.O.O.O.O.O.O.! W W # ! ! ! ! # # [ 2 2.2 2.[ S [ S # # X.W W O.O.O.O.O.O.O.O.! W W # ! ! ! ! ! ! # # # # ! ! ",
"W W # W W ! ! W W ! O.O.O.O.O.! ! W ! O.! ! ! ! ! ! # 2 %.2.2 [ # # # W W ! W W W ! O.O.O.O.O.! ! W ! O.! ! ! ! O.O.! ! ! # # # ",
"# # W ! ! ! ! ! ! W # ! O.! W W W ! O.O.O.O.O.! O.O.O.O.;.6 # # W W W ! ! ! ! ! ! W # ! O.! W W W ! O.O.O.O.O.! O.O.O.O.O.! # # ",
"W ! ! ! ! ! O.O.O.! # # # # # # # W O.O.O.O.O.O.O.O.O.O.O.! ! # W ! ! ! ! ! O.O.O.! # # # # # # # W O.O.O.O.O.O.O.O.O.O.O.! ! # ",
"W ! O.O.O.O.O.O.! # # W W W W # # # ! O.O.O.O.O.O.O.O.O.! ! ! ! W ! O.O.O.O.O.O.! # # W W W W # # # ! O.O.O.O.O.O.O.O.O.! ! ! ! ",
"W W ! O.O.O.! # # # ! ! ! ! ! W W W W ! O.O.O.O.O.O.O.O.O.O.! ! W W ! O.O.O.! # # # ! ! ! ! ! W W W W ! O.O.O.O.O.O.O.O.O.O.! ! ",
"! W W W W W W ! ! ! ! ! ! ! O.! ! ! # # ! ! O.O.! ! ! O.O.O.O.O.! W W W W W W ! ! ! ! ! ! ! O.! ! ! # # ! ! O.O.! ! ! O.O.O.O.O.",
"! W # # # ! ! ! ! O.O.! O.O.O.O.! ! ! ! # ! ! ! O.! O.O.O.O.O.O.! W # # # ! ! ! ! O.O.! O.O.O.O.! ! ! ! # ! ! ! O.! O.O.O.O.O.O.",
"W W ! ! ! ! ! O.O.O.! ! O.O.O.O.O.O.O.! W W ! O.O.O.O.O.O.O.O.O.W W ! ! ! ! ! O.O.O.! ! O.O.O.O.O.O.O.! W W ! O.O.O.O.O.O.O.O.O.",
"W ! ! ! ! ! ! ! ! ! ! ! ! O.O.O.O.O.O.O.W # W ! O.O.O.O.O.O.! ! W ! ! ! ! ! ! ! ! ! ! ! ! O.O.O.O.O.O.O.W # W ! O.O.O.O.O.O.! ! ",
"W ! ! ! ! ! O.O.O.O.! ! O.O.O.O.O.O.O.O.! W # W ! O.O.O.O.! W # W ! ! ! ! ! O.O.O.O.! ! O.O.O.O.O.O.O.O.! W # W ! O.O.O.O.! W # ",
"# # ! ! ! ! O.O.O.O.O.O.O.O.O.O.O.O.O.! W # # W W ! O.! ! W # # # # ! ! ! ! O.O.O.O.O.O.O.O.O.O.O.O.O.! W # # W W ! O.! ! W # # "
};
