/* XPM */
static char *c07e21a6835745f8df6f0195e6eff206JMTrkeo3vmxLXGFQ[] = {
/* columns rows colors chars-per-pixel */
"64 64 203 2 ",
"   c #252314",
".  c #282618",
"X  c #312C1A",
"o  c #3C3218",
"O  c #211827",
"+  c #2B2825",
"@  c #37342E",
"#  c #453A20",
"$  c #483D24",
"%  c #4E362C",
"&  c #50372B",
"*  c #473131",
"=  c #4A3332",
"-  c #4D3834",
";  c #543F36",
":  c #2D430A",
">  c #2C4313",
",  c #324512",
"<  c #3D581C",
"1  c #266503",
"2  c #2A6501",
"3  c #276800",
"4  c #2B6801",
"5  c #2C620E",
"6  c #356702",
"7  c #336C01",
"8  c #3B6B02",
"9  c #3A660A",
"0  c #397806",
"q  c #2B6915",
"w  c #367814",
"e  c #324423",
"r  c #395729",
"t  c #364736",
"y  c #3D5438",
"u  c #306528",
"i  c #376E2F",
"p  c #387923",
"a  c #366233",
"s  c #4F550F",
"d  c #664B1B",
"f  c #684C1B",
"g  c #65521B",
"h  c #6D501C",
"j  c #73581F",
"k  c #446B03",
"l  c #466806",
"z  c #57680E",
"x  c #4A750E",
"c  c #537A0C",
"v  c #4D7215",
"b  c #62780E",
"n  c #4D442A",
"m  c #5C4626",
"M  c #5E4C23",
"N  c #434A3B",
"B  c #405B36",
"V  c #4E5937",
"C  c #41543B",
"Z  c #664C22",
"A  c #6C5223",
"S  c #6F5428",
"D  c #785928",
"F  c #7E5E33",
"G  c #486635",
"H  c #4B7735",
"J  c #4F7C33",
"K  c #776429",
"L  c #7F6034",
"P  c #7A603A",
"I  c #473B44",
"U  c #374B47",
"Y  c #3D5546",
"T  c #3E6858",
"R  c #4A424E",
"E  c #494D48",
"W  c #50444B",
"Q  c #475646",
"!  c #56544A",
"~  c #4A4355",
"^  c #484654",
"/  c #4C465A",
"(  c #4F495C",
")  c #524A5C",
"_  c #58595C",
"`  c #604F49",
"'  c #645549",
"]  c #6A5C51",
"[  c #526C47",
"{  c #497658",
"}  c #697047",
"|  c #6F6156",
" . c #796E57",
".. c #706458",
"X. c #746D5C",
"o. c #796F58",
"O. c #544D62",
"+. c #4A5362",
"@. c #565164",
"#. c #5A5766",
"$. c #5B546A",
"%. c #635C73",
"&. c #645E78",
"*. c #4C6369",
"=. c #63626F",
"-. c #6E6D6D",
";. c #7C7768",
":. c #6C6772",
">. c #835B1F",
",. c #845E23",
"<. c #836E26",
"1. c #86632B",
"2. c #8A662C",
"3. c #8B692D",
"4. c #907C29",
"5. c #896730",
"6. c #8D6B34",
"7. c #876738",
"8. c #877631",
"9. c #937C31",
"0. c #826B44",
"q. c #917E4F",
"w. c #368502",
"e. c #398405",
"r. c #388802",
"t. c #45860E",
"y. c #4B870E",
"u. c #42880D",
"i. c #4A9606",
"p. c #4C9C05",
"a. c #549C0B",
"s. c #5B9D0A",
"d. c #479B10",
"f. c #4B9A12",
"g. c #5A9819",
"h. c #6A9816",
"j. c #4DA505",
"k. c #4CAB03",
"l. c #4AA30A",
"z. c #54A505",
"x. c #54A109",
"c. c #57A609",
"v. c #56A412",
"b. c #71AD12",
"n. c #498B25",
"m. c #658C37",
"M. c #498045",
"N. c #7D9048",
"B. c #5D886D",
"V. c #7B9978",
"C. c #8B8225",
"Z. c #95842A",
"A. c #958535",
"S. c #A4923D",
"D. c #A7B834",
"F. c #B3CD2E",
"G. c #B7D32E",
"H. c #AEC937",
"J. c #AEC63C",
"K. c #B3CD32",
"L. c #B1CD38",
"P. c #B5D031",
"I. c #948356",
"U. c #929254",
"Y. c #A39D53",
"T. c #B9A64A",
"R. c #BDAC4C",
"E. c #989168",
"W. c #879679",
"Q. c #B1A668",
"!. c #CBB65B",
"~. c #D3BD58",
"^. c #CEBC6B",
"/. c #B2C843",
"(. c #D9C157",
"). c #DAC35C",
"_. c #DDCB77",
"`. c #756782",
"'. c #697681",
"]. c #737284",
"[. c #73918E",
"{. c #7E8EA6",
"}. c #889A8B",
"|. c #A69684",
" X c #95A380",
".X c #A2AA91",
"XX c #87A0A8",
"oX c #DACC84",
"OX c #CCC593",
"+X c #E5D387",
"@X c #DAD1A7",
"#X c #D9D6B6",
"$X c #A7B9C6",
"%X c #BAC7D8",
"&X c #CDD4CC",
"*X c #C4CBDB",
"=X c #E0E1D0",
"-X c #C1CFE5",
";X c #C7D5E7",
":X c #D0DDF0",
">X c #DBE6F8",
",X c #E4EEFF",
"<X c #E6F0FF",
/* pixels */
"n ] ..........I.I.I.I.I.I.I.I.I.1.1.1......................._ _ n ..| | ......I.I.I.I.I.I.I.I.I.1.2.1.| ............| ......$ # ",
",.,.,.,.,.,.$ $ I.] ,.,.,.,.,.,.,.] ] $ ] | ,.,.,.,.,.,.| ] | | | | 1.>.,.,.n # ] ] ,.,.,.,.,.,.,.] ] $ ] ] ,.,.,.,.,.,.| ] ] ] ",
">.>.>.>.>.>.>.# # # # ] ] ] ] # # # # ] >.>.>.>.>.>.>.q.q.>.>.] >.>.q.>.>.>.>.# # # # ] ] ] ] # # # $ ] >.>.>.>.,.>.>.q.q.>.>.] ",
">.>.>.>.>.>.>.] ] ] ] # >.>.>.] # # ] >.>.q.q.q.q.>.q.q.q.q.>.>.>.q.q.q.>.>.>.] ] ] ] # ,.>.>.] # # ] >.>.q.q.q.q.>.q.q.q.q.>.>.",
"q.q.q.>.>.] ] >.>.>.>.] >.>.>.>.>.] ] >.q.q.q.q.q.>.>.q.q.q.q.q.>.q.q.q.>.] ] >.>.>.>.] >.>.>.>.>.] ] >.q.q.q.q.q.>.>.q.q.q.q.q.",
"q.q.q.>.] >.>.q.q.q.q.>.] >.>.>.>.>.] >.>.q.q.q.q.q.>.>.>.q.q.q.>.q.>.>.] >.>.q.q.q.q.>.] >.>.>.>.>.] >.>.q.q.q.q.q.>.>.>.q.q.q.",
"q.>.>.>.>.>.>.>.>.q.q.q.>.] ] >.>.# # ] ] >.q.q.q.q.q.q.q.q.q.>.] >.>.] >.>.>.>.q.q.q.q.>.] ] >.>.# # ] ] >.q.q.q.q.q.q.q.q.q.>.",
">.>.q.q.q.q.q.>.>.>.q.q.q.# ] ] ] # >.>.>.] ] ] >.>.q.q.q.q.>.>.] >.] >.q.q.q.>.>.>.q.q.q.# ] ] ] # >.>.>.] ] ] >.>.q.q.q.q.>.>.",
">.q.q.q.q.q.q.q.q.>.q.q.q.>.# ] ] ] >.>.>.>.>.# # ] ] >.>.u.>.] ] ] t.q.q.q.q.q.q.>.q.q.q.>.# ] ] ] >.>.>.>.>.# # ] ] >.>.>.>.>.",
"q.q.q.q.q.q.q.q.q.q.>.>.q.>.# # >.>.>.>.>.>.,.u.>.# ] ] q.K.u.;.Z.7 g.q.q.q.q.q.q.q.>.>.q.>.# # >.>.>.>.>.>.>.>.>.# ] ] >.>.>.] ",
"q.q.q.q.q.q.q.q.>.>.>.q.q.>.] # >.>.>.>.>.>.>.8 L.>.# r c.c.u.;.Z.s.p.q.q.q.q.q.>.>.>.q.q.>.] # >.>.>.>.>.>.>.q.q.>.# # ] ] ] ] ",
"q.q.q.q.q.q.q.q.q.q.q.>.>.] ] ] >.>.>.>.>.>.q.q.v.>.# x.z.2.2.Z.2.i.A.:.q.w.k.q.q.q.q.>.# # ] ] >.>.>.>.>.>.q.q.q.>.# # # # ] ] ",
"] >.q.q.q.q.q.q.q.>.>.>.>.>.>.] ] # # >.>.>.>.>.u.z.s.t.2.# # # 2.s.3.`.w.J.c q.q.>.>.# ] >.>.] ] # # >.>.>.>.>.] # ] >.>.>.>.>.",
">.] ] ] >.q.q.>.# ] ] ] >.>.>.>.>.>.>.] ] ] ] ] # Z.u.# ] >.>.] Z.k 3.w.J.c.] >.] ] ] ] >.>.>.>.>.>.>.] ] ] ] ] # # # >.q.q.q.>.",
">.>.>.>.] ] ] # # >.>.>.>.>.>.>.>.>.>.>.q.q.q.>.] 2.g ] 8 t.>.] f f f 6 c.w.] ] ] f ] >.>.>.>.>.>.>.>.>.q.q.q.] ] # >.q.q.q.>.>.",
">.>.>.] ] # ] ] ] >.>.q.q.q.q.q.>.>.>.q.q.q.q.>.] z.2.] >.z.t.* f 2.2.6 k.4.2.f f 3.] >.q.q.q.q.>.>.>.q.q.q.q.q.] ] >.q.q.q.q.q.",
"q.>.>.] # ] ] >.>.q.q.q.q.q.>.>.>.>.>.>.q./.,.] ] z.z.] ,.>.j.e.* D : 9.6 3 6 Z.2.3.] >.q.q.>.>.>.>.>.>.q.q.q.q.>.] >.q.q.q.q.q.",
"q.q.q.>.] >.>.q.q.q.q.q.q.>.q.q.q.q.q.q.q.z.e.] 0.8 z.% ] ] 0 p.o : k.: S.j j.<.2.3.f ] >.>.>.q.q.q.q.q.q.q.q.q.>.] >.q.q.q.q.q.",
"q.q.q.>.] >.q.q.q.q.q.q.q.q.q.q.q.q.q.>.] ] v.y.R.T.3 k.* 2.1.z.h., 3 : 3 w.4.j.k.6 s.] ] >.8 I.q.q.q.q.q.q.>.>.# # # >.q.q.q.q.",
"q.q.>.>.] ] >.q.q.q.q.q.q.q.q.q.q.q.>.] S S 3.c.Z.2.3 k.: * w.2.D.: 3 G.w.3 o s <.K L.K ] H.7 c q.q.>.] # # # # # # # >.>.>.>.q.",
"q.>.] ] # ] ] >.q.q.q.q.q.q.q.q.,.] s.5.8 k 2.x.l d * 1 F.3 * 2.h.: F.j.0 3 j.j.: * z.7 z.z.] ] >.] ] # >.>.>.>.>.>.# # # # >.>.",
"] ] # ] ] >.>.] ] >.q.q.q.q.q.>.] 8 D.7.L.f U.V V y B N G U.y R G G H G r H N.t I I < x.z.l 2.] ] 8 >.q.>.>.>.>.q.q.>.>.>.# # # ",
"# # ] >.>.>.>.>.>.] # >.q.>.] ] ] 4 z.8 c.4.S O.%.=.=.%.=.:.=.$.#.#._ O._ _ ^ ( ~ ~ Q 9 k Z.7.2.H.8 q.q.q.q.q.>.q.q.q.q.q.>.# # ",
"] >.>.>.>.>.q.q.q.>.# # # # # ] 1.7 j.z.s 4.W O.$.$.@.$.$.#.$.$.@.O.O./ / / ( ~ ~ R ! 9.* M c z.z.] q.q.q.q.q.q.q.q.q.q.q.>.>.# ",
"] >.q.q.q.q.q.q.>.# # ] ] ] ] Z 2.d i.f <.Z.5 @ O.].].].].].].].].].].].].].:.].#.} < d d s z.z.k ] >.q.q.q.q.q.q.q.q.q.>.>.>.>.",
"] ] >.q.q.q.>.# # # >.>.>.>.] f 2.d * 3 : w.: h.+.$X*X-X*X*X*X*X*X*X*X*X*X*X*X%X'.e w.D 3.x 7 8 7.] ] >.q.q.q.q.q.q.q.q.q.q.>.>.",
">.] ] ] ] ] ] >.>.>.>.>.>.>.] 3.Z.* w.k.3 w.w.G.U $X>X,X,X<X,X<X,X,X,X,X,X,X<X;X*.+ k., f 2.2.f d ] ! 6 >.>.q.q.>.>.>.q.q.q.q.q.",
">.] # # # >.>.>.>.q.q.>.q.>.7 3.f : : G.w.3 G.k.w }.-X,X,X,X,X,X,X,X,X,X,X,X>X{.u 3 : k.f f A 2.1.d 8 L.>.>.>.>.q.>.q.q.q.q.q.q.",
"] ] >.>.>.>.>.q.q.q.>.>.q.>.z.z.8 3.f 3 G.w.b.w.w.n.[.%X>X,X,X,X,X,X<X<X,X;X{.Y 0 k.3 : h f x L.f 2.z.z.>.>.>.q.q.q.q.q.q.q.q.q.",
"] >.>.>.>.>.>.>.>.>.>.>.>.q.8 P.z.Z.2.: k.w.k.w.k.1 u B.%X:X,X>X,X,X<X>X%X[.y > 3 k.2.d : f x z.6.h z.8 ] # >.>.q.q.q.q.q.q.>.>.",
"] >.>.>.>.>.q.q.q.q.>.>.q.] D 7 c.2.2.2 : k.w.3 1 w.1 d.M.[.%X>X,X,X:XXX{ p l.: w.3 G.k.w.3.3.7 7 c.k 3.] ] >.>.>.q.q.q.q.>.] # ",
"# # >.>.>.>.q.q.q.q.E.] ] 1.f s z.g k.2 w.3 : * r.k.1 r.  q B.-X<X:X{.C 5 z.k.4 z.2 2 F.z.f 3.f 4 s.f 3.1.# # ] ] >.q.>.>.] # # ",
"# ] ] ] ] ] ] >.q.x 7 |.# k.f f Z.d m.e.e.L.k.w.4 w., K.w.1 N.$X,X%X{ > r.k.3 k.P.: r.3 : w.: * * M h k.k.7 3.] ] ] ] ] ] ] ] ] ",
">.>.>.>.>.>.# # ] x L.7 2.3 u.Z.f Z k.w.3 k.k.G.r.3 : 1 L.e.n.$X<X-XT > : G.r.G.r.: w.k.3 w.r.: * d l.2.Z.Z.Z.] >.>.>.>.] ] ] ] ",
">.>.>.>.>.>.>.# # # 7 c.x f 3 3.* * % m w.3 d w.k.w.w.: l.p [.&X=X&XXXi l.4 3 k.3 : : k.w.3 k.G.: 4 2 Z.Z.! ] ] >.>.>.q.q.>.>.] ",
">.>.>.>.>.>.>.] ] ] # 7 z.R.h o w.k.w.* v w.Z.g   w.k.1 r [.OXoX_._.OXW.H d.4 r.3 k.: 3 k.* G.w.  A f 2.E ] >.q.q.>.q.q.q.q.>.>.",
"q.q.q.>.>.] ] >.>.>.] # z.Z.Z.& ; * k.k.r.k.:   d   0 a W.OX_.).(.(.).^.E.G 5 > w.k.w.  * w.k.  1.z.1.f # >.>.q.q.>.>.q.q.q.q.q.",
"q.q.q.>.] >.>.q.q.q.>.] # 2.Z.2.A.*   k.k.3 : k.  M y  XOX_.).).(.(.(.(.).Y.G .   G.k.    w.* 2.1.7 z.d # >.q.q.q.q.>.>.>.q.q.q.",
"q.>.>.>.>.>.>.>.>.q.q.] ] # 3.7 z.8 2   p.3 k.r.k.r }.@X_.).(.~.(.(.(.(.(.(.Y.E *   G.4 *   S f Z.1.z.* ] >.q.q.q.q.q.q.q.q.q.>.",
">.>.q.q.q.q.q.>.>.>.q.>.] ] # L.7 f * 0 . : G.: q V.#X+X).(.(.(.(.(.(.(.(.(.!.I.I = : k.  ; d A.Z.3.7 # # ] ] ] >.>.q.q.q.q.>.>.",
">.q.q.q.q.q.q.q.q.>.q.q.>.] z.z.7 2.f   k.: b.: U .X@X^.^.!.!.!.!.!.!.!.!.!.!.Q.R @ X e.= A.Z.s.2.M f # >.>.>.# # ] ] >.>.>.>.>.",
"q.q.q.q.q.q.q.q.q.q.>.>.q.] z.k 2.f f f   k., + U -.;.X. . .o.o.X. . . . . . .X.^ - - e.6.P k K.2.f # ] >.>.>.>.>.# ] ] >.>.>.] ",
"q.q.q.q.q.q.q.q.>.>.>.q.q.# x.2.z.z.4 D.= 4 r E O.$.$.$.$.$.@.@.@.@.( ) ( ( ( / ~ R G 7.l P & k.w.E >.>.>.>.>.q.q.>.# # ] ] ] ] ",
"q.q.q.q.q.q.q.q.q.q.q.>.>.# # j.# # h z.h.Z B $.&.&.&.&.%.&.%.%.$.$.$.@.O.O.( ( ~ ~ ' ] J.Z Z.* k.w.>.>.>.>.q.q.q.>.# # # # ] ] ",
"] >.q.q.q.q.q.q.q.>.>.>.] ] 7 4 ] # 2.7 s.= n.C R [ N.Q R ~ [ [ ^ Q Q R ] I ! W ` C J 6 z.Z.d Z 4.k.] ,.>.>.>.>.] # ] >.>.>.>.>.",
">.] ] ] >.q.q.>.# ] ] ] ] >.>.>.] ] # 7 a.A * . 5 D.f.+ + d.5 e.= 8.F M L 8.f.f.9 9 i.z.2.Z Z.Z.,.k.b ] ] ] ] ] # # # >.q.q.q.>.",
">.>.>.>.] ] ] # # >.>.>.>.>.>.>.,.] ] # 6 m f : k.k.  * : G.3 3 m 6 f f Z.k.4.Z f 2.p.7 f # # # ] 8 z ] q.q.q.] ] # >.q.q.q.>.>.",
">.>.>.] ] # ] ] ] >.>.q.q.q.q.q.>.D ] $ C.6.6.X w.  *   w.k.* o m z.z.k 3 4 R.A.2.2.# # # >.q.q.>.] ] q.q.q.q.q.] ] >.q.q.q.q.q.",
"q.>.>.] # ] ] >.>.q.q.q.q.q.>.>.4 z.c.] 3.c.z.5.e.* 2.  k.  O * 2.8 L.c.2.* % # # # # >.>.q.>.>.>.>.>.>.q.q.q.q.>.] >.q.q.q.q.q.",
"q.q.q.>.] >.>.q.q.q.q.q.q.>.q.q.q.7 L.] x.K.4 S f f f e.@ * h + 2.4.7 x.2.f # ] ] >.>.q.q.>.q.q.q.q.q.q.q.q.q.q.>.] >.q.q.q.q.q.",
"q.q.q.>.] >.q.q.q.q.q.q.q.q.q.q.q.q.8 z.z.7 1.2.R.Z.f d x.5.6 8 f 1.7 z.k f ] >.>.q.q.q.q.q.q.q.q.q.q.q.q.q.>.>.] # ] >.q.q.q.q.",
"q.q.>.>.] ] >.q.q.q.q.q.q.q.q.q.q.I.>.7 7 # # # Z.f Z.8 D.f H.f f f F 7 8 f ] >.q.q.q.q.q.q.q.q.q.q.>.] # # # # # # # >.>.>.>.q.",
"q.>.] ] # ] ] >.q.q.q.q.q.q.q.q.>.] ] # >.>.>.>.# # 2.8 x.7 x.3.f 2.f # # 0.] ] q.q.q.q.q.q.q.q.>.] ] # >.>.>.>.>.>.# # # # >.>.",
"] ] # ] ] >.>.] ] >.q.q.q.q.q.>.>.] >.q.>.>.>.>.>.>.# 6 p.z.7 3.# # # ] ] >.] ] ] >.q.q.q.q.q.>.>.] >.q.>.>.>.>.q.q.>.>.>.# # # ",
"# # ] >.>.>.>.>.>.] # >.q.>.] ] ] >.q.q.q.q.q.>.q.q.q.q.a.8 # # ] ] ] >.>.>.>.>.>.] # >.q.>.] ] ] >.q.q.q.q.q.>.q.q.q.q.q.>.# # ",
"] >.>.>.>.>.q.q.q.>.# # # # # # # ] q.q.q.q.q.q.q.q.q.q.q.>.>.# ] >.>.>.>.>.q.q.q.>.# # # # # # # ] q.q.q.q.q.q.q.q.q.q.q.>.>.# ",
"] >.q.q.q.q.q.q.>.# # ] ] ] ] # # # >.q.q.q.q.q.q.q.q.q.>.>.>.>.] >.q.q.q.q.q.q.>.# # ] ] ] ] # # # >.q.q.q.q.q.q.q.q.q.>.>.>.>.",
"] ] >.q.q.q.>.# # # >.>.>.>.>.] ] ] ] >.q.q.q.q.q.q.q.q.q.q.>.>.] ] >.q.q.q.>.# # # >.>.>.>.>.] ] ] ] >.q.q.q.q.q.q.q.q.q.q.>.>.",
">.] ] ] ] ] ] >.>.>.>.>.>.>.q.>.>.>.# # >.>.q.q.>.>.>.q.q.q.q.q.>.] ] ] ] ] ] >.>.>.>.>.>.>.q.>.>.>.# # >.>.q.q.>.>.>.q.q.q.q.q.",
">.] # # # j >.>.>.q.q.>.q.q.q.q.>.>.>.>.# >.>.>.q.>.q.q.q.q.q.q.>.] # # # >.>.>.>.q.q.>.q.q.q.q.>.>.>.>.# >.>.>.q.>.q.q.q.q.q.q.",
"] ] >.>.>.>.>.q.q.q.>.>.q.q.q.q.q.q.q.>.] ] >.q.q.q.q.q.q.q.q.q.] ] >.>.>.>.>.q.q.q.>.>.q.q.q.q.q.q.q.>.] ] >.q.q.q.q.q.q.q.q.q.",
"] >.>.>.>.>.>.>.>.>.>.>.>.q.q.q.q.q.q.q.] # ] >.q.q.q.q.q.q.>.>.] >.>.>.>.>.>.>.>.>.>.>.>.q.q.q.q.q.q.q.] # ] >.q.q.q.q.q.q.>.>.",
"] >.>.>.>.>.q.q.q.q.>.>.q.q.q.q.q.q.q.q.>.] # ] >.q.q.q.q.>.] # ] >.>.>.>.>.q.q.q.q.>.>.q.q.q.q.q.q.q.q.>.] # ] >.q.q.q.q.>.] # ",
"# # >.>.>.>.q.q.q.q.q.q.q.q.q.q.q.q.q.>.] # # ] ] >.q.>.>.] # # # # >.>.>.>.q.q.q.q.q.q.q.q.q.q.q.q.q.>.] # # ] ] >.q.>.>.] # # "
};
