/* XPM */
static char *_a9321ee469e4493ad4443b89fe98387BvchUQXfgxzXRkHG[] = {
/* columns rows colors chars-per-pixel */
"64 64 164 2 ",
"   c None",
".  c #3F3B4C",
"X  c #403B4D",
"o  c #403D4F",
"O  c #403E50",
"+  c #443E50",
"@  c #453F52",
"#  c #3E516C",
"$  c #3D506E",
"%  c #2E4C79",
"&  c #304D7A",
"*  c #324F7C",
"=  c #33507E",
"-  c #36527D",
";  c #464052",
":  c #464053",
">  c #474154",
",  c #484255",
"<  c #484256",
"1  c #494356",
"2  c #494357",
"3  c #4E4953",
"4  c #4F4A53",
"5  c #4E4954",
"6  c #4F4A54",
"7  c #4E4A56",
"8  c #4A4458",
"9  c #4B4558",
"0  c #4B4559",
"q  c #4C4559",
"w  c #4C455A",
"e  c #4D465B",
"r  c #4D475B",
"t  c #4D475C",
"y  c #4E475C",
"u  c #4E485C",
"i  c #4E485D",
"p  c #4F485E",
"a  c #4F495E",
"s  c #50495F",
"d  c #504A5F",
"f  c #4A595B",
"g  c #5E6756",
"h  c #59655F",
"j  c #514A60",
"k  c #514B60",
"l  c #524B60",
"z  c #524B61",
"x  c #524C61",
"c  c #544D63",
"v  c #544D64",
"b  c #554E65",
"n  c #564F66",
"m  c #564F67",
"M  c #4F556E",
"N  c #575067",
"B  c #51576F",
"V  c #585168",
"C  c #595269",
"Z  c #59526A",
"A  c #5B546C",
"S  c #5C546C",
"D  c #5C556D",
"F  c #5D566F",
"G  c #5E576F",
"H  c #475D73",
"J  c #4A5E70",
"K  c #475F7D",
"L  c #605871",
"P  c #605972",
"I  c #615A73",
"U  c #625A74",
"Y  c #625B75",
"T  c #635B75",
"R  c #635C75",
"E  c #645C76",
"W  c #665E79",
"Q  c #665F79",
"!  c #675F79",
"~  c #5F6E73",
"^  c #5A6B77",
"/  c #6A627D",
"(  c #9F9A66",
")  c #BBAE65",
"_  c #B4A96E",
"`  c #C3AF5D",
"'  c #C2AF5E",
"]  c #C2AF5F",
"[  c #C2B058",
"{  c #C5B358",
"}  c #D9C055",
"|  c #D9C155",
" . c #DAC255",
".. c #D9C156",
"X. c #D9C157",
"o. c #DAC257",
"O. c #DBC357",
"+. c #DEC456",
"@. c #D9C158",
"#. c #D9C258",
"$. c #D9C259",
"%. c #DAC25A",
"&. c #DAC35B",
"*. c #DCC359",
"=. c #DEC866",
"-. c #DCCA74",
";. c #3D5882",
":. c #3E5A83",
">. c #506A91",
",. c #526B92",
"<. c #536C93",
"1. c #536D94",
"2. c #556E95",
"3. c #566F95",
"4. c #577096",
"5. c #6C6480",
"6. c #6D6581",
"7. c #898A9C",
"8. c #898B9C",
"9. c #8A8B9C",
"0. c #ACAB8A",
"q. c #A7AB9C",
"w. c #8B9FBD",
"e. c #8C9FBE",
"r. c #9FACBA",
"t. c #9FADBF",
"y. c #BEBBA3",
"u. c #B3BAB6",
"i. c #D1C69C",
"p. c #E7D78F",
"a. c #E8D78F",
"s. c #E5D99E",
"d. c #C8C5A9",
"f. c #D0CCA9",
"g. c #D4CEA8",
"h. c #DFDAB4",
"j. c #EDDFA3",
"k. c #ADBDD6",
"l. c #AFBED7",
"z. c #B0C0D8",
"x. c #B4C3DB",
"c. c #B5C4DC",
"v. c #B6C5DD",
"b. c #B7C6DD",
"n. c #BFCDE6",
"m. c #DFDEC4",
"M. c #DFDEC6",
"N. c #F9F0CE",
"B. c #C0CEE7",
"V. c #C7D4E9",
"C. c #C7D4EA",
"Z. c #C8D5EA",
"A. c #D2DEF2",
"S. c #D3DFF2",
"D. c #DCE7FA",
"F. c #DDE8FA",
"G. c #E4EEFF",
"H. c #E5EEFF",
"J. c #E5EFFF",
"K. c #E5F0FF",
"L. c #E6F0FF",
"P. c #E7F1FF",
"I. c #E8F3FF",
"U. c #EAF4FF",
/* pixels */
"                                                                                                                                ",
"                                                                                                                                ",
"                                                                                                                                ",
"                                                                                                                                ",
"                                                                                                                                ",
"                                                                                                                                ",
"                                                                                                                                ",
"                                                                                                                                ",
"                                                                                                                                ",
"                                                                                                                                ",
"                                                                                                                                ",
"                                                                                                                                ",
"                                                                                                                                ",
"                                                                                                                                ",
"                                                                                                                                ",
"                                                                                                                                ",
"                                                                                                                                ",
"                                                                                                                                ",
"                                                                                                                                ",
"                                                                                                                                ",
"                                                                                                                                ",
"                                                  s V V V V V V N n c x j j a w 0 0 1 1                                         ",
"                                                1 L 5.5.5.5.5.5./ ! T L D V n c s a 0 1 :                                       ",
"                                                @ t j j a j s a a t w w 1 1 1 > : @ @ @ @                                       ",
"                                                    M 7.7.9.9.7.7.7.7.7.9.7.7.9.7.7.B                                           ",
"                                                    1.D.P.G.P.P.P.P.P.G.P.P.K.P.I.F.3.                                          ",
"                                                      l.P.G.G.G.G.G.G.G.G.G.G.G.I.l.                                            ",
"                                                      >.V.I.G.G.G.G.G.G.G.G.G.P.Z.>.                                            ",
"                                                        >.b.G.G.G.G.G.G.G.G.G.b.<.                                              ",
"                                                            e.A.P.G.G.G.P.A.w.-                                                 ",
"                                                              3.x.G.G.G.b.4.                                                    ",
"                                                                :.C.P.C.:.                                                      ",
"                                                                  l.U.z.                                                        ",
"                                                                % n.U.V.&                                                       ",
"                                                              * t.m.h.M.r.;.                                                    ",
"                                                            K u.s.$.{ +.-.0.J                                                   ",
"                                                          ^ d.p.*.X.X.X.{ +.) h                                                 ",
"                                                        ~ g.a.X.X.X.X.X.+.O.O.{ g                                               ",
"                                                      J f.j.$.X.X.X.X.X.X.X.X.O.[ f                                             ",
"                                                      q.N.=.X.X.X.X.X.O.X.O.X.X.+.(                                             ",
"                                                    $ y.i.[ ' ' [ [ ] ] ' ' ' ' ' _ #                                           ",
"                                                  . O 7 7 7 7 7 7 7 7 7 4 4 4 3 3 3 o X                                         ",
"                                                > V R T T T T Y L D S C N c j s t w 8 1 >                                       ",
"                                                > A ! ! ! ! ! ! E U G S V N c c s w 0 > >                                       ",
"                                                                                                                                ",
"                                                                                                                                ",
"                                                                                                                                ",
"                                                                                                                                ",
"                                                                                                                                ",
"                                                                                                                                ",
"                                                                                                                                ",
"                                                                                                                                ",
"                                                                                                                                ",
"                                                                                                                                ",
"                                                                                                                                ",
"                                                                                                                                ",
"                                                                                                                                ",
"                                                                                                                                ",
"                                                                                                                                ",
"                                                                                                                                ",
"                                                                                                                                ",
"                                                                                                                                ",
"                                                                                                                                ",
"                                                                                                                                "
};
